<svg enable-background="new 0 0 1000.637 1000.678" height="1000.678" viewBox="0 0 1000.637 1000.678" width="1000.637" xmlns="http://www.w3.org/2000/svg"><path d="m296.098 523.078v243.677c0 18.313.803 29.993 2.417 35.046 1.61 5.055 4.978 9.194 10.107 12.415 5.126 3.224 13.328 4.834 24.609 4.834h6.812v8.13h-156.884v-8.13h7.91c12.744 0 21.825-1.463 27.246-4.395 5.417-2.929 9.081-6.956 10.986-12.085 1.902-5.126 2.856-17.063 2.856-35.815v-154.468c0-13.768-.659-22.374-1.978-25.818-1.318-3.439-3.773-6.371-7.361-8.789-3.591-2.416-7.728-3.625-12.415-3.625-7.471 0-16.555 2.345-27.246 7.031l-3.955-7.91 109.644-50.098z"/><path d="m560.869 827.18h-175.342v-4.834c53.757-64.013 86.387-107.079 97.888-129.199 11.498-22.117 17.249-43.726 17.249-64.819 0-15.381-4.762-28.159-14.282-38.343-9.524-10.179-21.169-15.271-34.937-15.271-22.56 0-40.066 11.281-52.515 33.838l-8.13-2.856c7.91-28.125 19.919-48.924 36.035-62.402 16.112-13.476 34.717-20.215 55.811-20.215 15.085 0 28.856 3.516 41.309 10.547 12.448 7.031 22.191 16.665 29.223 28.895 7.031 12.232 10.547 23.695 10.547 34.387 0 19.483-5.42 39.259-16.26 59.326-14.797 27.102-47.097 64.895-96.899 113.379h64.379c15.82 0 26.11-.659 30.872-1.978 4.759-1.318 8.679-3.55 11.755-6.702 3.076-3.147 7.104-9.777 12.086-19.885h7.91z"/><path d="m746.098 523.078v243.677c0 18.313.804 29.993 2.418 35.046 1.609 5.055 4.978 9.194 10.107 12.415 5.125 3.224 13.327 4.834 24.609 4.834h6.811v8.13h-156.885v-8.13h7.91c12.744 0 21.826-1.463 27.246-4.395 5.418-2.929 9.082-6.956 10.986-12.085 1.902-5.126 2.857-17.063 2.857-35.815v-154.468c0-13.768-.66-22.374-1.979-25.818-1.318-3.439-3.772-6.371-7.36-8.789-3.591-2.416-7.728-3.625-12.415-3.625-7.471 0-16.555 2.345-27.246 7.031l-3.955-7.91 109.645-50.098z"/><path d="m433.427 115.751v80.64h-7.91c-4.69-18.602-9.888-31.97-15.601-40.101-5.713-8.129-13.551-14.611-23.511-19.445-5.569-2.637-15.309-3.955-29.224-3.955h-22.191v229.834c0 15.236.841 24.757 2.527 28.564 1.682 3.811 4.978 7.141 9.888 9.998 4.906 2.855 11.608 4.284 20.105 4.284h9.888v8.13h-156.007v-8.13h9.888c8.642 0 15.601-1.538 20.874-4.614 3.808-2.05 6.812-5.565 9.009-10.547 1.61-3.516 2.417-12.744 2.417-27.686v-229.833h-21.533c-20.071 0-34.645 4.25-43.726 12.744-12.744 11.865-20.802 28.784-24.17 50.757h-8.35v-80.64z"/><path d="m760.16 108.94v105.029h-8.129c-9.816-28.709-24.537-50.537-44.166-65.479-19.631-14.941-41.088-22.412-64.379-22.412-22.269 0-40.797 6.263-55.592 18.786-14.797 12.525-25.268 29.993-31.42 52.405s-9.229 45.411-9.229 68.994c0 28.564 3.367 53.613 10.107 75.146 6.735 21.533 17.611 37.354 32.629 47.461 15.014 10.107 32.85 15.161 53.504 15.161 7.175 0 14.535-.77 22.082-2.307 7.543-1.539 15.271-3.771 23.182-6.702v-61.963c0-11.718-.807-19.298-2.418-22.741-1.613-3.44-4.943-6.555-9.997-9.339-5.054-2.781-11.172-4.175-18.347-4.175h-7.691v-8.13h144.801v8.13c-10.986.734-18.643 2.235-22.962 4.504-4.322 2.273-7.656 6.043-9.997 11.316-1.318 2.784-1.979 9.596-1.979 20.435v61.963c-19.043 8.497-38.857 14.907-59.436 19.226-20.582 4.319-41.934 6.482-64.051 6.482-28.271 0-51.745-3.846-70.422-11.535-18.677-7.691-35.156-17.799-49.438-30.322-14.282-12.525-25.454-26.622-33.508-42.298-10.255-20.215-15.381-42.847-15.381-67.896 0-44.824 15.745-82.689 47.242-113.599 31.492-30.906 71.115-46.362 118.871-46.362 14.795 0 28.125 1.174 39.99 3.516 6.445 1.174 16.882 4.504 31.312 9.998 14.427 5.493 22.962 8.24 25.599 8.24 4.099 0 7.91-1.5 11.426-4.504 3.516-3 6.735-8.679 9.668-17.029h8.129z"/></svg>