<svg enable-background="new 0 0 1000.637 1000.678" height="1000.678" viewBox="0 0 1000.637 1000.678" width="1000.637" xmlns="http://www.w3.org/2000/svg"><path d="m202.098 555.501v243.678c0 18.313.803 29.992 2.417 35.047 1.61 5.053 4.978 9.193 10.107 12.414 5.126 3.223 13.328 4.834 24.609 4.834h6.812v8.129h-156.884v-8.129h7.91c12.744 0 21.825-1.463 27.246-4.395 5.417-2.93 9.081-6.957 10.986-12.086 1.902-5.125 2.856-17.063 2.856-35.814v-154.469c0-13.768-.659-22.373-1.978-25.816-1.318-3.441-3.773-6.373-7.361-8.789-3.591-2.418-7.728-3.627-12.415-3.627-7.471 0-16.555 2.346-27.246 7.031l-3.955-7.91 109.644-50.098z"/><path d="m489.061 710.628c0 29.738-4.175 57.496-12.524 83.277-4.981 15.82-11.683 28.783-20.105 38.891-8.425 10.107-17.983 18.129-28.674 24.061-10.694 5.934-22.34 8.898-34.937 8.898-14.358 0-27.322-3.662-38.892-10.986-11.573-7.322-21.829-17.797-30.762-31.42-6.448-9.961-12.085-23.217-16.919-39.771-6.3-22.412-9.448-45.555-9.448-69.434 0-32.371 4.539-62.107 13.623-89.209 7.471-22.412 18.821-39.584 34.058-51.525 15.233-11.938 31.345-17.908 48.34-17.908 17.283 0 33.433 5.898 48.45 17.688 15.014 11.794 26.038 27.651 33.069 47.571 9.811 27.392 14.721 57.347 14.721 89.867zm-67.676-.44c0-52.146-.295-82.541-.879-91.186-1.466-20.359-4.981-34.131-10.547-41.309-3.663-4.688-9.596-7.031-17.798-7.031-6.3 0-11.282 1.758-14.941 5.273-5.421 5.129-9.084 14.172-10.986 27.137-1.905 12.963-2.856 58.191-2.856 135.68 0 42.188 1.462 70.461 4.395 84.814 2.197 10.402 5.346 17.359 9.448 20.875 4.099 3.516 9.521 5.273 16.26 5.273 7.323 0 12.816-2.342 16.479-7.031 6.152-8.203 9.668-20.875 10.547-38.014z"/><path d="m714.061 710.628c0 29.738-4.174 57.496-12.523 83.277-4.982 15.82-11.684 28.783-20.105 38.891-8.426 10.107-17.983 18.129-28.674 24.061-10.695 5.934-22.34 8.898-34.938 8.898-14.357 0-27.321-3.662-38.891-10.986-11.574-7.322-21.829-17.797-30.762-31.42-6.448-9.961-12.086-23.217-16.92-39.771-6.299-22.412-9.447-45.555-9.447-69.434 0-32.371 4.538-62.107 13.623-89.209 7.471-22.412 18.82-39.584 34.057-51.525 15.234-11.938 31.346-17.908 48.34-17.908 17.283 0 33.434 5.898 48.45 17.688 15.014 11.794 26.038 27.651 33.069 47.571 9.811 27.392 14.721 57.347 14.721 89.867zm-67.676-.44c0-52.146-.295-82.541-.879-91.186-1.465-20.359-4.98-34.131-10.547-41.309-3.662-4.688-9.596-7.031-17.797-7.031-6.301 0-11.282 1.758-14.941 5.273-5.422 5.129-9.085 14.172-10.986 27.137-1.906 12.963-2.857 58.191-2.857 135.68 0 42.188 1.463 70.461 4.395 84.814 2.197 10.402 5.346 17.359 9.449 20.875 4.099 3.516 9.52 5.273 16.26 5.273 7.322 0 12.816-2.342 16.479-7.031 6.152-8.203 9.668-20.875 10.547-38.014z"/><path d="m939.061 710.628c0 29.738-4.174 57.496-12.523 83.277-4.982 15.82-11.684 28.783-20.105 38.891-8.426 10.107-17.983 18.129-28.674 24.061-10.695 5.934-22.34 8.898-34.938 8.898-14.357 0-27.321-3.662-38.891-10.986-11.574-7.322-21.829-17.797-30.762-31.42-6.448-9.961-12.086-23.217-16.92-39.771-6.299-22.412-9.447-45.555-9.447-69.434 0-32.371 4.538-62.107 13.623-89.209 7.471-22.412 18.82-39.584 34.057-51.525 15.234-11.938 31.346-17.908 48.34-17.908 17.283 0 33.434 5.898 48.45 17.688 15.014 11.794 26.038 27.651 33.069 47.571 9.811 27.392 14.721 57.347 14.721 89.867zm-67.676-.44c0-52.146-.295-82.541-.879-91.186-1.465-20.359-4.98-34.131-10.547-41.309-3.662-4.688-9.596-7.031-17.797-7.031-6.301 0-11.282 1.758-14.941 5.273-5.422 5.129-9.085 14.172-10.986 27.137-1.906 12.963-2.857 58.191-2.857 135.68 0 42.188 1.463 70.461 4.395 84.814 2.197 10.402 5.346 17.359 9.449 20.875 4.099 3.516 9.52 5.273 16.26 5.273 7.322 0 12.816-2.342 16.479-7.031 6.152-8.203 9.668-20.875 10.547-38.014z"/><path d="m361.682 148.176v80.64h-7.91c-4.69-18.602-9.888-31.97-15.601-40.101-5.713-8.129-13.551-14.611-23.511-19.445-5.569-2.637-15.309-3.955-29.224-3.955h-22.192v229.834c0 15.236.841 24.757 2.527 28.564 1.682 3.811 4.978 7.141 9.888 9.998 4.906 2.855 11.608 4.284 20.105 4.284h9.888v8.13h-156.006v-8.13h9.888c8.642 0 15.601-1.538 20.874-4.614 3.808-2.05 6.812-5.565 9.009-10.547 1.61-3.516 2.417-12.744 2.417-27.686v-229.834h-21.534c-20.071 0-34.645 4.25-43.726 12.744-12.744 11.865-20.802 28.784-24.17 50.757h-8.35v-80.64h267.628z"/><path d="m501.648 165.314v122.388h8.568c13.184 0 23.951-1.978 32.301-5.933s15.414-10.619 21.203-19.995c5.785-9.373 9.559-22.045 11.316-38.013h7.689v149.634h-7.689c-2.785-28.27-10.365-46.911-22.742-55.921-12.381-9.008-26.404-13.513-42.078-13.513h-8.568v91.187c0 15.236.841 24.757 2.526 28.564 1.683 3.811 4.978 7.141 9.888 9.998 4.906 2.855 11.535 4.284 19.885 4.284h9.889v8.13h-155.787v-8.13h9.888c8.642 0 15.601-1.538 20.874-4.614 3.808-2.05 6.736-5.565 8.789-10.547 1.61-3.516 2.417-12.744 2.417-27.686v-195.995c0-15.233-.807-24.754-2.417-28.564-1.614-3.808-4.872-7.141-9.778-9.998-4.91-2.856-11.536-4.285-19.885-4.285h-9.888v-8.13h251.367v85.474h-9.008c-2.054-20.067-7.289-34.937-15.711-44.604-8.426-9.668-20.62-16.479-36.584-20.435-8.789-2.197-25.049-3.296-48.779-3.296z"/><path d="m864.197 141.364 2.416 99.316h-9.008c-4.251-24.901-14.688-44.935-31.312-60.095-16.627-15.162-34.606-22.742-53.942-22.742-14.941 0-26.773 3.993-35.486 11.975-8.717 7.986-13.074 17.177-13.074 27.576 0 6.592 1.539 12.452 4.615 17.578 4.246 6.887 11.059 13.698 20.434 20.435 6.885 4.834 22.776 13.403 47.682 25.708 34.86 17.139 58.371 33.326 70.531 48.56 12.01 15.236 18.018 32.667 18.018 52.295 0 24.904-9.705 46.328-29.113 64.271-19.412 17.945-44.055 26.916-73.938 26.916-9.377 0-18.238-.954-26.588-2.856-8.35-1.905-18.824-5.493-31.42-10.767-7.031-2.929-12.82-4.395-17.359-4.395-3.811 0-7.838 1.466-12.084 4.395-4.251 2.932-7.691 7.396-10.328 13.403h-8.129v-112.5h8.129c6.445 31.641 18.859 55.776 37.244 72.399 18.381 16.628 38.195 24.939 59.436 24.939 16.404 0 29.479-4.467 39.222-13.403 9.74-8.934 14.612-19.336 14.612-31.201 0-7.031-1.868-13.843-5.604-20.435s-9.414-12.854-17.029-18.787c-7.617-5.932-21.094-13.657-40.43-23.181-27.102-13.328-46.582-24.682-58.447-34.058-11.865-9.373-20.983-19.848-27.355-31.421-6.372-11.57-9.559-24.314-9.559-38.232 0-23.73 8.714-43.945 26.148-60.645 17.43-16.699 39.402-25.049 65.918-25.049 9.668 0 19.04 1.174 28.125 3.516 6.883 1.758 15.271 5.02 25.158 9.778 9.888 4.762 16.809 7.141 20.764 7.141 3.809 0 6.813-1.171 9.01-3.516 2.197-2.341 4.246-7.982 6.152-16.919h6.591z"/></svg>