<svg enable-background="new 0 0 1000.637 1000.678" height="1000.678" viewBox="0 0 1000.637 1000.678" width="1000.637" xmlns="http://www.w3.org/2000/svg"><path d="m193.098 555.603v243.677c0 18.313.803 29.992 2.417 35.047 1.61 5.053 4.978 9.193 10.107 12.414 5.126 3.224 13.328 4.834 24.609 4.834h6.812v8.13h-156.884v-8.13h7.91c12.744 0 21.825-1.463 27.246-4.395 5.417-2.929 9.081-6.956 10.986-12.085 1.902-5.126 2.856-17.063 2.856-35.815v-154.468c0-13.768-.659-22.374-1.978-25.817-1.318-3.44-3.773-6.373-7.361-8.789-3.591-2.418-7.728-3.626-12.415-3.626-7.471 0-16.555 2.345-27.246 7.031l-3.955-7.91 109.644-50.098z"/><path d="m480.061 710.729c0 29.738-4.175 57.496-12.524 83.276-4.981 15.82-11.683 28.784-20.105 38.892-8.425 10.107-17.983 18.128-28.674 24.06-10.694 5.934-22.34 8.899-34.937 8.899-14.358 0-27.322-3.663-38.892-10.986-11.573-7.323-21.829-17.798-30.762-31.421-6.448-9.96-12.085-23.216-16.919-39.771-6.3-22.412-9.448-45.556-9.448-69.434 0-32.372 4.539-62.107 13.623-89.209 7.471-22.412 18.821-39.585 34.058-51.525 15.233-11.938 31.345-17.908 48.34-17.908 17.283 0 33.433 5.898 48.45 17.688 15.014 11.794 26.038 27.651 33.069 47.571 9.811 27.394 14.721 57.349 14.721 89.868zm-67.676-.439c0-52.147-.295-82.542-.879-91.187-1.466-20.359-4.981-34.13-10.547-41.309-3.663-4.687-9.596-7.031-17.798-7.031-6.3 0-11.282 1.758-14.941 5.273-5.421 5.129-9.084 14.172-10.986 27.137-1.905 12.963-2.856 58.192-2.856 135.681 0 42.188 1.462 70.46 4.395 84.814 2.197 10.402 5.346 17.358 9.448 20.874 4.099 3.516 9.521 5.273 16.26 5.273 7.323 0 12.816-2.342 16.479-7.031 6.152-8.202 9.668-20.874 10.547-38.013z"/><path d="m705.061 710.729c0 29.738-4.174 57.496-12.523 83.276-4.982 15.82-11.684 28.784-20.105 38.892-8.426 10.107-17.983 18.128-28.674 24.06-10.695 5.934-22.34 8.899-34.938 8.899-14.357 0-27.321-3.663-38.891-10.986-11.574-7.323-21.829-17.798-30.762-31.421-6.448-9.96-12.086-23.216-16.92-39.771-6.299-22.412-9.447-45.556-9.447-69.434 0-32.372 4.538-62.107 13.623-89.209 7.471-22.412 18.82-39.585 34.057-51.525 15.234-11.938 31.346-17.908 48.34-17.908 17.283 0 33.434 5.898 48.45 17.688 15.014 11.794 26.038 27.651 33.069 47.571 9.811 27.394 14.721 57.349 14.721 89.868zm-67.676-.439c0-52.147-.295-82.542-.879-91.187-1.465-20.359-4.98-34.13-10.547-41.309-3.662-4.687-9.596-7.031-17.797-7.031-6.301 0-11.282 1.758-14.941 5.273-5.422 5.129-9.085 14.172-10.986 27.137-1.906 12.963-2.857 58.192-2.857 135.681 0 42.188 1.463 70.46 4.395 84.814 2.197 10.402 5.346 17.358 9.449 20.874 4.099 3.516 9.52 5.273 16.26 5.273 7.322 0 12.816-2.342 16.479-7.031 6.152-8.202 9.668-20.874 10.547-38.013z"/><path d="m930.061 710.729c0 29.738-4.174 57.496-12.523 83.276-4.982 15.82-11.684 28.784-20.105 38.892-8.426 10.107-17.983 18.128-28.674 24.06-10.695 5.934-22.34 8.899-34.938 8.899-14.357 0-27.321-3.663-38.891-10.986-11.574-7.323-21.829-17.798-30.762-31.421-6.448-9.96-12.086-23.216-16.92-39.771-6.299-22.412-9.447-45.556-9.447-69.434 0-32.372 4.538-62.107 13.623-89.209 7.471-22.412 18.82-39.585 34.057-51.525 15.234-11.938 31.346-17.908 48.34-17.908 17.283 0 33.434 5.898 48.45 17.688 15.014 11.794 26.038 27.651 33.069 47.571 9.811 27.394 14.721 57.349 14.721 89.868zm-67.676-.439c0-52.147-.295-82.542-.879-91.187-1.465-20.359-4.98-34.13-10.547-41.309-3.662-4.687-9.596-7.031-17.797-7.031-6.301 0-11.282 1.758-14.941 5.273-5.422 5.129-9.085 14.172-10.986 27.137-1.906 12.963-2.857 58.192-2.857 135.681 0 42.188 1.463 70.46 4.395 84.814 2.197 10.402 5.346 17.358 9.449 20.874 4.099 3.516 9.52 5.273 16.26 5.273 7.322 0 12.816-2.342 16.479-7.031 6.152-8.202 9.668-20.874 10.547-38.013z"/><path d="m438.193 148.277v80.64h-7.91c-4.69-18.602-9.888-31.97-15.601-40.101-5.713-8.129-13.551-14.611-23.511-19.445-5.569-2.637-15.309-3.955-29.224-3.955h-22.192v229.834c0 15.236.841 24.757 2.527 28.564 1.682 3.811 4.978 7.141 9.888 9.998 4.906 2.855 11.608 4.284 20.105 4.284h9.888v8.13h-156.006v-8.13h9.888c8.642 0 15.601-1.538 20.874-4.614 3.808-2.05 6.812-5.565 9.009-10.547 1.61-3.516 2.417-12.744 2.417-27.686v-229.833h-21.533c-20.071 0-34.645 4.25-43.726 12.744-12.744 11.865-20.802 28.784-24.17 50.757h-8.35v-80.64z"/><path d="m573.984 310.435v83.496c0 16.115.988 26.258 2.967 30.432 1.977 4.176 5.455 7.509 10.437 9.998 4.978 2.492 14.282 3.735 27.905 3.735v8.13h-152.49v-8.13c13.767 0 23.105-1.28 28.015-3.845 4.906-2.562 8.35-5.896 10.327-9.998 1.979-4.1 2.967-14.207 2.967-30.322v-193.359c0-16.112-.988-26.258-2.967-30.432-1.977-4.176-5.458-7.505-10.437-9.998-4.981-2.489-14.282-3.735-27.905-3.735v-8.13h138.427c36.035 0 62.402 2.493 79.102 7.471 16.699 4.981 30.322 14.172 40.869 27.576 10.547 13.402 15.82 29.113 15.82 47.131 0 21.973-7.91 40.138-23.73 54.492-10.107 9.084-24.246 15.896-42.407 20.435l71.631 100.854c9.372 13.039 16.04 21.169 19.995 24.39 6.005 4.542 12.964 7.031 20.874 7.471v8.13h-93.823l-96.021-135.792zm0-146.118v130.518h12.524c20.358 0 35.596-1.868 45.703-5.603 10.107-3.736 18.052-10.472 23.841-20.215 5.785-9.74 8.679-22.447 8.679-38.123 0-22.704-5.312-39.476-15.931-50.317-10.622-10.839-27.723-16.26-51.306-16.26z"/></svg>