<svg height="1000.678" viewBox="0 0 1000.637 1000.678" width="1000.637" xmlns="http://www.w3.org/2000/svg"><path d="M752.725 494.447h-390.083v-206.515c0-12.694-10.252-22.946-22.947-22.946-12.693 0-22.945 10.252-22.945 22.946v206.516h-68.84c-37.938 0-68.838 30.907-68.838 68.838v183.57c0 37.936 30.9 68.837 68.838 68.837h504.814c37.939 0 68.84-30.901 68.84-68.837v-183.57c0-37.932-30.9-68.839-68.839-68.839zm22.947 252.408c0 12.614-10.33 22.946-22.947 22.946h-504.815c-12.616 0-22.945-10.332-22.945-22.946v-183.57c0-12.615 10.329-22.945 22.945-22.945h504.814c12.617 0 22.947 10.33 22.947 22.945v183.57zM660.941 586.231c-38.004 0-68.84 30.834-68.84 68.84 0 38.003 30.836 68.837 68.84 68.837s68.838-30.834 68.838-68.837c0-38.006-30.834-68.84-68.838-68.84zm1.082 99.627c-16.926 0-30.787-13.861-30.787-30.788 0-16.928 13.861-30.787 30.787-30.787 16.928 0 30.787 13.859 30.787 30.787.001 16.927-13.859 30.788-30.787 30.788zm-345.274-53.733h45.893v45.893h-45.893zm91.784 0h45.892v45.893h-45.892zm91.785 0h45.893v45.893h-45.893z"/></svg>