<svg height="1000.678" viewBox="0 0 1000.637 1000.678" width="1000.637" xmlns="http://www.w3.org/2000/svg"><path d="M737.318 460.447c0-.167.074-.333.074-.576v-247.193c0-12.921-10.367-23.426-23.24-23.426-12.891.053-23.316 10.553-23.26 23.449v247.343h-381.225v-247.343c0-12.92-10.385-23.449-23.259-23.449-12.897.053-23.312 10.553-23.259 23.449v247.171c0 .172.099.337.099.576-41.729 2.953-74.06 37.69-74.018 79.517v191.348c-.104 44.133 35.592 80.01 79.733 80.115h462.714c44.137-.105 79.832-35.982 79.729-80.115v-191.349c-.056-41.818-32.373-76.507-74.088-79.517zm-5.574 304.146h-462.105c-18.286 0-33.072-14.838-33.072-33.188v-191.441c0-18.351 14.786-33.189 33.072-33.189h462.078c18.285 0 33.074 14.839 33.074 33.189v191.441c0 18.35-14.789 33.219-33.074 33.219zM438.476 360.925c-7.3 6.897-7.633 18.407-.731 25.708.238.251.485.495.731.732 7.767 7.274 19.842 7.274 27.618 0 19.454-18.286 49.775-18.286 69.227 0 7.701 7.361 19.824 7.361 27.523 0 7.301-6.898 7.633-18.409.732-25.71-.24-.251-.486-.493-.732-.73-32.938-31.532-88.74-34.088-124.368 0zM594.553 347.619c5.164 0 10.109-2.168 13.613-5.985 7.52-8.132 7.52-20.678 0-28.808-56.117-59.18-147.579-59.18-203.695 0-7.501 8.13-7.501 20.657 0 28.788 7.027 7.543 18.836 7.971 26.383.944.332-.303.646-.622.951-.944 41.076-43.409 108.018-43.314 149.029 0 3.807 4.017 8.764 6.005 13.719 6.005zM381.477 299.976c32.564-31.96 76.424-49.761 122.041-49.539 46.092 0 89.42 17.568 121.994 49.539 7.719 7.539 20.041 7.539 27.758 0 7.529-7.362 7.672-19.439.314-26.972l-.314-.308c-39.984-39.204-93.824-61.064-149.818-60.831-56.03-.262-109.878 21.598-149.876 60.831-7.529 7.362-7.67 19.438-.313 26.966l.313.313c7.793 7.495 20.127 7.495 27.921 0h-.02zm-73.129 275.601h79.11v77.477h-79.11zm117.825 0h79.092v77.477h-79.092z"/></svg>