<svg xmlns="http://www.w3.org/2000/svg" width="1000.637" height="1000.678" viewBox="0 0 1000.637 1000.678"><path d="M246.661 200.563h507.313c25.473 0 46.119 20.647 46.119 46.118v507.315c0 25.471-20.646 46.117-46.119 46.117h-507.313c-25.472 0-46.118-20.646-46.118-46.117v-507.314c0-25.471 20.646-46.119 46.118-46.119zm0 46.119v507.315h507.313v-507.315h-507.313zm0 138.36h507.313v46.12h-507.313v-46.12zm0 184.48h507.313v46.107h-507.313v-46.107zm46.119-276.721h46.124v46.119h-46.124v-46.119zm0 184.478h46.124v46.114h-46.124v-46.114zm0 184.482h46.124v46.117h-46.124v-46.117zm230.591-368.96h184.486v46.119h-184.486v-46.119zm0 184.478h184.486v46.114h-184.486v-46.114zm0 184.482h184.486v46.117h-184.486v-46.117z"/></svg>