<svg height="1000.678" viewBox="0 0 1000.637 1000.678" width="1000.637" xmlns="http://www.w3.org/2000/svg"><path d="M333.431 335.876v-21.243h-42.486v21.243h-21.243v42.478h84.973v-42.478zm115.308 0v-21.243h-42.485v21.243h-21.243v42.478h84.962v-42.478zM803.758 477.586h-606.879v-264.001h606.879zm-564.394-42.486h521.907v-179.029h-521.907zM521.561 335.876h194.207v42.478h-194.207zm145.646 309.507v-21.236h42.486v21.236h21.242v42.475h-84.971v-42.475zm-115.311 0v-21.236h42.486v21.236h21.244v42.475h-84.963v-42.475zM196.879 523.102h606.879v263.991h-606.879zm564.392 42.474h-521.907v179.03h521.907zM284.869 645.383h194.207v42.475h-194.207z"/></svg>