<svg xmlns="http://www.w3.org/2000/svg" width="1000.637" height="1000.678" viewBox="0 0 1000.637 1000.678"><path d="M766.265 228.068h-531.892c-26.6 0-44.325 17.731-44.325 44.324v531.893c0 26.599 17.726 44.324 44.325 44.324h531.892c26.599 0 44.324-17.726 44.324-44.324v-531.892c0-26.594-17.726-44.325-44.324-44.325zm0 554.055c0 13.299-8.862 22.162-22.161 22.162h-487.569c-13.3 0-22.162-8.863-22.162-22.162v-487.568c0-13.299 8.862-22.162 22.162-22.162h487.568c13.299 0 22.161 8.863 22.161 22.162v487.568zm-59.333-378.833c-2.656-5.316-8.858-8.864-15.062-8.864h-22.152v-2.656l6.202-36.335v-6.201c0-8.863-7.092-16.837-15.95-16.837-.887 0-2.661 0-3.546.885-5.318 1.775-8.862 4.433-11.519 7.978l-55.83 73.548c-3.543 6.204-4.432 11.521-.882 18.611 2.654 5.317 8.856 8.859 15.062 8.859h22.154v2.662l-7.976 45.191c-1.772 7.975 1.771 15.066 8.861 17.721 1.771.888 3.543.888 7.089.888s7.975-.888 10.636-3.542c1.77-.889 3.542-2.662 4.431-4.434l56.71-79.752c5.319-6.205 3.546-13.292 1.772-17.722z"/></svg>