<svg height="1000.678" viewBox="0 0 1000.637 1000.678" width="1000.637" xmlns="http://www.w3.org/2000/svg"><path d="M699.779 367.365h-110.811v-66.486c0-13.299-8.863-22.162-22.162-22.162h-132.974c-13.299 0-22.162 8.863-22.162 22.162v66.486h-110.811c-13.3 0-22.162 8.863-22.162 22.163v314.707c0 8.862 8.862 17.726 22.162 17.726h403.355c13.289 0 22.163-8.863 22.163-22.162v-310.271c-4.437-13.3-13.299-22.163-26.598-22.163zm-22.163 301.408c0 4.426-4.438 8.863-8.863 8.863h-332.432c-8.863 0-13.299-4.438-13.299-8.863v-248.22c0-4.432 4.437-8.863 13.299-8.863h119.673v-70.918c0-8.869 8.863-17.731 17.726-17.731h53.198c8.862 0 17.726 8.863 17.726 17.731v70.918h124.109c4.426 0 8.863 4.431 8.863 8.863zm88.649-478.705h-531.892c-26.6 0-44.325 17.731-44.325 44.324v531.893c0 26.599 17.726 44.324 44.325 44.324h531.892c26.599 0 44.324-17.726 44.324-44.324v-531.892c0-26.594-17.726-44.325-44.324-44.325zm0 554.055c0 13.299-8.862 22.162-22.161 22.162h-487.569c-13.3 0-22.162-8.863-22.162-22.162v-487.568c0-13.299 8.862-22.162 22.162-22.162h487.568c13.299 0 22.161 8.863 22.161 22.162v487.568z"/></svg>