<?xml version="1.0" encoding="utf-8"?>
<!-- Generator: Adobe Illustrator 16.0.0, SVG Export Plug-In . SVG Version: 6.00 Build 0)  -->
<!DOCTYPE svg PUBLIC "-//W3C//DTD SVG 1.1//EN" "http://www.w3.org/Graphics/SVG/1.1/DTD/svg11.dtd">
<svg version="1.1" id="图形" xmlns="http://www.w3.org/2000/svg" xmlns:xlink="http://www.w3.org/1999/xlink" x="0px" y="0px"
	 width="1000.637px" height="1000.678px" viewBox="0 0 1000.637 1000.678" enable-background="new 0 0 1000.637 1000.678"
	 xml:space="preserve">
<path fill="#272636" d="M860.381,769.194"/>
<g id="XMLID_789_">
	<path id="XMLID_504_" fill="#FFFFFF" d="M491.175,874.104L491.175,874.104c-25.801,0-46.919-21.119-46.919-46.928V745.97
		c0-25.791,21.119-46.903,46.919-46.903l0,0c25.801,0,46.905,21.112,46.905,46.903v81.206
		C538.08,852.984,516.977,874.104,491.175,874.104z"/>
	<g id="XMLID_506_">
		<path id="XMLID_1381_" fill="#414042" d="M491.175,882.978c-30.768,0-55.794-25.035-55.794-55.802V745.97
			c0-30.75,25.026-55.785,55.794-55.785c30.768,0,55.795,25.035,55.795,55.785v81.206
			C546.971,857.942,521.943,882.978,491.175,882.978z M491.175,707.933c-20.98,0-38.045,17.064-38.045,38.037v81.206
			c0,20.973,17.065,38.044,38.045,38.044c20.981,0,38.045-17.071,38.045-38.044V745.97
			C529.221,724.997,512.156,707.933,491.175,707.933z"/>
	</g>
	<g id="XMLID_702_">
		<g id="XMLID_742_">
			<rect id="XMLID_755_" x="680.428" y="525.771" fill="#414042" width="5.52" height="14.639"/>
		</g>
		<g id="XMLID_741_">
			<polygon id="XMLID_754_" fill="#414042" points="694.756,544.27 689.986,541.502 697.314,528.825 702.1,531.603 			"/>
		</g>
		<g id="XMLID_740_">
			<polygon id="XMLID_753_" fill="#414042" points="700.457,552.021 697.703,547.217 710.414,539.939 713.156,544.742 			"/>
		</g>
		<g id="XMLID_739_">
			<polygon id="XMLID_752_" fill="#414042" points="716.137,561.644 701.498,561.587 701.514,556.058 716.17,556.107 			"/>
		</g>
		<g id="XMLID_738_">
			<polygon id="XMLID_751_" fill="#414042" points="710.242,577.78 697.605,570.381 700.391,565.617 713.027,573.011 			"/>
		</g>
		<g id="XMLID_737_">
			<polygon id="XMLID_750_" fill="#414042" points="697.045,588.773 689.822,576.047 694.627,573.304 701.857,586.053 			"/>
		</g>
		<g id="XMLID_736_">
			<polygon id="XMLID_749_" fill="#414042" points="685.646,591.736 680.127,591.688 680.266,577.04 685.785,577.081 			"/>
		</g>
		<g id="XMLID_735_">
			<polygon id="XMLID_748_" fill="#414042" points="668.785,588.527 664.023,585.703 671.473,573.108 676.242,575.924 			"/>
		</g>
		<g id="XMLID_734_">
			<polygon id="XMLID_747_" fill="#414042" points="655.791,577.292 653.088,572.474 665.854,565.292 668.557,570.111 			"/>
		</g>
		<g id="XMLID_733_">
			<polygon id="XMLID_746_" fill="#414042" points="664.82,561.262 650.182,561.05 650.254,555.521 664.893,555.733 			"/>
		</g>
		<g id="XMLID_732_">
			<polygon id="XMLID_745_" fill="#414042" points="666.033,551.71 653.461,544.204 656.295,539.45 668.867,546.974 			"/>
		</g>
		<g id="XMLID_731_">
			<polygon id="XMLID_744_" fill="#414042" points="671.861,544.058 664.756,531.268 669.584,528.556 676.699,541.371 			"/>
		</g>
	</g>
	<g id="XMLID_743_">
		<g id="XMLID_778_">
			<rect id="XMLID_779_" x="205.974" y="211.749" fill="#414042" width="6.326" height="16.748"/>
		</g>
		<g id="XMLID_776_">
			<polygon id="XMLID_777_" fill="#414042" points="222.38,232.917 216.909,229.743 225.311,215.234 230.782,218.41 			"/>
		</g>
		<g id="XMLID_774_">
			<polygon id="XMLID_775_" fill="#414042" points="228.901,241.776 225.75,236.296 240.292,227.959 243.434,233.439 			"/>
		</g>
		<g id="XMLID_772_">
			<polygon id="XMLID_773_" fill="#414042" points="246.846,252.808 230.09,252.718 230.123,246.408 246.886,246.474 			"/>
		</g>
		<g id="XMLID_770_">
			<polygon id="XMLID_771_" fill="#414042" points="240.096,271.249 225.645,262.789 228.836,257.326 243.287,265.793 			"/>
		</g>
		<g id="XMLID_768_">
			<polygon id="XMLID_769_" fill="#414042" points="225.001,283.835 216.746,269.27 222.233,266.136 230.505,280.709 			"/>
		</g>
		<g id="XMLID_766_">
			<polygon id="XMLID_767_" fill="#414042" points="211.967,287.214 205.649,287.141 205.795,270.402 212.114,270.466 			"/>
		</g>
		<g id="XMLID_764_">
			<polygon id="XMLID_765_" fill="#414042" points="192.663,283.534 187.224,280.327 195.749,265.891 201.195,269.115 			"/>
		</g>
		<g id="XMLID_762_">
			<polygon id="XMLID_763_" fill="#414042" points="177.796,270.695 174.703,265.175 189.317,256.976 192.411,262.471 			"/>
		</g>
		<g id="XMLID_760_">
			<polygon id="XMLID_761_" fill="#414042" points="188.136,252.352 171.38,252.125 171.47,245.797 188.226,246.025 			"/>
		</g>
		<g id="XMLID_758_">
			<polygon id="XMLID_759_" fill="#414042" points="189.52,241.426 175.142,232.836 178.382,227.406 192.76,236.011 			"/>
		</g>
		<g id="XMLID_756_">
			<polygon id="XMLID_757_" fill="#414042" points="196.196,232.681 188.055,218.035 193.583,214.958 201.716,229.612 			"/>
		</g>
	</g>
	<g id="XMLID_502_">
		<path id="XMLID_1380_" fill="#414042" d="M777.768,437.012H588.297v-17.749h189.471c14.672,0,26.623-11.944,26.623-26.631v-34.74
			c0-14.688-11.951-26.623-26.623-26.623H536.369v-17.765h241.398c24.459,0,44.373,19.914,44.373,44.388v34.74
			C822.141,417.114,802.227,437.012,777.768,437.012z"/>
	</g>
	<g id="XMLID_503_">
		<path id="XMLID_1379_" fill="#414042" d="M483.059,697.536l-0.823-155.921l-229.83,1.905c-24.539,0-44.445-19.897-44.445-44.372
			V464.4c0-24.474,19.906-44.372,44.38-44.372H493.74v17.749H252.341c-14.688,0-26.623,11.944-26.623,26.623v34.748
			c0,14.68,11.935,26.623,26.623,26.623l247.562-2.051l0.913,173.709L483.059,697.536z"/>
	</g>
	<g id="XMLID_501_">
		<polygon id="XMLID_705_" fill="#A6A8AB" points="645.412,190.19 645.402,190.19 645.412,190.207 		"/>
		<path id="XMLID_704_" fill="#A6A8AB" d="M644.686,189.197c0.115,0.074,0.416-0.179,0.211-0.154
			C644.717,189.018,644.523,189.148,644.686,189.197z"/>
		<path id="XMLID_703_" fill="#E5E7E7" d="M681.777,308.521c1.873,107.225-83.482,195.675-190.708,197.516
			c-107.241,1.921-195.724-83.517-197.556-190.75C291.64,208.07,377.054,119.586,484.297,117.73
			C591.512,115.866,679.914,201.312,681.777,308.521z"/>
		<path id="XMLID_507_" fill="#53BBA5" d="M671.984,252.059C674.24,251.725,671.848,252.125,671.984,252.059L671.984,252.059z
			 M673.703,255.552C670.787,260.681,673.492,256.463,673.703,255.552L673.703,255.552z M593.004,235.279
			c0.658-0.578-34.807-33.869-9.607-34.846c-0.621-0.407-0.344-1.751,0.023-2.044c-0.822-0.106-0.48,0.326-0.35,0.92
			c-0.521-1.938-5.34,0.049-8.613-0.611c-0.986-0.17,0.887-0.984,0.162-1.099c0.033,0-0.041-0.912-0.1-1.009
			c1.15-0.082,1.189-0.456,0.164-1.116c-0.129-0.212,5.545-4.283,6.92-1.384c-0.455-0.838-1.67-1.392,0.049-1.392
			c-0.324-2.337-18.604-20.289-31.59-29.367c-0.064,0.554-0.568,0.782-1.016-0.708c-3.697-2.516-6.906-4.25-8.996-4.543
			c1.188,0.065-0.107-1.058,0.162-1.123c20.223,4.738,32.078-19.622,48.346-12.717c0.445,0.114,1.049,0.391,1.691,0.855
			c0.246,0.122,0.457,0.187,0.693,0.326c-0.139-0.008-0.188-0.041-0.318-0.065c0.424,0.366,0.855,0.79,1.238,1.369
			c-1.807-3.054,53.734,36.026,48.729,44.762c-0.4-0.139-0.449,0-0.092,0.138c-0.26,0.398-0.617,0.765-1.188,1.009
			c1.449,0.863,1.279,1.172-0.537,0.937c3.857,1.384,2.979-0.122,1.922-0.594c7.018,1.441,5.217,6.53,5.553,9.656
			c-0.229-2.605-20.533,0.985-1.547,3.785C610.035,202.175,604.311,225.118,593.004,235.279z M581.588,191.591
			C582.467,191.591,582.207,191.419,581.588,191.591L581.588,191.591z M581.441,194.872
			C581.475,194.872,584.445,193.936,581.441,194.872L581.441,194.872z M576.916,210.584
			C577.469,210.3,575.58,210.26,576.916,210.584L576.916,210.584z M578.494,204.715
			C579.414,204.259,579.934,203.844,578.494,204.715L578.494,204.715z M581.947,203.168
			C578.381,202.858,582.662,203.291,581.947,203.168L581.947,203.168z M580.822,208.493
			C580.822,208.493,582.238,209.43,580.822,208.493L580.822,208.493z M581.996,205.807
			C585.432,208.917,578.902,202.647,581.996,205.807L581.996,205.807z M635.982,191.933
			C635.52,192.128,637.717,192.633,635.982,191.933L635.982,191.933z M633.125,202.647
			C635.813,200.677,630.014,202.232,633.125,202.647L633.125,202.647z M634.314,203.884
			C636.658,202.37,631.268,203.641,634.314,203.884L634.314,203.884z M635.648,193.13
			C634.525,193.708,639.377,193.268,635.648,193.13L635.648,193.13z M644.703,206.416
			C645.223,206.458,644.408,206.36,644.703,206.416L644.703,206.416z M640.697,192.975c-0.156-0.065-0.311-0.098-0.473-0.114
			C640.404,192.886,640.525,192.942,640.697,192.975z M633.125,202.647C633.387,202.459,632.637,202.582,633.125,202.647
			L633.125,202.647z M641.217,191.77c-0.275-0.179-0.455-0.228-0.625-0.285c-0.01,0.057-0.051,0.105-0.092,0.138
			C640.68,191.689,640.908,191.745,641.217,191.77z M580.197,192.022C582.207,191.379,578.965,191.266,580.197,192.022
			L580.197,192.022z M370.558,205.358c0.129,0.236,1.725-1.058,1.587-1.131C371.859,203.95,370.379,205.13,370.558,205.358z
			 M334.271,215.536C338.276,216.097,326.853,214.388,334.271,215.536L334.271,215.536z M373.245,203.763
			c-0.033,0.22,0.814,0.479,0.846,0.155C374.106,203.641,373.276,203.478,373.245,203.763z M472.002,157.054
			C474.02,158.952,471.498,154.596,472.002,157.054L472.002,157.054z M475.38,158.845c1.425-0.228,0.579-0.472-0.399-0.603
			c0.105-0.098,0.244-0.179,0.351-0.285c-0.317,0.089-0.465,0.155-0.725,0.245c-0.887-0.106-1.611-0.057-0.766,0.228
			c-2.499,0.903-0.781,0.806,0.57,0.154C474.688,158.666,474.917,158.739,475.38,158.845z M475.38,158.845
			C475.869,158.952,476.43,158.682,475.38,158.845L475.38,158.845z M474.03,147.447C474.778,147.643,474.306,147.447,474.03,147.447
			L474.03,147.447z M474.03,147.447C474.607,147.609,476.22,147.513,474.03,147.447L474.03,147.447z M475.242,146.47
			C474.476,146.413,475.072,146.47,475.242,146.47L475.242,146.47z M472.108,145.184
			C481.429,150.068,483.376,150.696,472.108,145.184L472.108,145.184z M472.108,145.184
			C472.734,145.493,471.498,144.874,472.108,145.184L472.108,145.184z M540.838,226.616c0.189,0.269,1.428-0.163,1.068-0.512
			C541.547,225.793,540.652,226.29,540.838,226.616z M471.343,153.634c0.432,0-5.235-0.439-0.26-0.008
			C471.417,153.634,471.417,153.634,471.343,153.634z M479.525,151.754c0.749-0.09-1.172-0.977-2.248-0.92
			C476.406,150.939,477.587,151.909,479.525,151.754z M484.263,142.439C489.27,143.604,480.095,141.406,484.263,142.439
			L484.263,142.439z M525.818,165.48c-0.303-0.138-1.652,0.229-1.254,0.481C525.004,166.246,526.617,165.814,525.818,165.48z
			 M507.264,316.67c-0.725-0.041-0.383-0.025-0.155,0C507.247,316.686,507.645,316.711,507.264,316.67z M481.227,157.208
			C483.645,157.975,478.157,156.208,481.227,157.208L481.227,157.208z M481.854,160.042
			C480.257,159.521,481.316,160.376,481.854,160.042L481.854,160.042z M479.508,157.225
			C478.988,157.771,480.184,156.565,479.508,157.225L479.508,157.225z M476.838,157.559
			C469.592,159.724,496.851,152.096,476.838,157.559L476.838,157.559z M481.3,158.373c0,0-0.041,0-0.229-0.065
			C477.864,157.225,483.025,158.984,481.3,158.373z M560.111,144.435c-2.053-0.326-3.828-0.399-5.447-0.326
			C561.406,146.332,555.078,143.971,560.111,144.435z M516.26,139.753c-0.123,0-0.17,0.017-0.293,0.017
			C516.09,139.77,516.244,139.77,516.26,139.753z M503.779,136.406c-0.678-0.187-1.353-0.374-1.588-0.496
			C502.916,136.276,503.412,136.391,503.779,136.406z M528.188,142.171c0.016,0.04,0.041,0.065,0.072,0.187
			C528.342,142.595,528.203,142.204,528.188,142.171z M528.504,142.936c-0.016-0.016-0.016-0.016-0.016-0.016
			c-0.025-0.025-0.025-0.025-0.041,0c0.016,0,0.016,0.016,0.016,0.016C528.488,142.936,528.488,142.936,528.504,142.936z
			 M490.826,142.529c-4.413-7.678,22.625-0.781,31.694,5.268c0.172-1.034-5.201-2.923-1.611-2.89
			c-1.563-0.667-1.424-1.025,0.4-1.075c-2.15-0.089-1.686-0.375,1.35-0.871c-10.943,2.451-14.1-5.74-18.342-5.74
			c2.287-0.008,0.848-0.448-0.537-0.815c0.692,0,0.594-0.553-1.426-1.611c3.127,1.563,67.387-7.181,66.021,5.829
			c-0.473,0.245-0.537,0.603-0.172,1.075c-0.365,2.85-14.238,1.14-16.486,1.433c1.197,0.383,2.15,0.7,2.947,0.977
			c-9.924,0.383-13.719,7.083-24.1,7.083c-1.824-0.049,3.135,1.237,1.873,0.537c7.799,4.479-12.555,16.723-28.309,9.07
			c-0.488-0.195-0.164-2.263-0.09-2.735c0.709-4.991,8.232,0.098,10.674-2.052c-1.205,0.473-1.57,0.334-1.018-0.439
			c-1.873-0.212,0.521-0.619,1.18-0.888c-1.09-0.497-6.123-2.068-5.52-3.225c-8.142,2.149-14.142-1.636-18.49-8.866
			c0.05,0.098,0.074,0.163-0.04-0.049C490.694,142.318,490.761,142.423,490.826,142.529z M536.338,135.145
			C535.994,134.835,535.018,135.739,536.338,135.145L536.338,135.145z M515.859,135.633
			C514.697,134.892,515.691,135.87,515.859,135.633L515.859,135.633z M516.26,139.753c-0.602,0-0.488,0.017-0.293,0.017
			C510.398,139.875,513.719,141.862,516.26,139.753z M531.102,151.827C529.092,151.436,529.986,151.771,531.102,151.827
			L531.102,151.827z M529.123,152.364C530.393,151.664,528.953,152.364,529.123,152.364L529.123,152.364z M528.463,142.936
			c0.277,0.749,0.189,0.498,0.041,0c0.945-0.39,1.354-0.553-0.016-0.041c-0.197-0.513-0.406-1.05-0.301-0.724
			c0,0,0,0.016,0.072,0.187c0.082,0.252,0.156,0.382,0.188,0.562c-0.537,0.188-1.293,0.472-2.441,0.912
			C521.959,145.493,526.42,143.783,528.463,142.936z M520.852,158.618C522.334,158.666,520.664,158.218,520.852,158.618
			L520.852,158.618z M515.186,157.185C515.658,157.111,514.957,157.208,515.186,157.185L515.186,157.185z M514.908,153.178
			C514.713,154.457,514.844,153.749,514.908,153.178L514.908,153.178z M513.379,150.117
			C512.482,150.451,514.697,149.718,513.379,150.117L513.379,150.117z M526.006,143.832
			C525.557,144.02,526.42,143.669,526.006,143.832L526.006,143.832z M501.475,157.478c-0.261,0.097-0.172,0.082-0.048,0.033
			C501.703,157.42,506.727,155.36,501.475,157.478z M476.268,188.399c3.192,0-1.025-0.123-0.179-0.033
			C476.072,188.366,476.129,188.383,476.268,188.399z M508.736,202.419c-0.373-0.31,0.537,1.961,1.531,1.807
			C511.162,204.072,509.096,202.753,508.736,202.419z M451.892,148.481C452.779,148.408,449.107,148.685,451.892,148.481
			L451.892,148.481z M537.445,218.84c0.357-0.553-0.766-0.887-1.418-0.952C535.344,217.855,537.256,219.191,537.445,218.84z
			 M455.914,150.615C447.146,148.277,467.718,154.147,455.914,150.615L455.914,150.615z M472.865,188.733
			c0.391,0.123,0.553-0.838,0.041-0.626C472.409,188.334,472.588,188.643,472.865,188.733z M540.881,161.825
			c0.398,0.212,1.855,0.351,1.645,0.293C541.988,161.89,540.48,161.597,540.881,161.825z M521.34,194.278
			c0.383,0.016,1.506-0.603,1.873-1.075c0.732,0,1.025-0.017,0.033-0.017c0.121-0.179,0.139-0.309,0.016-0.398
			c-0.244-0.139-0.635,0.089-1.059,0.383c-0.221,0-0.391,0-0.691,0c0.229,0.016,0.447,0.016,0.674,0.033
			C521.602,193.635,521.064,194.261,521.34,194.278z M516.674,325.684c0.09-0.326-0.861-0.701-0.846-0.35
			C515.813,325.715,516.568,326.058,516.674,325.684z M675.004,263.945c0.123,0.074,0.457-0.805,0.326-0.658
			C675.004,263.62,674.957,263.888,675.004,263.945z M673.148,255.844C672.994,255.73,672.92,256.724,673.148,255.844
			L673.148,255.844z M506.359,264.442c0.229-0.391-2.947-0.782-2.654-0.652C503.999,263.945,505.701,265.476,506.359,264.442z
			 M489.767,490.445c-0.048-0.073-0.065-0.089,0.098,0.058C491.038,491.642,489.735,490.372,489.767,490.445z M493.675,471.077
			C494.539,472.07,495.76,473.3,493.675,471.077L493.675,471.077z M492.958,494.809c-0.26-0.35-2.686-1.815-2.352-1.505
			C490.916,493.629,493.219,495.176,492.958,494.809z M529.123,334.2C536.215,335.185,529.678,334.265,529.123,334.2L529.123,334.2z
			 M529.123,334.2C527.91,334.045,530.354,334.371,529.123,334.2L529.123,334.2z M511.131,327.401
			C487.194,314.48,499,321.775,511.131,327.401L511.131,327.401z M511.131,327.401C511.529,327.572,510.773,327.214,511.131,327.401
			L511.131,327.401z M496.134,318.47C500.432,317.949,497.396,317.998,496.134,318.47L496.134,318.47z M661.654,268.497
			c24.846-2.996-0.449-0.082-0.018,0C661.57,268.497,661.523,268.513,661.654,268.497z M671.707,253.776
			c1.49,1.221,0.449,0.375,0.123,0.106C671.781,253.825,671.439,253.532,671.707,253.776z M674.834,266.225
			C676.029,273.755,677.814,279.016,674.834,266.225L674.834,266.225z M643.074,192.576
			C643.701,193.463,643.074,192.576,643.074,192.576L643.074,192.576z M678.832,311.541c-11.496,9.469,3.469-15.322,0.92-32.68
			c-1.385,0.953-3.037-0.839-4.088-1.075c-0.969-0.122-3.803,1.229-3.117,1.905c0,12.954-12.125,32.763-31.654,55.803
			c-5.293,6.033-3.664,16.389-5.08,22.805C615.719,418.53,698.844,293.589,678.832,311.541z M370.671,204.259
			c0.164,0.228,1.775-1.075,1.612-1.14C372.006,202.826,370.525,204.014,370.671,204.259z M340.629,303.18
			c-0.016,0,0.015,0.016,0.122,0.089C343.999,304.841,339.937,302.708,340.629,303.18z M360.673,207.923
			C362.839,211.082,358.678,204.764,360.673,207.923L360.673,207.923z M334.409,214.436
			C338.398,214.925,327.024,213.329,334.409,214.436L334.409,214.436z M328.58,216.96
			C328.375,218.344,328.449,220.396,328.58,216.96L328.58,216.96z M328.58,216.96C328.563,217.147,328.677,216.366,328.58,216.96
			L328.58,216.96z M403.628,231.827C403.075,231.565,404.5,232.225,403.628,231.827L403.628,231.827z M403.628,231.827
			C396.871,228.651,400.046,230.198,403.628,231.827L403.628,231.827z M472.784,161.271
			C470.911,162.085,470.252,162.729,472.784,161.271L472.784,161.271z M542.053,224.987c-0.342-0.31-1.238,0.212-1.033,0.472
			C541.238,225.793,542.428,225.354,542.053,224.987z M477.425,149.759c-0.88,0.106,0.317,1.018,2.262,0.88
			C480.413,150.59,478.515,149.637,477.425,149.759z M549.25,222.937C550.43,219.053,547.393,227.447,549.25,222.937L549.25,222.937
			z M525.965,164.366c-0.344-0.114-1.646,0.228-1.221,0.496C525.166,165.13,526.764,164.691,525.965,164.366z M487.21,147.675
			C496.769,156.549,493.822,153.455,487.21,147.675L487.21,147.675z M502.288,159.187c0.522,0.302,1.14-0.277,0.466-0.92
			C502.207,157.681,501.719,158.878,502.288,159.187z M476.513,186.429C478.573,185.59,474.754,187.064,476.513,186.429
			L476.513,186.429z M492.014,160.538c-0.52,0.082,0.049,0.929,0.758,0.815C493.309,161.304,492.55,160.474,492.014,160.538z
			 M476.528,169.78c-12,4.111,14.345,10.021,10.389,4.03C483.743,168.085,482.407,167.785,476.528,169.78z M517.441,215.551
			c-0.156-0.057-0.188-0.073-0.172-0.057C515.031,214.631,520.299,216.675,517.441,215.551z M494.489,163.958
			c0.065,0.066,0.097,0.098-0.129-0.13C487.08,156.712,495.922,165.464,494.489,163.958z M508.582,203.168
			c0.295-0.147-0.839-1.515-0.938-1.189C507.564,202.289,507.857,203.494,508.582,203.168z M512.711,213.158
			c-0.457,0.904-0.719,1.507-0.955,1.995c-1.512,1.156-2.27,1.767-0.041,0.065c-0.635,1.368-0.404,0.993,0.051-0.033
			c0.961-0.708,2.328-1.759,4.43-3.371c-0.555,0.366-2.816,2.084-4.373,3.281C512.084,214.542,512.393,213.833,512.711,213.158z
			 M500.971,161.507c3.711,1.531,7.049,2.499,19.523,4.796c-4.74-1.059-12.221-3.208-18.97-4.934c0.317-0.065,0.243-0.041-0.017,0
			c-0.75-0.188-1.491-0.342-2.2-0.537c0.571,0.244,1.124,0.472,1.645,0.675c-0.228,0.057-0.471,0.131-0.618,0.171
			C500.595,161.613,500.775,161.564,500.971,161.507z M524.076,166.955C524.484,166.971,523.441,166.824,524.076,166.955
			L524.076,166.955z M488.505,156.606c5.496,1.946,8.442,3.249,10.803,4.226c-3.744-0.896-7.075-1.612-9.232-1.726
			c0.733-0.847,0.162-1.303-1.709-1.384C487.967,157.575,489.198,156.859,488.505,156.606z M495.044,159.545
			C497.086,159.464,494.767,159.545,495.044,159.545L495.044,159.545z M520.494,166.303c1.488,0.341,2.783,0.603,3.582,0.651
			C522.797,166.71,521.633,166.499,520.494,166.303z M449.173,153.366C448.374,153.089,448.758,153.423,449.173,153.366
			L449.173,153.366z M468.761,157.225c-7.979-4.828-11.186-0.888-19.588-3.859c-0.716,0.089-1.336,0.188-1.906,0.269
			c0.277-0.211-14.72-2.174-14.72-1.384c9.933,1.133,13.849,1.466,14.574,1.401C427.345,156.834,471.417,158.813,468.761,157.225z
			 M522.463,212.889C522.105,213.426,520.785,215.788,522.463,212.889L522.463,212.889z M450.801,150.964
			c-1.108,0,0.415,0.619,1.441,0.75C453.13,151.852,451.892,150.964,450.801,150.964z M542.646,160.994
			c-0.506-0.195-2.027-0.488-1.645-0.277C541.418,160.913,542.883,161.043,542.646,160.994z M521.512,193.17
			C521.895,193.17,521.014,193.154,521.512,193.17L521.512,193.17z M516.813,324.593c0.092-0.351-0.83-0.7-0.83-0.351
			C515.967,324.593,516.701,324.951,516.813,324.593z M569.188,265.418C568.627,265.68,569.498,265.273,569.188,265.418
			L569.188,265.418z M568.771,265.599c0.156-0.074,0.246-0.082,0.416-0.18C569.221,265.403,569.035,265.5,568.771,265.599z
			 M640.875,228.212c-0.334,1.384,14.939,3.534,17.277,0.13c7.629-10.405-11.684-6.009-12.066-6.351
			C636.031,214.021,641.232,226.828,640.875,228.212z M675.186,262.838c0.111,0.089,0.389-0.773,0.291-0.692
			C675.186,262.544,675.127,262.814,675.186,262.838z M673.809,253.345c-0.301-0.024-0.611,0.188-0.383,0.252
			C673.637,253.687,674.125,253.321,673.809,253.345z M672.84,255.267C673.809,255.055,673.914,254.997,672.84,255.267
			L672.84,255.267z M494.75,469.953C492.388,469.432,497.624,470.897,494.75,469.953L494.75,469.953z M339.017,213.541
			C340.425,213.296,339.627,213.02,339.017,213.541L339.017,213.541z M545.609,267.113
			C545.715,267.194,545.701,267.178,545.609,267.113L545.609,267.113z M411.705,176.61
			C414.391,174.705,409.686,177.978,411.705,176.61L411.705,176.61z M550.74,268.92c-1.768-0.863-3.445-1.482-5.008-1.848
			C546.613,269.571,547.809,271.085,550.74,268.92z M519.223,190.573c2.811-0.318-3.76,0.35-0.291,0.024
			C518.945,190.598,519.012,190.598,519.223,190.573z M590.836,393.706c13.215,37.623-93.791,71.337-86.984,101.884
			c-7.262,0.416-7.164,1.84-13.108-3.395c1.156,1.075,0.571-2.849,0.048-6.17c0.165,0.098,0.31,0.195,0.473,0.292
			c0.277-0.057-0.399-1.669,0.635-0.635c-0.342,0.269,0.928-1.897,1.042-1.441c-0.228-0.211-1.058-1.099,0.211-1.099
			c0.432-1.018-1.025,0.195-0.952,0.228c-0.057-0.017-0.074-0.033-0.139-0.065c-0.147,0.896-0.383,1.596-0.798,1.515
			c0.049-0.961-0.196-1.189-0.7-0.684c0.163,0.22,0.163,0.448,0.048,0.667c-0.129-0.928-0.236-1.767-0.268-2.289
			c0,0,0.138-0.097,0.219-0.154c-4.022-3.843,11.602-12.025,8.027-18.824c13.628,1.563-6.187-115.179,1.726-113.754
			c-11.446-2.589-61.257-28.83-64.652-54.271c0.594-0.668-2.043-7.76-4.389-6.205c0.31,4.233,11.065,18.921,8.19,21.51
			c0.896-0.75-29.684-69.367-37.173-88.174c0.048,0.57,0.081,1.092,0.105,1.417c-0.537-0.188-0.594,0.194-0.122,1.131
			c-0.033-0.367-1.89-2.646-1.335-0.269c-0.065-0.261-0.374-1.783-0.707-1.644c1.26-0.587-1.67-7.702-0.539-9.542
			c-1.351,2.313,0.367,4.779-1.473,6.741c1.058-1.115-0.09-6.041-0.92-8.5c-0.031,0.187-0.203,0.244-0.554,0.139
			c0.31,0.627,0.384,1.001,0.236,1.164c0.685-0.105,0.408-0.065,0,0h-0.017c-0.276,0.048-0.585,0.082-0.683,0.105
			c0.447,1.116-0.26,4.991,0.537,6.204c-5.553-8.337-30.971-20.583-32.697-19.418c-5.781,2.72-15.046,18.4-23.253,15.136
			c-0.186-0.75-0.618-0.831-1.286-0.302c-0.651,0-0.114-0.326,0.277-0.545c-0.358,0.17-1.033,0.48-2.336,1.05
			c1.213-0.537,9.485-5.911,12.017-8.955c-0.171-0.27-0.301-0.619-0.041-0.905c-0.847-0.293-2.963-1.351-1.434-0.79
			c-9.671-3.208-22.715-8.435-3.646-19.874c4.078,3.672,33.876-5.316,62.917-7.563c-0.106,0.44-0.082,2.817,0.131,0.505
			c-0.008-0.261-0.024-0.407-0.065-0.505c21.258-1.628,42.108,0.382,52.113,13.711c-0.497-0.619-0.487,1.791,0.277,1.482
			c-0.089-0.75,0.057-0.969,0.417-0.7c-1.613-3.689-2.794-7.369,4.176-6.432c-2.459-1.019-40.619-8.834-13.67-7.157
			c-5.276-1.962-19.476-6.374-8.81-11.13c-11.333,3.038-7.872,2.98-18.562,1.905c0.878-0.683,0.928-1.074,0.112-1.123
			c1.532,0.26,5.48-8.109,4.104-8.028c0.863,0.154,0.888-0.211,0.163-1.092c8.72-0.659,37.304,8.924,41.653,9.103
			c0.643,3.794-1.059,15.616,6.188,16.813c-7.206-0.725,3.834,3.9-10.47,0.937c12.627,9.606,13.792,1.734,13.678,1.791
			c0.749,0.024,0.797-0.35,0.162-1.09c1.661,0.048,2.655-0.749,2.964-2.378c4.943-2.361,3.469,10.47,2.817,9.762
			c-0.252-0.317,1.897,0.562,1.637,0.562c-1.214-2.28,1.84-3.354,4.062-4.119c-8.654,3.907,0.929-19.752-0.609-20.802
			c1.685,1.107,0.797-1.018,0.447-0.822c1.181-0.602,9.916,1.066,9.761,2.149c-0.772,0.423-0.814,0.798-0.138,1.091
			c-2.735,15.779-5.877,11.968,1.123,22.063c-10.258,9.722,4.331,32.273,8.615,49.127c1.203-0.033,3.451-0.065,0,0.033
			c0.244,0.912,0.455,1.84,0.617,2.735c0.652,0.554,0.457,0.407,0,0c0.18,1.026,0.391,2.068,0.473,3.037
			c0.928-0.456,1.668-0.058,2.207,1.213c0.902-2.019,0.658-0.464,1.652-0.732c-1.922-4.861,0.033-9.583,2.338-14.435
			c-0.629-0.611-2.102-2.043-0.629-0.676c0.311,0.31,0.506,0.505,0.65,0.651c2.664-5.585,5.766-11.366,3.877-17.716
			c0.244,0.765,33.682,20.5,28.414,9.037c3.533,9.713,20.713,37.752,19.59,38.364c-2.289,1.368,0.414,0.813-0.082,1.075
			c0-0.017,0.016-0.017,0.047-0.032c-0.014,0.016-0.047,0.032-0.047,0.032l0,0c-0.797,0.594-1.498,1.237-2.135,1.962
			c-1.188,0.235-2.295,0.692-3.279,1.359c0.504-0.146,2.482-1.669,0.139-1.107c0.586-0.155-7.361-1.156-8.045-1.97
			c-3.957-4.82,3.16,2.255,0.156-1.092c-0.27-0.325,5.021-7.1,6.293-8.483c-4.527,0.904-9.949,0.488-15.063,0.7
			c0.244,0.171,0.83,0.644,2.076,1.628c4.525,3.916-1.336-0.945-2.109-1.628c-4.803,0.171-9.363,0.912-12.709,3.883
			c9.242-6.342,10.006,1.556,11.684,6.188c-0.139-0.017-0.244-0.058-0.342-0.074c0.082,0.074,0.172,0.097,0.219,0.114
			c-0.041,0-0.104-0.041-0.219-0.114c-21.486-4.527-25.801,36.345-43.41,47.873c-7.118,5.316-11.88,4.429-14.933,1.4
			c0.196,1.287,0.407,2.687,0.594,4.185c6.36,33.316,15.82,9.47,30.767,23.554c0.262,0.236-4.266,6.741-1.213,6.912
			c5.357,0.139,63.154,13.694,73.625,42.711c-0.129-0.391-0.342-0.945,0.016,0.041C591.016,394.146,590.943,393.992,590.836,393.706
			z M532.787,261.82C534.172,260.762,532.902,261.389,532.787,261.82L532.787,261.82z M495.515,270.589
			C495.531,269.897,495.474,270.695,495.515,270.589L495.515,270.589z M505.984,272.51
			C496.508,275.808,516.553,269.246,505.984,272.51L505.984,272.51z M513.361,291.863
			C515.625,291.863,513.084,291.252,513.361,291.863L513.361,291.863z M513.988,290.503
			C513.834,291.098,514.436,289.763,513.988,290.503L513.988,290.503z M517.529,281.531
			C517.838,282.418,518.621,280.904,517.529,281.531L517.529,281.531z M515.658,287.401
			C517.139,281.629,516.602,283.575,515.658,287.401L515.658,287.401z M511.195,271.745
			C510.072,271.745,509.813,272.063,511.195,271.745L511.195,271.745z M504.682,263.221
			C492.405,260.355,519.729,272.722,504.682,263.221L504.682,263.221z M490.467,207.695
			C490.238,207.939,492.063,208.07,490.467,207.695L490.467,207.695z M395.829,213.052c0.244-0.082,0.366,0.065,0.456,0.333
			c0.114-0.024,0.22-0.041,0,0l0,0c0.293-0.057,0.513-0.073,0.683-0.105C396.822,213.426,396.431,213.345,395.829,213.052z
			 M400.755,218.515c-0.024,0-0.024,0-0.024-0.024c-0.081-0.017-0.147-0.017-0.326-0.098
			C400.616,218.426,400.633,218.474,400.755,218.515z M401.015,219.321c-0.058-0.17-0.139-0.358-0.17-0.521
			c-0.09,0.065-0.074,0.114-0.277,0.179C400.755,219.012,400.876,219.207,401.015,219.321z M414.57,237.933
			C414.033,238.795,414.961,238.161,414.57,237.933L414.57,237.933z M419.994,245.488
			C424.105,248.224,412.747,240.188,419.994,245.488L419.994,245.488z M447.121,208.721
			C447.902,208.314,431.75,213.036,447.121,208.721L447.121,208.721z M458.895,191.233
			C459.286,191.281,457.869,191.038,458.895,191.233L458.895,191.233z M460.782,187.911
			C459.708,187.528,461.5,188.171,460.782,187.911L460.782,187.911z M475.869,240.848c0.048,0.098,0.105,0.17,0-0.024
			C470.634,230.036,478.279,245.797,475.869,240.848z M477.293,245.276C476.595,239.732,475.748,248.623,477.293,245.276
			L477.293,245.276z M499.993,348.642C501.785,349.164,500.293,348.618,499.993,348.642L499.993,348.642z M491.819,478.241
			c-0.032,0.106,0,0.163,0,0.277C491.949,478.273,492.014,478.095,491.819,478.241z M492.233,487.213
			C493.202,486.643,491.412,486.66,492.233,487.213L492.233,487.213z M493.968,490.502
			C493.968,491.724,494.049,488.239,493.968,490.502L493.968,490.502z M496.883,493.938
			C497.485,493.645,495.693,492.595,496.883,493.938L496.883,493.938z M556.496,378.832
			C556.172,379.458,557.781,378.018,556.496,378.832L556.496,378.832z M558.025,377.017
			C555.16,377.35,560.988,376.845,558.025,377.017L558.025,377.017z M490.14,485.316c0.425,0.081,0.54,0.236,0.277,0.497
			c0.131,0.065,0.262,0.163,0.375,0.212c-0.048-0.424-0.098-0.839-0.179-1.222C490.532,484.982,490.403,485.146,490.14,485.316z
			 M468.9,166.865c0.236,0.146,0.383,0.537,0.481,1.099C470.235,167.996,470.252,167.704,468.9,166.865z M407.341,177.424
			c0.017,0,0.033,0,0.066,0C407.374,177.359,407.357,177.375,407.341,177.424z M410.443,175.519
			C409.149,175.349,407.684,175.747,410.443,175.519L410.443,175.519z M558.807,206.116c0,0.073,0.035,0.146,0.035,0.212
			C558.824,206.132,558.807,206.099,558.807,206.116z M521.355,177.481C521.146,177.253,522.016,178.117,521.355,177.481
			L521.355,177.481z M513.508,189.352c-2.1,0.204-3.957,0.513-5.586,0.953c-7.09-7.067-11.511-12.115,2.852-17.105
			c-0.164,0.203,0.08,0.464,0.805,0.773c-2.842,0.919-5.145,3.859-2.744,6.333c10.357-0.277,47.816,5.162,49.973,25.81
			c-0.057,0.089,0,2.409-0.129,1.335c0.09,0.553-3.012,1.979-2.215,2.133c-2.498-0.481,0.246,0.325-0.846,0.765
			c0,0-4.266,1.042-2.189,2.394c-1.59-1.059-7.436-7.116-7.631-6.481c0.123,0.179-0.113,2.036-0.682,2.003
			c6.129,1.84,4.102,11.04,4.736,11.422c-1.449-0.863-1.074,0.537-0.146,1.131c-6.172-3.777-9.07-3.24-3.605,1.368
			c-3.486-2.768-23.961-11.097-24.434-12.066c-2.02-3.337,2.703-6.139,5.463-9.119c-3.02,0.285-1.734,0.155,0.025-0.016
			c1.984-2.166,2.881-4.462-0.563-7.148c-0.123,0.025-0.188,0.081-0.416,0.057c-0.244-0.017-0.357-0.326-0.324-0.611
			c-2.15-1.433-5.506-3.013-10.699-4.722C517.889,189.539,514.338,189.271,513.508,189.352z M539.316,190.289
			C539.643,189.669,539.316,190.223,539.316,190.289L539.316,190.289z M542.33,215.772
			C542.898,217.595,541.938,214.062,542.33,215.772L542.33,215.772z M538.975,189.116
			C540.254,189.043,539.789,188.643,538.975,189.116L538.975,189.116z M537.582,188.228c-0.066,0-0.088,0.024,0.074-0.032
			C539.822,187.447,537.688,188.155,537.582,188.228z M509.617,187.813C507.264,187.618,511.408,188.025,509.617,187.813
			L509.617,187.813z M510.805,182.228C508.395,181.365,512.809,183.083,510.805,182.228L510.805,182.228z M553.189,270.345
			c1.645-0.79-1.594-0.383,0.164-1.099c1.377-0.79-1.482-0.253-0.668-1.051c-0.383-0.317-0.311-0.692,0.154-1.099
			c-0.797,0.807-1.475,1.384-2.1,1.824c0.561,0.285,1.041,0.423,1.611,0.733C551.27,270.068,552.115,270.833,553.189,270.345z
			 M510.773,173.199c0.324-0.122,0.617-0.253,0.959-0.351C511.18,172.931,510.887,173.061,510.773,173.199z M505.326,196.256
			c-1.337,0.807,1.083-6.351,0.398-0.855c1.221-1.677,2.491-2.426,3.688-3.614c-0.504-0.505-1.002-0.994-1.49-1.482
			c-3.045,0.814-5.267,2.084-6.92,3.614c0.701,0.977,1.441,2.037,2.313,3.29C503.918,196.737,504.6,196.426,505.326,196.256z
			 M521.355,177.481C528.895,184.931,521.895,177.994,521.355,177.481L521.355,177.481z M544.934,268.171
			C544.854,267.666,545.074,269.131,544.934,268.171L544.934,268.171z M531.012,182.749c0.521-0.391-1.285,0.936-0.113,0.089
			C530.719,182.977,530.508,183.124,531.012,182.749z M504.682,263.221C503.607,262.96,505.139,263.514,504.682,263.221
			L504.682,263.221z M497.518,201.654C500.627,205.579,499.179,201.719,497.518,201.654L497.518,201.654z M537.582,188.228
			c-0.016,0,0,0,0.074-0.032C537.826,188.123,537.672,188.171,537.582,188.228z M475.869,240.848c0-0.024,0-0.024,0-0.024
			C475.748,240.579,475.812,240.718,475.869,240.848z M532.379,333.207C532.982,333.548,531.34,332.604,532.379,333.207
			L532.379,333.207z M532.379,333.207C529.939,331.749,528.568,331,532.379,333.207L532.379,333.207z M525.053,330.365
			C524.271,330.112,525.852,330.625,525.053,330.365L525.053,330.365z M525.053,330.365
			C518.963,328.386,507.824,324.918,525.053,330.365L525.053,330.365z M508.15,330.438
			C509.813,332.017,502.98,325.39,508.15,330.438L508.15,330.438z M577.787,191.745c-0.482-0.154-0.678,0.611-0.057,0.66
			C578.51,192.56,578.291,191.811,577.787,191.745z M543.777,160.962c0.391,0.22,1.85,0.342,1.646,0.261
			C544.918,161.027,543.34,160.717,543.777,160.962z M673.035,252.14C672.693,252.214,670.861,252.653,673.035,252.14
			L673.035,252.14z"/>
	</g>
	<path id="XMLID_505_" fill="#6D6E71" d="M509.404,744.692c0,10.07-8.156,18.237-18.229,18.237
		c-10.071,0-18.229-8.167-18.229-18.237c0-10.081,8.158-18.246,18.229-18.246C501.248,726.446,509.404,734.611,509.404,744.692z"/>
	<g id="XMLID_780_">
		<path id="XMLID_1376_" fill="#EBA639" d="M802.291,276.027c-14.865,0-26.955-12.098-26.955-26.949
			c0-14.858,12.09-26.957,26.955-26.957c14.867,0,26.965,12.099,26.965,26.957C829.256,263.929,817.158,276.027,802.291,276.027z
			 M802.291,239.871c-5.08,0-9.199,4.12-9.199,9.208c0,5.073,4.119,9.201,9.199,9.201s9.207-4.128,9.207-9.201
			C811.498,243.99,807.371,239.871,802.291,239.871z"/>
	</g>
	<g id="XMLID_783_">
		<path id="XMLID_1373_" fill="#EBA639" d="M290.175,654.842c-14.858,0-26.949-12.09-26.949-26.948
			c0-14.852,12.09-26.949,26.949-26.949c14.867,0,26.957,12.098,26.957,26.949C317.132,642.752,305.042,654.842,290.175,654.842z
			 M290.175,618.692c-5.073,0-9.192,4.128-9.192,9.201c0,5.07,4.12,9.191,9.192,9.191c5.08,0,9.208-4.121,9.208-9.191
			C299.383,622.82,295.255,618.692,290.175,618.692z"/>
	</g>
	<g id="XMLID_781_">
		<path id="XMLID_1370_" fill="#414042" d="M766.143,636.774c-14.867,0-26.965-12.106-26.965-26.956
			c0-14.858,12.098-26.957,26.965-26.957c14.85,0,26.949,12.099,26.949,26.957C793.092,624.668,780.992,636.774,766.143,636.774z
			 M766.143,600.61c-5.08,0-9.209,4.119-9.209,9.208c0,5.073,4.129,9.199,9.209,9.199c5.064,0,9.193-4.126,9.193-9.199
			C775.336,604.729,771.207,600.61,766.143,600.61z"/>
	</g>
	<g id="XMLID_782_">
		<path id="XMLID_1367_" fill="#414042" d="M234.592,375.82c-14.858,0-26.949-12.099-26.949-26.965
			c0-14.851,12.09-26.949,26.949-26.949c14.866,0,26.965,12.098,26.965,26.949C261.557,363.721,249.458,375.82,234.592,375.82z
			 M234.592,339.654c-5.08,0-9.2,4.128-9.2,9.2c0,5.088,4.12,9.216,9.2,9.216s9.216-4.128,9.216-9.216
			C243.809,343.782,239.672,339.654,234.592,339.654z"/>
	</g>
</g>
</svg>
