<?xml version="1.0" encoding="utf-8"?>
<!-- Generator: Adobe Illustrator 16.0.0, SVG Export Plug-In . SVG Version: 6.00 Build 0)  -->
<!DOCTYPE svg PUBLIC "-//W3C//DTD SVG 1.1//EN" "http://www.w3.org/Graphics/SVG/1.1/DTD/svg11.dtd">
<svg version="1.1" id="图形" xmlns="http://www.w3.org/2000/svg" xmlns:xlink="http://www.w3.org/1999/xlink" x="0px" y="0px"
	 width="1000.637px" height="1000.678px" viewBox="0 0 1000.637 1000.678" enable-background="new 0 0 1000.637 1000.678"
	 xml:space="preserve">
<path fill="#272636" d="M860.381,769.194"/>
<g id="XMLID_729_">
	<g id="XMLID_904_">
		<path id="XMLID_912_" fill="#EDB65E" d="M193.464,352.443c0.054-147.891,119.81-267.682,267.692-267.682
			c147.8,0,267.61,119.791,267.61,267.682l78.406,194.233l-80.385,1.826l1.979,80.547c0,131.061,0.85,121.332-186.214,120.615
			v166.252h-229.78V650.606C299.792,562.647,193.418,499.877,193.464,352.443z"/>
	</g>
	<g id="XMLID_393_">
		<path id="XMLID_1309_" fill="#414042" d="M450.314,538.747c-6.489,0-12.631-0.287-18.681-0.807l1.665-19.443
			c5.551,0.484,11.19,0.734,16.883,0.734l1.217,13.41l-0.912,6.105C450.43,538.747,450.377,538.747,450.314,538.747z
			 M472.471,537.564l-2.041-19.407c6.177-0.645,12.309-1.611,18.315-2.864l3.93,19.139
			C486.04,535.792,479.301,536.831,472.471,537.564z M411.357,535.147c-6.759-1.271-13.41-2.847-19.936-4.779l5.533-18.709
			c5.872,1.736,11.87,3.159,17.992,4.314L411.357,535.147z M512.521,529.312l-5.855-18.602c5.945-1.898,11.78-4.012,17.456-6.41
			l7.591,17.992C525.446,524.925,519.063,527.271,512.521,529.312z M372.103,523.726c-6.347-2.561-12.541-5.407-18.564-8.522
			l8.96-17.349c5.486,2.838,11.108,5.434,16.89,7.77L372.103,523.726z M550.136,513.413l-9.311-17.152
			c5.442-2.953,10.726-6.177,15.845-9.649l10.938,16.166C561.969,506.583,556.151,510.154,550.136,513.413z M335.841,504.855
			c-5.721-3.743-11.253-7.735-16.57-11.995l12.201-15.246c4.825,3.868,9.838,7.493,15.048,10.894L335.841,504.855z M583.98,490.497
			l-12.47-15.021c4.764-3.939,9.338-8.137,13.688-12.532l13.856,13.759C594.268,481.527,589.235,486.137,583.98,490.497z
			 M303.955,479.316c-4.896-4.754-9.542-9.749-13.947-14.94l14.888-12.622c4.001,4.708,8.235,9.238,12.666,13.57L303.955,479.316z
			 M612.734,461.494l-15.119-12.354c3.903-4.78,7.573-9.758,11.002-14.933l16.264,10.796
			C621.104,450.697,617.057,456.212,612.734,461.494z M277.574,448.119c-3.885-5.613-7.485-11.405-10.796-17.419l17.079-9.436
			c3.009,5.425,6.267,10.688,9.759,15.754L277.574,448.119z M635.355,427.423l-17.224-9.14c2.884-5.459,5.523-11.037,7.887-16.802
			l18.055,7.438C641.46,415.249,638.552,421.443,635.355,427.423z M257.737,412.348c-2.704-6.23-5.104-12.64-7.198-19.157
			l18.583-5.943c1.899,5.908,4.082,11.708,6.536,17.366L257.737,412.348z M650.912,389.61l-18.69-5.603
			c1.772-5.89,3.276-11.887,4.467-18.011l19.166,3.777C654.512,376.506,652.864,383.112,650.912,389.61z M245.258,373.445
			c-1.432-6.607-2.542-13.356-3.321-20.178l19.38-2.221c0.717,6.177,1.72,12.282,3.017,18.28L245.258,373.445z M658.808,349.507
			l-19.415-1.861c0.59-6.087,0.886-12.282,0.886-18.53c0-2.264-0.036-4.538-0.116-6.767l19.497-0.734
			c0.098,2.506,0.134,5.003,0.134,7.501C659.793,336.008,659.452,342.812,658.808,349.507z M240.585,332.849l-0.035-3.734
			c0-5.604,0.223-11.189,0.653-16.704l19.461,1.522c-0.385,5.021-0.591,10.069-0.591,15.181l0.026,3.438L240.585,332.849z
			 M638.614,303.835c-0.823-6.167-1.935-12.264-3.33-18.262l18.995-4.412c1.549,6.597,2.774,13.302,3.688,20.079L638.614,303.835z
			 M263.028,295.546l-19.21-3.384c1.199-6.767,2.721-13.427,4.556-19.944l18.79,5.264
			C265.507,283.391,264.111,289.441,263.028,295.546z M630.163,267.743c-2.015-5.89-4.288-11.638-6.829-17.232l17.769-8.083
			c2.812,6.176,5.334,12.514,7.536,19.021L630.163,267.743z M273.054,259.9l-18.163-7.125c2.488-6.356,5.299-12.614,8.378-18.664
			L280.653,243C277.86,248.461,275.319,254.118,273.054,259.9z M614.828,234.021c-3.097-5.362-6.471-10.554-10.061-15.603
			l15.854-11.351c3.974,5.532,7.681,11.261,11.099,17.152L614.828,234.021z M289.874,226.887l-16.455-10.509
			c3.68-5.766,7.645-11.306,11.852-16.668l15.344,12.048C296.803,216.628,293.204,221.677,289.874,226.887z M593.229,203.917
			c-4.082-4.646-8.396-9.095-12.907-13.357l13.382-14.215c4.949,4.673,9.702,9.578,14.188,14.699L593.229,203.917z M312.79,197.731
			l-14.107-13.489c4.708-4.923,9.668-9.633,14.806-14.073l12.774,14.752C321.572,188.985,317.068,193.229,312.79,197.731z
			 M566.212,178.512c-4.904-3.795-9.99-7.323-15.244-10.636l10.384-16.506c5.792,3.626,11.378,7.537,16.766,11.673L566.212,178.512z
			 M340.881,173.535l-11.226-15.96c5.568-3.912,11.343-7.574,17.286-10.949l9.605,17.01
			C351.157,166.661,345.929,169.973,340.881,173.535z M534.792,158.818c-5.515-2.739-11.172-5.227-16.981-7.43l6.938-18.261
			c6.408,2.471,12.666,5.191,18.752,8.234L534.792,158.818z M373.141,155.256l-7.93-17.832c6.213-2.776,12.586-5.228,19.093-7.376
			l6.132,18.53C384.538,150.547,378.764,152.768,373.141,155.256z M500.149,145.651c-5.909-1.63-11.942-2.955-18.074-3.976
			l3.24-19.255c6.776,1.146,13.465,2.614,20.025,4.404L500.149,145.651z M408.305,143.636l-4.279-19.058
			c6.614-1.477,13.338-2.658,20.149-3.482l2.392,19.354C420.39,141.219,414.283,142.285,408.305,143.636z M463.644,139.483
			c-4.44-0.313-8.942-0.483-13.463-0.483l-5.156,0.08l-0.413-19.522l5.46-0.072c5.085,0,10.026,0.179,14.923,0.519L463.644,139.483z
			"/>
	</g>
	<path id="XMLID_394_" fill="#D0D1D3" d="M523.782,329.115c0,40.658-32.952,73.619-73.602,73.619
		c-40.659,0-73.61-32.961-73.61-73.619c0-40.658,32.952-73.618,73.61-73.618C490.83,255.497,523.782,288.457,523.782,329.115z"/>
	<g id="XMLID_397_">
		<rect id="XMLID_1308_" x="634.316" y="622.104" fill="#414042" width="54.364" height="19.504"/>
	</g>
	<path id="XMLID_396_" fill="#FFFFFF" d="M479.658,329.115c0,16.292-13.194,29.486-29.478,29.486
		c-16.292,0-29.487-13.194-29.487-29.486c0-16.274,13.195-29.487,29.487-29.487C466.464,299.628,479.658,312.841,479.658,329.115z"
		/>
	<g id="XMLID_424_">
		<g id="XMLID_456_">
			<rect id="XMLID_1345_" x="440.414" y="491.105" fill="#414042" width="19.523" height="70.53"/>
		</g>
		<path id="XMLID_453_" fill="#A6A8AB" d="M450.181,159.319c-94.029,0-170.253,76.224-170.253,170.252
			c0,94.037,76.224,170.271,170.253,170.271c94.02,0,170.244-76.233,170.244-170.271C620.425,235.543,544.2,159.319,450.181,159.319
			z M450.181,480.9c-83.573,0-151.319-67.747-151.319-151.329c0-83.564,67.746-151.311,151.319-151.311
			c83.555,0,151.301,67.747,151.301,151.311C601.481,413.154,533.735,480.9,450.181,480.9z"/>
		<g id="XMLID_452_">
			<path id="XMLID_1344_" fill="#414042" d="M576.865,329.572h-19.515c0-59.091-48.081-107.161-107.17-107.161v-19.524
				C520.041,202.887,576.865,259.722,576.865,329.572z"/>
		</g>
		<path id="XMLID_451_" fill="#6DC2B2" d="M416.541,540.858v266.869c0,18.494,15.127,33.621,33.64,33.621v-300.49H416.541z"/>
		<path id="XMLID_450_" fill="#53BBA5" d="M450.181,540.858v300.49c18.493,0,33.622-15.127,33.622-33.621V540.858H450.181z"/>
		<g id="XMLID_449_">
			<rect id="XMLID_1343_" x="414.911" y="579.513" fill="#414042" width="70.541" height="19.514"/>
		</g>
		<g id="XMLID_448_">
			<rect id="XMLID_1342_" x="414.911" y="608.819" fill="#414042" width="70.541" height="19.533"/>
		</g>
	</g>
</g>
</svg>
