<?xml version="1.0" encoding="utf-8"?>
<!-- Generator: Adobe Illustrator 16.0.0, SVG Export Plug-In . SVG Version: 6.00 Build 0)  -->
<!DOCTYPE svg PUBLIC "-//W3C//DTD SVG 1.1//EN" "http://www.w3.org/Graphics/SVG/1.1/DTD/svg11.dtd">
<svg version="1.1" id="图形" xmlns="http://www.w3.org/2000/svg" xmlns:xlink="http://www.w3.org/1999/xlink" x="0px" y="0px"
   width="1000.637px" height="1000.678px" viewBox="0 0 1000.637 1000.678" enable-background="new 0 0 1000.637 1000.678"
   xml:space="preserve">
<g>
  <g>
    <path d="M595.709,900.201H231.252c-42.22,0-76.757-35.725-76.757-80.106V78.864l-21.616,21.613h636.373
      c42.252,0,76.895,35.875,76.895,80.304v300.635c0,11.938,9.679,21.615,21.614,21.615c11.932,0,21.614-9.677,21.614-21.615V180.78
      c0-67.971-53.651-123.53-120.123-123.53H132.879h-21.617v21.614v741.23c0,67.938,53.563,123.333,119.989,123.333h399.407
      c11.936,0,23.267-9.675,23.267-21.612s-12.044-21.614-23.98-21.614H595.709z"/>
    <path d="M263.427,381.463h494.236c11.938,0,21.618-9.678,21.618-21.615c0-11.937-9.681-21.614-21.618-21.614H263.427
      c-11.934,0-21.609,9.677-21.609,21.614C241.818,371.784,251.493,381.463,263.427,381.463L263.427,381.463z"/>
    <path d="M265.847,251.777h494.234c11.938,0,21.612-9.678,21.612-21.613c0-11.938-9.675-21.615-21.612-21.615H265.847
      c-11.939,0-21.613,9.676-21.613,21.615C244.231,242.099,253.906,251.777,265.847,251.777L265.847,251.777z"/>
  </g>
  <path d="M807.255,943.428v-40.756c17.628-2.576,44.687-10.684,58.669-24.418c13.978-13.699,21.064-32.457,21.064-56.201
    c0-24.047-6.734-42.646-20.379-55.83c-13.644-13.152-34.958-24.929-64.015-35.331c-19.175-6.77-32.238-13.661-39.273-20.766
    c-6.998-7.086-10.544-16.588-10.544-28.472c0-12.674,3.37-22.651,10.137-29.863c6.753-7.21,17.155-10.858,31.203-10.858
    c13.504,0,23.977,5.252,31.415,14.914c7.407,9.625,11.141,23.146,11.141,40.775H885.7c0-35.258-8.726-49.537-21.511-65.545
    c-12.724-16.009-21.683-26.127-56.938-29.652v-45.834h-35.259v45.41c-17.629,2.857-38.59,11.337-52.021,25.438
    c-13.47,14.12-18.28,32.649-18.28,55.603c0,24.17,7.913,42.944,21.909,56.307c13.981,13.366,35.966,24.997,65.016,34.853
    c17.965,6.348,30.813,13.188,38.098,20.555c7.3,7.369,11.071,16.926,11.071,28.662c0,12.836-3.982,22.832-12.095,29.988
    c-8.109,7.16-19.778,10.734-35.027,10.734c-14.314,0-26.075-7.646-35.347-15.705c-9.238-8.002-13.839-9.783-13.839-45.039h-49.221
    c0,35.256,5.977,56.002,21.421,70.813c15.459,14.756,40.688,27.098,58.315,29.652v40.564h35.262V943.428z"/>
</g>
</svg>
