<?xml version="1.0" encoding="utf-8"?>
<!-- Generator: Adobe Illustrator 16.0.0, SVG Export Plug-In . SVG Version: 6.00 Build 0)  -->
<!DOCTYPE svg PUBLIC "-//W3C//DTD SVG 1.1//EN" "http://www.w3.org/Graphics/SVG/1.1/DTD/svg11.dtd">
<svg version="1.1" id="图形" xmlns="http://www.w3.org/2000/svg" xmlns:xlink="http://www.w3.org/1999/xlink" x="0px" y="0px"
   width="1000.637px" height="1000.678px" viewBox="0 0 1000.637 1000.678" enable-background="new 0 0 1000.637 1000.678"
   xml:space="preserve">
<path d="M777.267,764.804c-20.275,0-36.454-4.925-61.805-30.773c-12.532-14.206-24.185-34.855-35.078-61.3
  c-19.062-46.249-33.739-107.552-48.406-166.848c-14.237-57.587-30.091-117.126-47.773-160.04
  c-16.501-40.027-29.2-56.619-45.604-56.619s-30.403,19.401-46.873,59.429c-17.683,42.914-29.646,92.902-46.758,159.927
  c-11.017,60-28.719,117.901-47.747,164.15c-10.924,26.444-21.635,46.215-34.169,60.421c-16.336,18.458-39.213,31.729-59.488,31.729
  c-20.276,0-40.701-11.314-57.04-29.772c-12.531-14.206-24.588-33.269-35.48-59.713c-19.062-46.249-35.527-110.216-50.159-169.512
  c-14.239-57.587-27.759-114.325-45.475-157.239c-16.469-40.027-33.588-59.84-49.993-59.84l0.006-53.006
  c20.276,0,44.095,10.379,60.435,28.853c12.532,14.207,25.366,36.24,36.292,62.682c19.029,46.231,34.09,107.552,48.723,166.85
  c14.239,57.57,27.936,114.489,45.651,157.387c16.47,40.026,30.635,59.152,47.04,59.152c16.403,0,30.54-19.157,47.007-59.184
  c17.719-42.93,32.747-102.101,46.986-159.671c14.633-59.298,29.813-120.594,48.874-166.825
  c10.892-26.441,21.823-46.691,34.391-60.898c16.306-18.474,37.499-28.252,57.776-28.252c20.308,0,42.903,12.546,59.209,31.02
  c12.533,14.207,23.275,33.98,34.169,60.421c19.028,46.231,33.849,104.372,48.515,163.67c14.206,57.57,29.066,120.271,46.716,163.201
  c16.503,40.026,32.771,57.454,49.145,57.454L777.267,764.804z"/>
<path d="M911.752,764.804c-20.275,0-36.455-4.925-61.806-30.773c-12.531-14.206-24.185-34.855-35.078-61.3
  c-19.062-46.249-33.739-107.552-48.406-166.848c-14.236-57.587-30.091-117.126-47.772-160.04
  c-16.502-40.027-29.2-56.619-45.605-56.619c-16.404,0-30.403,19.401-46.872,59.429c-17.684,42.914-29.646,92.902-46.758,159.927
  c-11.018,60-28.719,117.901-47.746,164.15c-10.925,26.444-21.636,46.215-34.169,60.421c-16.336,18.458-39.213,31.729-59.488,31.729
  c-20.276,0-40.701-11.314-57.04-29.772c-12.531-14.206-24.588-33.269-35.48-59.713c-19.062-46.249-35.527-110.216-50.159-169.512
  c-14.239-57.587-27.759-114.325-45.475-157.239c-16.469-40.027-33.588-59.84-49.993-59.84l0.006-53.006
  c20.276,0,44.095,10.379,60.435,28.853c12.532,14.207,25.366,36.24,36.292,62.682c19.029,46.231,34.09,107.552,48.723,166.85
  c14.239,57.57,27.936,114.489,45.651,157.387c16.47,40.026,30.635,59.152,47.04,59.152c16.403,0,30.54-19.157,47.007-59.184
  c17.718-42.93,32.748-102.101,46.986-159.671c14.633-59.298,29.813-120.594,48.875-166.825
  c10.892-26.441,21.822-46.691,34.39-60.898c16.307-18.474,37.5-28.252,57.776-28.252c20.309,0,42.904,12.546,59.209,31.02
  c12.533,14.207,23.276,33.98,34.169,60.421c19.028,46.231,33.85,104.372,48.515,163.67c14.207,57.57,29.066,120.271,46.717,163.201
  c16.502,40.026,32.771,57.454,49.144,57.454L911.752,764.804z"/>
<rect x="53.318" y="815.839" width="848.53" height="52.5"/>
</svg>
