<?xml version="1.0" encoding="utf-8"?>
<!-- Generator: Adobe Illustrator 16.0.0, SVG Export Plug-In . SVG Version: 6.00 Build 0)  -->
<!DOCTYPE svg PUBLIC "-//W3C//DTD SVG 1.1//EN" "http://www.w3.org/Graphics/SVG/1.1/DTD/svg11.dtd">
<svg version="1.1" id="图形" xmlns="http://www.w3.org/2000/svg" xmlns:xlink="http://www.w3.org/1999/xlink" x="0px" y="0px"
   width="1000.637px" height="1000.678px" viewBox="0 0 1000.637 1000.678" enable-background="new 0 0 1000.637 1000.678"
   xml:space="preserve">
<g>
  <path d="M539.689,194.065H296.294c-13.742,0-24.893,11.148-24.893,24.891c0,13.743,11.151,24.893,24.893,24.893h243.48
    c13.743,0,24.894-11.149,24.894-24.893C564.668,205.214,553.518,194.065,539.689,194.065L539.689,194.065z M499.493,524.819
    c-1.414-2.98-4.422-4.881-7.72-4.881H435.11l53.732-89.562c2.43-4.044,1.119-9.291-2.925-11.718
    c-1.327-0.798-2.852-1.221-4.396-1.221h-81.999c-3.491,0-6.638,2.129-7.937,5.372l-61.496,153.748
    c-1.752,4.383,0.381,9.352,4.762,11.1c1.009,0.408,2.087,0.611,3.174,0.611h38.921l-46.915,125.119
    c-1.661,4.416,0.57,9.344,4.984,11.004c3.435,1.293,7.312,0.246,9.63-2.6l153.748-187.914
    C500.479,531.331,500.908,527.802,499.493,524.819z"/>
  <path d="M954.004,208.901l-107.22-107.206c-9.68-9.681-25.439-9.681-35.222,0c-9.681,9.681-9.681,25.44,0,35.208l99.945,99.945
    v554.365h-57.435V333.739c0-13.742-11.163-24.894-24.893-24.894h-92.194V186.142c0-71.365-58.083-129.448-129.448-129.448H228.437
    c-71.357,0-129.44,58.083-129.44,129.448v708.058h-34.76c-13.736,0-24.893,11.148-24.893,24.893
    c0,13.728,11.157,24.893,24.893,24.893h707.598c13.741,0,24.893-11.165,24.893-24.893c0-13.744-11.151-24.893-24.893-24.893
    h-34.761V358.546h67.302v457.561c0,13.743,11.163,24.893,24.894,24.893H936.4c13.743,0,24.893-11.149,24.893-24.893V226.52
    C961.293,219.879,958.716,213.613,954.004,208.901z M148.782,186.142c0-43.88,35.675-79.662,79.654-79.662H607.64
    c43.88,0,79.648,35.681,79.648,79.662v705.104H148.782V186.142z"/>
</g>
</svg>
