<?xml version="1.0" encoding="utf-8"?>
<!-- Generator: Adobe Illustrator 16.0.0, SVG Export Plug-In . SVG Version: 6.00 Build 0)  -->
<!DOCTYPE svg PUBLIC "-//W3C//DTD SVG 1.1//EN" "http://www.w3.org/Graphics/SVG/1.1/DTD/svg11.dtd">
<svg version="1.1" id="图形" xmlns="http://www.w3.org/2000/svg" xmlns:xlink="http://www.w3.org/1999/xlink" x="0px" y="0px"
   width="1000.637px" height="1000.678px" viewBox="0 0 1000.637 1000.678" enable-background="new 0 0 1000.637 1000.678"
   xml:space="preserve">
<g>
  <g>
    <path d="M504.796,268.501c-7.346-7.353-25.358-3.314-32.703,4.039L325.135,419.491c-58.766-73.479-51.42-183.694,14.692-249.82
      c44.103-36.736,88.177-58.78,139.61-58.78c44.09,0,88.179,14.692,117.574,36.736l-58.793,58.78c-7.346,7.353-7.346,29.39,0,36.743
      c7.346,7.346,29.397,7.346,36.743,0l73.472-73.479c7.346-7.346,7.346-29.391,0-36.736
      c-44.076-44.089-102.869-73.479-168.996-73.479c-58.779,0-123.021,27.358-166.451,63.583c0,0-49.871-24.661-90.72-34.193
      S155.052,74.91,121.052,99.513s-38.384,55.459-38.384,92.202V911.79c0,14.691,3.7,30.412,25.41,29.383
      c21.71-1.027,22.338-24.348,22.338-31.695l-0.713-720.709c0-22.044,4.121-32.528,12.005-42.578s41.331-15.752,68.27-8.313
      s68.376,27.438,68.376,27.438c-35.644,42.5-41.383,92.527-41.383,136.615c0,66.126,22.038,124.906,73.472,168.995
      c17.307,13.888,39.771-1.261,40.639-4.108l160.653-161.986C511.735,304.831,519.488,283.193,504.796,268.501z"/>
  </g>
  <path d="M645.055,383.74c9.293,9.293,9.194,24.458-0.219,33.871l0,0c-9.413,9.413-24.577,9.511-33.87,0.218l-55.942-55.941
    c-9.292-9.293-9.194-24.458,0.219-33.871l0,0c9.413-9.414,24.578-9.512,33.87-0.219L645.055,383.74z"/>
  <path d="M763.83,292.776c9.293,9.293,9.195,24.458-0.218,33.871l0,0c-9.413,9.413-24.578,9.511-33.871,0.218L673.8,270.924
    c-9.293-9.293-9.195-24.458,0.218-33.87l0,0c9.413-9.414,24.578-9.512,33.871-0.219L763.83,292.776z"/>
  <path d="M507.428,526.455c9.294,9.293,9.195,24.457-0.218,33.87l0,0c-9.413,9.413-24.577,9.512-33.87,0.219l-55.942-55.941
    c-9.293-9.292-9.195-24.457,0.218-33.871l0,0c9.413-9.414,24.577-9.511,33.87-0.218L507.428,526.455z"/>
  <path d="M911.062,419.654c9.293,9.293,9.196,24.458-0.217,33.871l0,0c-9.414,9.413-24.578,9.511-33.871,0.218l-55.941-55.942
    c-9.293-9.293-9.195-24.457,0.219-33.87l0,0c9.413-9.414,24.576-9.511,33.869-0.219L911.062,419.654z"/>
  <path d="M750.874,565.942c9.293,9.293,9.195,24.457-0.218,33.87l0,0c-9.414,9.414-24.577,9.512-33.87,0.219l-55.941-55.941
    c-9.293-9.293-9.196-24.458,0.218-33.872l0,0c9.413-9.413,24.577-9.509,33.87-0.217L750.874,565.942z"/>
  <path d="M620.032,525.729c9.292,9.293,9.194,24.458-0.219,33.871l0,0c-9.413,9.413-24.578,9.511-33.871,0.218l-55.941-55.941
    c-9.293-9.292-9.194-24.457,0.219-33.87l0,0c9.413-9.414,24.577-9.511,33.87-0.219L620.032,525.729z"/>
  <path d="M798.823,461.433c9.293,9.293,9.195,24.458-0.218,33.87l0,0c-9.414,9.414-24.577,9.511-33.87,0.219l-55.942-55.941
    c-9.293-9.293-9.195-24.458,0.219-33.871l0,0c9.413-9.414,24.577-9.512,33.869-0.219L798.823,461.433z"/>
  <path d="M665.524,658.095c9.293,9.293,9.195,24.459-0.218,33.872l0,0c-9.413,9.412-24.578,9.511-33.871,0.218l-55.941-55.941
    c-9.293-9.293-9.195-24.459,0.218-33.871l0,0c9.413-9.414,24.578-9.512,33.871-0.219L665.524,658.095z"/>
</g>
</svg>
