<?xml version="1.0" encoding="utf-8"?>
<!-- Generator: Adobe Illustrator 16.0.0, SVG Export Plug-In . SVG Version: 6.00 Build 0)  -->
<!DOCTYPE svg PUBLIC "-//W3C//DTD SVG 1.1//EN" "http://www.w3.org/Graphics/SVG/1.1/DTD/svg11.dtd">
<svg version="1.1" id="图形" xmlns="http://www.w3.org/2000/svg" xmlns:xlink="http://www.w3.org/1999/xlink" x="0px" y="0px"
   width="1000.637px" height="1000.678px" viewBox="0 0 1000.637 1000.678" enable-background="new 0 0 1000.637 1000.678"
   xml:space="preserve">
<g>
  <path d="M645.543,268.895v36.549c0,11.361-9.754,21.1-21.113,21.1h-15.436c-11.359,0-21.113-9.739-21.113-21.1v-36.549h-1.621
    c-19.496,0-37.369-14.632-38.975-33.31c-1.637-21.917,15.42-40.594,36.535-40.594h64.164c19.479,0,37.354,14.618,38.973,33.293
    c1.621,21.934-15.434,40.611-36.535,40.611H645.543z"/>
  <path d="M410.178,268.895v36.549c0,11.361-9.755,21.1-21.115,21.1h-15.437c-11.36,0-21.115-9.739-21.115-21.1v-36.549h-1.62
    c-19.495,0-37.354-14.632-38.976-33.31c-1.636-21.917,15.437-40.594,36.553-40.594h64.147c19.479,0,37.354,14.618,38.976,33.293
    c1.619,21.934-15.421,40.611-36.536,40.611H410.178z"/>
  <path d="M188.467,56.529H812.17c22.721,0,41.412,18.677,41.412,41.42v804.787c0,22.738-18.691,41.414-41.412,41.414H188.467
    c-22.72,0-41.413-18.676-41.413-41.414V98.759C147.054,75.206,165.748,56.529,188.467,56.529z M242.815,106.854h-42.783v484.032
    h605.087V106.854H242.815z M200.032,634.819v252.482h605.087V634.819H200.032C200.032,633.966,200.032,633.966,200.032,634.819z"/>
  <path d="M584.92,359.036h64.967c10.559,0,21.932,3.241,29.234,11.36c9.74,8.937,13.813,21.115,12.178,33.308l-9.738,114.499
    c-1.623,21.115-19.496,38.17-41.414,38.17h-46.303c-21.92,0-39.795-16.238-41.398-38.17l-9.756-112.877
    c-0.803-12.996,3.242-25.992,12.996-34.929C564.609,363.095,575.166,359.036,584.92,359.036z M584.119,400.448l4.043,114.499
    h59.287l3.254-113.681h-66.584V400.448z"/>
</g>
</svg>
