<?xml version="1.0" encoding="utf-8"?>
<!-- Generator: Adobe Illustrator 16.0.0, SVG Export Plug-In . SVG Version: 6.00 Build 0)  -->
<!DOCTYPE svg PUBLIC "-//W3C//DTD SVG 1.1//EN" "http://www.w3.org/Graphics/SVG/1.1/DTD/svg11.dtd">
<svg version="1.1" id="图形" xmlns="http://www.w3.org/2000/svg" xmlns:xlink="http://www.w3.org/1999/xlink" x="0px" y="0px"
   width="1000.637px" height="1000.678px" viewBox="0 0 1000.637 1000.678" enable-background="new 0 0 1000.637 1000.678"
   xml:space="preserve">
<g>
  <path d="M770.377,930.251H230.26c-67.688,0-122.753-55.068-122.753-122.756V586.536H95.23c-47.382,0-85.927-38.539-85.927-85.929
    c0-23.643,9.497-45.714,26.781-62.163l387.168-336.888c19.565-19.667,47.262-31.129,76.722-31.129
    c29.459,0,57.158,11.461,77.975,32.283l387.588,336.738c17.15,17.558,25.796,38.794,25.796,61.16
    c0,47.354-38.539,85.929-85.933,85.929h-12.271v220.959C893.131,875.183,838.063,930.251,770.377,930.251z M499.971,115.654
    c-16.516,0-32.017,6.421-43.701,18.08L64.738,474.494c-6.694,6.402-10.835,15.949-10.835,26.118
    c0,20.509,16.688,37.202,37.2,37.202h62.002v272.809c0,41.02,33.382,74.4,74.399,74.4h545.617c41.022,0,74.399-33.377,74.399-74.4
    V537.814h62.005c20.521,0,37.207-16.692,37.207-37.201c0-9.647-3.722-18.799-10.539-25.82L544.931,134.92
    C531.985,122.076,516.48,115.654,499.971,115.654z"/>
  <path d="M517.949,730.374v-40.756c17.628-2.576,44.687-10.685,58.669-24.418c13.978-13.699,21.063-32.457,21.063-56.201
    c0-24.047-6.733-42.646-20.379-55.83c-13.644-13.152-34.958-24.929-64.015-35.331c-19.175-6.77-32.238-13.661-39.273-20.765
    c-6.998-7.086-10.544-16.588-10.544-28.473c0-12.674,3.37-22.651,10.138-29.862c6.753-7.209,17.154-10.859,31.202-10.859
    c13.504,0,23.978,5.253,31.415,14.915c7.407,9.624,11.142,23.146,11.142,40.774h49.026c0-35.257-8.726-49.537-21.511-65.545
    c-12.724-16.008-21.683-26.126-56.938-29.652v-45.834h-35.26v45.411c-17.629,2.858-38.59,11.337-52.021,25.438
    c-13.47,14.12-18.28,32.649-18.28,55.602c0,24.17,7.913,42.944,21.909,56.307c13.981,13.366,35.966,24.997,65.016,34.854
    c17.966,6.348,30.813,13.188,38.099,20.555c7.3,7.369,11.07,16.926,11.07,28.662c0,12.836-3.981,22.832-12.095,29.987
    c-8.108,7.16-19.778,10.734-35.026,10.734c-14.314,0-26.075-7.646-35.348-15.705c-9.238-8.002-13.839-9.783-13.839-45.039H402.95
    c0,35.256,5.977,56.002,21.421,70.813c15.459,14.756,40.688,27.098,58.314,29.651v40.564h35.263L517.949,730.374L517.949,730.374z"
    />
</g>
</svg>
