<?xml version="1.0" encoding="utf-8"?>
<!-- Generator: Adobe Illustrator 16.0.0, SVG Export Plug-In . SVG Version: 6.00 Build 0)  -->
<!DOCTYPE svg PUBLIC "-//W3C//DTD SVG 1.1//EN" "http://www.w3.org/Graphics/SVG/1.1/DTD/svg11.dtd">
<svg version="1.1" id="图形" xmlns="http://www.w3.org/2000/svg" xmlns:xlink="http://www.w3.org/1999/xlink" x="0px" y="0px"
   width="1000.637px" height="1000.678px" viewBox="0 0 1000.637 1000.678" enable-background="new 0 0 1000.637 1000.678"
   xml:space="preserve">
<path d="M924.725,176.983c-2.027-56.59-48.502-101.05-105.098-101.05h-2.018h-2.016H96.118c-4.046,0-10.108,2.021-14.143,6.062
  c-2.028,4.044-6.063,8.083-6.063,14.145v721.488l0,0c2.018,58.611,48.503,107.117,107.105,107.117h2.027h2.019H904.51
  c10.105,0,20.215-8.08,20.215-20.207l0,0v-2.027V179.001C924.725,179.001,924.725,179.001,924.725,176.983z M884.299,181.022
  C884.299,183.046,886.318,183.046,884.299,181.022v127.322c0,42.441-38.393,70.736-80.834,70.736
  c-42.439,0-78.818-28.294-78.818-68.714c0,0,0,0,0-2.023l0,0V116.354h-40.422v191.99l0,0c0,0,0,0,0,2.023
  c-2.02,42.441-40.422,68.714-82.863,68.714s-78.818-28.294-78.818-68.714c0,0,0,0,0-2.023l0,0v-191.99h-40.414v191.99l0,0
  c0,0,0,0,0,2.023c-2.026,42.441-40.422,68.714-82.865,68.714c-42.44,0-76.798-26.271-78.816-68.714V116.354h-40.424v194.013
  c-2.018,42.441-40.413,68.714-82.854,68.714c-44.467,0-78.818-28.294-78.818-70.737v-191.99h697.242h2.016c2.018,0,2.018,0,4.047,0
  C853.986,116.354,884.299,146.668,884.299,181.022z M116.325,817.628V391.205c22.232,18.187,50.53,28.294,80.844,28.294
  c42.442,0,78.82-18.188,101.042-48.502c22.236,30.313,58.611,48.502,101.051,48.502c42.442,0,78.82-18.188,101.055-48.502
  c22.223,30.313,58.6,48.502,101.042,48.502s78.818-18.188,101.053-48.502c22.234,30.313,58.611,48.502,101.053,48.502
  c32.334,0,60.629-10.107,82.855-28.294v493.114h-699.26h-2.018c-2.027,0-2.027,0-2.027,0
  C148.667,884.319,116.325,854.007,116.325,817.628z"/>
<path d="M517.951,833.374v-40.756c17.627-2.576,44.686-10.685,58.668-24.418c13.979-13.699,21.063-32.457,21.063-56.201
  c0-24.047-6.733-42.646-20.379-55.83c-13.643-13.152-34.957-24.929-64.014-35.331c-19.175-6.77-32.239-13.661-39.274-20.765
  c-6.998-7.087-10.544-16.589-10.544-28.474c0-12.674,3.37-22.651,10.138-29.862c6.753-7.209,17.154-10.859,31.203-10.859
  c13.504,0,23.977,5.254,31.416,14.916c7.405,9.623,11.141,23.146,11.141,40.773h49.027c0-35.256-8.728-49.537-21.513-65.545
  c-12.723-16.009-21.682-26.126-56.938-29.652v-45.834h-35.259v45.411c-17.629,2.857-38.59,11.337-52.021,25.438
  c-13.47,14.12-18.28,32.648-18.28,55.603c0,24.17,7.913,42.944,21.909,56.308c13.981,13.366,35.966,24.997,65.016,34.854
  c17.966,6.348,30.813,13.188,38.099,20.555c7.299,7.369,11.07,16.926,11.07,28.662c0,12.836-3.982,22.832-12.095,29.987
  c-8.108,7.16-19.778,10.734-35.026,10.734c-14.315,0-26.076-7.646-35.348-15.705c-9.237-8.002-13.839-9.783-13.839-45.039h-49.221
  c0,35.256,5.977,56.002,21.421,70.813c15.459,14.756,40.688,27.098,58.314,29.651v40.564h35.263L517.951,833.374L517.951,833.374z"
  />
</svg>
