<?xml version="1.0" encoding="utf-8"?>
<!-- Generator: Adobe Illustrator 16.0.0, SVG Export Plug-In . SVG Version: 6.00 Build 0)  -->
<!DOCTYPE svg PUBLIC "-//W3C//DTD SVG 1.1//EN" "http://www.w3.org/Graphics/SVG/1.1/DTD/svg11.dtd">
<svg version="1.1" id="图形" xmlns="http://www.w3.org/2000/svg" xmlns:xlink="http://www.w3.org/1999/xlink" x="0px" y="0px"
   width="1000.637px" height="1000.678px" viewBox="0 0 1000.637 1000.678" enable-background="new 0 0 1000.637 1000.678"
   xml:space="preserve">
<g>
  <path d="M374.199,713.143h255.371l-21.284-21.279v85.124l21.284-21.284H374.199l21.284,21.284v-85.124L374.199,713.143
    L374.199,713.143z M374.199,670.583h-21.28v21.28v85.124v21.28h21.28h255.371h21.28v-21.28v-85.124v-21.28h-21.28H374.199
    L374.199,670.583z"/>
  <path d="M289.079,266.252V96.007l-21.28,21.28h127.684l-21.284-21.28v170.245h42.561V96.007V74.725h-21.277H267.798h-21.28v21.282
    v170.245H289.079L289.079,266.252z"/>
  <path d="M629.569,266.252V96.007l-21.284,21.28h127.688l-21.284-21.28v170.245h42.561V96.007V74.725h-21.276H608.285h-21.276
    v21.282v170.245H629.569L629.569,266.252z"/>
  <path d="M499.843,298.173h342.531l2.348-0.13c12.44-1.384,15.243,0.357,16.854,6.764c2.552,10.159,0.226,28.196-6.894,51.231
    c-11.469,37.076-35.531,86.245-51.583,111.655c-11.426,18.094-28.816,39.977-51.073,64.669
    c-10.182,11.299-21.267,23.062-33.119,35.177c-22.579,23.096-46.82,46.382-71.065,68.664c-8.49,7.804-16.367,14.919-23.432,21.198
    c-4.223,3.758-7.217,6.383-8.785,7.746l13.944-5.207H501.884v42.565h127.686h7.941l5.998-5.202
    c1.704-1.474,4.832-4.227,9.186-8.099c7.233-6.429,15.286-13.701,23.952-21.663c24.76-22.763,49.528-46.557,72.696-70.244
    c12.231-12.517,23.709-24.689,34.3-36.442c23.734-26.332,42.514-49.96,55.442-70.434c17.907-28.352,43.571-80.788,56.258-121.814
    c9.231-29.864,12.423-54.617,7.507-74.178c-7.039-28.01-30.107-42.323-62.822-38.688l2.347-0.132H499.843V298.173L499.843,298.173z
    "/>
  <path d="M500.794,255.61H158.262l2.352,0.132c-32.719-3.636-55.786,10.678-62.826,38.688c-4.917,19.561-1.726,44.313,7.508,74.178
    c12.683,41.026,38.349,93.463,56.255,121.814c12.929,20.474,31.713,44.102,55.443,70.434
    c10.591,11.753,22.068,23.926,34.304,36.442c23.159,23.688,47.932,47.481,72.697,70.244c8.665,7.962,16.712,15.234,23.942,21.663
    c4.358,3.872,7.49,6.625,9.185,8.099l6.003,5.202h7.946h148.961V659.94H371.072l13.939,5.207c-1.568-1.363-4.568-3.988-8.785-7.746
    c-7.063-6.279-14.945-13.395-23.432-21.198c-24.245-22.282-48.485-45.568-71.065-68.664
    c-11.849-12.115-22.933-23.878-33.115-35.177c-22.256-24.692-39.655-46.575-51.081-64.669
    c-16.044-25.41-40.115-74.579-51.575-111.655c-7.123-23.035-9.449-41.072-6.893-51.231c1.61-6.406,4.413-8.147,16.845-6.764
    l2.352,0.13h342.532V255.61L500.794,255.61z"/>
  <path d="M395.482,787.626v117.042c0,11.755,9.526,21.285,21.277,21.285c11.758,0,21.284-9.53,21.284-21.285V787.626
    c0-11.754-9.525-21.28-21.284-21.28C405.009,766.346,395.482,775.872,395.482,787.626L395.482,787.626z"/>
  <path d="M565.725,787.626v117.042c0,11.755,9.53,21.285,21.284,21.285c11.75,0,21.276-9.53,21.276-21.285V787.626
    c0-11.754-9.526-21.28-21.276-21.28C575.255,766.346,565.725,775.872,565.725,787.626L565.725,787.626z"/>
</g>
</svg>
