<?xml version="1.0" encoding="utf-8"?>
<!-- Generator: Adobe Illustrator 16.0.0, SVG Export Plug-In . SVG Version: 6.00 Build 0)  -->
<!DOCTYPE svg PUBLIC "-//W3C//DTD SVG 1.1//EN" "http://www.w3.org/Graphics/SVG/1.1/DTD/svg11.dtd">
<svg version="1.1" id="图形" xmlns="http://www.w3.org/2000/svg" xmlns:xlink="http://www.w3.org/1999/xlink" x="0px" y="0px"
   width="1000.637px" height="1000.678px" viewBox="0 0 1000.637 1000.678" enable-background="new 0 0 1000.637 1000.678"
   xml:space="preserve">
<g>
  <g>
    <path d="M503.2,961.312h-7.694c-228.675,0-413.161-184.484-413.161-413.172V146.504c0-11.53,7.685-19.22,19.214-19.22h96.092
      c78.782,0,157.575-19.216,228.677-53.806l65.346-32.67c5.759-1.922,11.528-1.922,17.292,0l65.34,32.67
      c71.095,34.59,149.891,53.806,228.682,53.806h96.083c11.532,0,19.223,7.689,19.223,19.22c0,11.531-7.691,19.216-19.223,19.216
      h-96.083c-84.554,0-169.115-19.216-245.981-57.651l-57.649-28.825l-55.736,28.825c-76.863,38.436-161.422,57.651-245.97,57.651
      h-76.878V548.14c0,207.545,167.191,374.732,374.732,374.732h7.695c205.618,0,374.733-167.189,374.733-374.732l1.698-313.243
      c-0.295-11.845,9.148-17.086,19.123-17.292c12.376-0.476,19.104,9.609,19.104,17.295l-1.497,313.237
      C916.363,776.825,731.878,961.312,503.2,961.312z"/>
  </g>
  <path d="M601.119,349.096c-4.799,4.718-7.997,12.611-4.799,18.916c3.192,6.306,4.799,14.199,6.386,22.069
    c-43.113-99.319-114.956-121.387-118.169-122.975c-5.018-1.437-10.422-0.243-14.367,3.175c-4.801,3.131-6.389,9.455-4.801,14.198
    c6.407,42.548-12.757,92.994-57.459,152.893c-3.51-13.804-8.882-27.066-15.974-39.42c-4.801-4.715-11.188-7.87-17.558-6.304
    c-7.995,1.588-12.775,6.304-12.775,14.2c-1.607,23.633-12.78,45.723-25.557,69.358c-11.169,20.481-22.338,42.55-27.139,66.185
    c-15.973,75.686,17.558,130.848,111.762,181.285c3.195,1.568,4.804,1.568,7.996,1.568c4.802,0,9.587-3.133,12.776-6.281
    c4.805-7.893,3.196-17.35-4.802-22.07l-1.585-1.586c-94.227-52.012-106.981-94.58-95.809-146.588
    c4.802-20.506,14.364-37.832,23.947-58.337c6.386-9.459,11.192-18.916,14.363-28.373c0,4.738,1.606,11.045,1.606,15.763
    c0,6.306,4.803,12.609,11.173,14.199c6.287,1.682,12.988-0.128,17.577-4.739c55.871-66.187,86.229-126.109,89.402-179.703
    c25.553,15.763,68.69,53.594,91.03,133.996c1.587,4.721,4.801,9.459,11.17,11.023c5.009,1.451,10.41,0.27,14.367-3.129
    c12.774-11.067,19.164-26.807,20.77-42.591c27.146,33.112,57.484,86.707,54.285,141.893c-3.192,45.699-28.75,85.121-75.055,119.797
    c17.576-81.969-15.952-176.545-89.405-225.424c-4.801-3.132-11.19-3.132-15.973-1.566c-4.8,3.134-7.995,7.873-7.995,14.199
    c-1.587,44.115-23.944,70.925-44.7,97.712c-17.557,22.068-35.139,44.137-38.333,74.096c0,7.875,6.39,15.764,14.387,17.33
    c9.58,1.588,15.971-6.303,17.558-14.193c1.608-20.484,15.971-37.813,30.335-56.73c17.56-22.066,38.336-48.857,47.914-86.705
    c57.482,53.591,76.628,148.173,41.511,214.38v1.588c0,1.563,0,1.563-1.587,3.129v6.326c0,1.568,0,1.568,1.587,3.133v1.584
    l1.605,1.588c0,1.564,1.585,1.564,1.585,3.133c0,0,1.588,1.582,3.197,1.582l1.587,1.568c0,0,1.607,0,1.607,1.586h9.582
    c1.587,0,3.194,0,4.801-1.586c81.428-44.115,126.128-102.449,129.323-170.221c4.803-105.625-84.622-193.901-102.2-204.926
    C613.88,344.358,605.903,345.942,601.119,349.096L601.119,349.096z"/>
</g>
</svg>
