<?xml version="1.0" encoding="utf-8"?>
<!-- Generator: Adobe Illustrator 16.0.0, SVG Export Plug-In . SVG Version: 6.00 Build 0)  -->
<!DOCTYPE svg PUBLIC "-//W3C//DTD SVG 1.1//EN" "http://www.w3.org/Graphics/SVG/1.1/DTD/svg11.dtd">
<svg version="1.1" id="图形" xmlns="http://www.w3.org/2000/svg" xmlns:xlink="http://www.w3.org/1999/xlink" x="0px" y="0px"
   width="1000.637px" height="1000.678px" viewBox="0 0 1000.637 1000.678" enable-background="new 0 0 1000.637 1000.678"
   xml:space="preserve">
<path d="M827.798,901.366H172.839c-24.709,0-44.821-20.112-44.821-44.808V144.134c0-24.725,20.112-44.822,44.821-44.822h654.959
  c24.709,0,44.821,20.098,44.821,44.822v712.425C872.619,881.254,852.507,901.366,827.798,901.366z M420.195,154.028h-218.51
  c-9.418,0-17.172,7.768-17.172,17.2v658.25c0,9.418,7.753,17.172,17.172,17.172h219.068V154.028H420.195z M532.818,154.028h-68
  v692.621h68V154.028z M819.682,171.215c0-9.418-7.782-17.187-17.2-17.187h-222.93v692.621h222.386c9.433,0,17.187-7.768,17.187-17.2
  V171.215H819.682z"/>
<path d="M727.264,600.881c-5.177,7.467-13.225,12.063-22.404,12.063c-6.32,0-12.66-2.29-17.242-6.306h-0.579
  c-0.566,0-0.566-0.597-1.146-0.597c-0.581,0-0.581-0.55-1.146-0.55l-50.549-50.579c-10.355-10.338-10.922-27.567-0.597-37.906
  c10.355-10.338,27.598-10.933,37.938-0.578l5.159,5.176V417.04c0-14.952,12.063-27.016,27.016-27.016c14.937,0,27,12.063,27,27.016
  v102.825l4.582-4.582c10.354-10.354,27.58-10.354,37.935,0c10.339,10.339,10.339,27.563,0,37.903L727.264,600.881L727.264,600.881z"
  />
<path d="M269.922,400.942c8.628-12.063,25.291-15.516,37.355-6.889c0.563,0.567,1.159,1.16,2.306,1.713l0.564,0.579
  c0,0,0.566,0,0.566,0.581l1.16,1.146l50.563,50.549c10.34,10.354,10.34,27.578,0,37.933c-10.354,10.341-27.582,10.341-37.933,0
  l-5.164-5.16v103.969c0,14.951-12.063,27.018-27.016,27.018c-14.922,0-26.985-12.066-26.985-27.018V481.395l-4.597,4.581
  c-10.354,10.341-27.579,10.341-37.934,0c-10.34-10.338-10.34-27.581,0-37.921L269.922,400.942z"/>
</svg>
