<?xml version="1.0" encoding="utf-8"?>
<!-- Generator: Adobe Illustrator 16.0.0, SVG Export Plug-In . SVG Version: 6.00 Build 0)  -->
<!DOCTYPE svg PUBLIC "-//W3C//DTD SVG 1.1//EN" "http://www.w3.org/Graphics/SVG/1.1/DTD/svg11.dtd">
<svg version="1.1" id="图形" xmlns="http://www.w3.org/2000/svg" xmlns:xlink="http://www.w3.org/1999/xlink" x="0px" y="0px"
   width="1000.637px" height="1000.678px" viewBox="0 0 1000.637 1000.678" enable-background="new 0 0 1000.637 1000.678"
   xml:space="preserve">
<g>
  <path d="M533.021,465.044c-2.97-2.686-6.47-4.859-10.273-6.411l-124.186-77.429l78.524,123.528
    c1.568,3.78,3.783,7.224,6.471,10.174l0.984,1.586l0.283-0.283c6.389,6.335,15.183,10.211,24.88,10.172
    c19.436-0.059,35.098-15.901,35-35.301c-0.033-9.719-3.989-18.494-10.378-24.81l0.225-0.227L533.021,465.044z"/>
  <path d="M508.366,220.974h-0.154l-11.082,0.058l0.607,134.44h0.094c0.491,12.195,10.514,21.933,22.839,21.933
    c12.636,0,22.882-10.25,22.882-22.858c0-0.476-0.035-0.93-0.074-1.401l1.042-84.633
    c114.412,15.939,192.636,103.825,193.127,222.725c0.589,130.405-97.625,226.899-228.052,227.447
    c-130.428,0.591-225.709-97.042-226.277-227.447c-0.301-66.199,24.636-125.252,68.313-168.325l-0.018-0.018
    c0.699-0.552,1.358-1.173,1.985-1.854c6.181-6.846,3.401-17.961-3.646-24.335c-6.414-5.785-21.52-5.257-27.835-0.114l-0.024-0.037
    c-0.11,0.113-0.222,0.227-0.337,0.34c-0.516,0.437-1.002,0.889-1.453,1.399c-0.042,0.055-0.081,0.114-0.117,0.15
    c-50.184,49.334-81.196,118.047-80.873,193.964C239.995,641.692,361.515,762.135,510.8,761.47
    c149.247-0.694,269.712-122.202,269.049-271.467C779.17,340.777,657.623,220.313,508.366,220.974z"/>
  <path d="M500.29,56.396c-245.169,0-443.955,198.766-443.955,443.933c0,245.319,198.786,443.952,443.955,443.952
    c101.821,0,198.424-34.376,276.456-96.51c9.324-7.413,10.877-21.067,3.466-30.403c-7.489-9.344-21.086-10.891-30.462-3.446
    c-70.397,56.108-157.474,87.117-249.423,87.117c-221.266,0-400.613-179.405-400.613-400.709
    c0-221.229,179.332-400.612,400.613-400.612c221.309,0,400.648,179.383,400.648,400.612c0,75.863-21.077,148.582-60.334,211.586
    c-6.278,10.112-3.176,23.524,6.961,29.835c10.134,6.357,23.463,3.183,29.779-6.941c43.566-69.789,66.92-150.409,66.92-234.479
    C944.28,255.16,745.53,56.396,500.29,56.396z"/>
</g>
</svg>
