<?xml version="1.0" encoding="utf-8"?>
<!-- Generator: Adobe Illustrator 16.0.0, SVG Export Plug-In . SVG Version: 6.00 Build 0)  -->
<!DOCTYPE svg PUBLIC "-//W3C//DTD SVG 1.1//EN" "http://www.w3.org/Graphics/SVG/1.1/DTD/svg11.dtd">
<svg version="1.1" id="图形" xmlns="http://www.w3.org/2000/svg" xmlns:xlink="http://www.w3.org/1999/xlink" x="0px" y="0px"
   width="1000.637px" height="1000.678px" viewBox="0 0 1000.637 1000.678" enable-background="new 0 0 1000.637 1000.678"
   xml:space="preserve">
<path d="M944.393,147.168H367.609c-12.078,0-22.336,9.723-22.336,22.337v320.578H56.228c-12.615,0-22.314,9.99-22.314,22.339
  v319.261c0,12.097,9.7,21.827,22.314,21.827h791.198c12.103,0,21.826-9.73,21.826-21.827V655.628h75.136
  c12.368,0,22.336-10.24,22.336-22.336V169.505C966.729,156.896,956.756,147.168,944.393,147.168L944.393,147.168z M824.848,809.347
  L824.848,809.347H78.563V534.753h746.284V809.347L824.848,809.347z M678.214,472.74L678.214,472.74
  c10.499-3.665,20.229-9.455,28.372-16.564l26.29,14.989c10.239,5.796,23.651,2.378,29.687-8.151
  c6.312-10.259,2.89-24.424-7.881-30.727l-25.751-14.479c1.039-5.503,1.571-11.279,1.571-16.007c0-5.771-0.532-11.566-1.571-17.071
  l25.751-14.459c10.771-6.302,14.192-20.486,7.881-30.487c-5.79-10.766-19.447-14.185-29.687-8.385l-26.29,15.228
  c-8.143-7.348-17.873-13.145-28.372-16.56v-30.228c0-11.567-9.993-21.8-22.336-21.8c-11.811,0-21.805,10.232-21.805,21.8v30.223
  c-11.03,3.42-20.492,9.217-28.666,16.564l-25.975-15.232c-10.015-6.326-23.672-2.381-29.979,8.39
  c-6.302,9.995-2.884,24.186,7.886,30.487l26.29,14.459c-1.603,5.499-2.114,11.3-2.114,17.071c0,4.728,0.512,10.498,2.114,16.007
  l-26.29,14.479c-10.504,6.303-14.192,20.468-7.886,30.461c6.308,10.792,19.452,14.213,29.979,8.417l25.975-14.989
  c8.174,7.109,17.63,12.899,28.666,16.564v17.338h-95.118c-8.415-11.035-15.764-23.647-20.493-36.772
  c-5.797-16.317-9.483-34.163-9.483-52.548c0-40.215,16.301-77.004,43.096-103.272c26.534-26.556,63.324-43.091,103.804-43.091
  c40.722,0,77.511,16.535,104.31,43.091c26.29,26.269,43.101,63.058,43.101,103.272c0,18.385-3.958,36.23-9.726,52.548
  c-4.467,13.125-11.813,25.737-20.495,36.772h-94.854V472.74L678.214,472.74z M677.705,422.558L677.705,422.558
  c-5.53,5.511-12.636,8.682-20.519,8.926h-1.309h-0.773c-8.18-0.244-15.236-3.415-20.761-8.926c-1.313-1.333-2.917-3.661-4.469-5.79
  l-0.26-0.246c-2.381-4.463-3.96-9.993-3.96-14.721c0-5.263,1.579-10.233,3.424-14.725h0.266l0.271-1.042l0.504-0.537v-0.238
  c1.308-1.865,2.911-3.953,4.219-5.285c5.53-5.506,12.858-8.152,21.026-8.661h0.271h0.237h0.802h0.513
  c7.883,0,14.988,3.155,20.519,8.661c5.24,5.285,8.389,12.898,8.389,21.827c0,4.457-1.307,9.727-3.148,14.185h-0.511v0.271v0.261
  v0.246C680.57,418.901,679.016,421.225,677.705,422.558L677.705,422.558z M922.588,611.492L922.588,611.492h-53.336v-99.07
  c0-12.349-9.724-22.339-21.826-22.339h-22.072c3.689-7.353,7.109-14.461,9.996-21.806c7.612-20.763,12.076-43.632,12.076-67.52
  c0-52.314-21.807-99.846-55.709-134.798h-0.512c-34.678-34.419-81.973-56.24-135.327-56.24c-52.553,0-100.117,21.821-135.067,56.24
  c-34.433,34.952-56.214,82.483-56.214,134.798c0,23.888,4.463,46.757,12.078,67.52c2.62,7.345,6.307,14.453,9.704,21.806h-96.67
  V191.337h532.886v420.155H922.588z M123.504,750.24L123.504,750.24h647.718c12.608,0,22.34-10.265,22.34-22.336
  c0-12.635-9.731-22.343-22.34-22.343H123.504c-12.079,0-21.806,9.708-21.806,22.343C101.698,739.976,111.426,750.24,123.504,750.24
  L123.504,750.24z"/>
</svg>
