<?xml version="1.0" encoding="utf-8"?>
<!-- Generator: Adobe Illustrator 16.0.0, SVG Export Plug-In . SVG Version: 6.00 Build 0)  -->
<!DOCTYPE svg PUBLIC "-//W3C//DTD SVG 1.1//EN" "http://www.w3.org/Graphics/SVG/1.1/DTD/svg11.dtd">
<svg version="1.1" id="图形" xmlns="http://www.w3.org/2000/svg" xmlns:xlink="http://www.w3.org/1999/xlink" x="0px" y="0px"
   width="1000.637px" height="1000.678px" viewBox="0 0 1000.637 1000.678" enable-background="new 0 0 1000.637 1000.678"
   xml:space="preserve">
<g>
  <path d="M630.911,891.933c-3.752,0.114-10.636,0.317-20.036,0.572c-15.673,0.423-32.601,0.852-50.151,1.252
    c-22.564,0.512-44.497,0.935-65.168,1.251c-37.966,0.574-69.574,0.733-92.63,0.38c-12.855-0.194-22.809-0.543-29.44-1.044
    c-2.997-0.225-5.135-0.472-6.078-0.662c0.41,0.084,1.021,0.252,2.23,0.78c6.589,2.891,12.12,7.996,12.12,19.022
    c0-35.638,0-35.638,0-82.166c0-36.823,0-36.823,0-68.249c0-29.049,0-29.049,0-36.421c0-6.224-2.689-12.14-7.373-16.234
    c-1.367-1.193-4.056-3.608-7.881-7.152c-6.449-5.963-13.654-12.861-21.424-20.583c-22.223-22.08-44.444-46.293-65.143-71.817
    c-38.316-47.26-66.818-93.389-81.442-135.706c-7.102-20.56-10.75-39.792-10.75-57.478c0-172.629,139.943-312.571,312.569-312.571
    c172.629,0,312.576,139.942,312.576,312.571c0,15.875-3.217,32.958-9.516,51.113c-15.311,44.108-47.93,92.466-92.694,141.943
    c-23.007,25.422-47.716,49.485-72.419,71.391c-8.642,7.665-16.655,14.5-23.831,20.409c-4.256,3.51-7.254,5.902-8.779,7.093
    c-5.254,4.082-8.328,10.367-8.328,17.022v100.606l21.556-21.559H370.978c-11.905,0-21.558,9.654-21.558,21.559
    c0,11.902,9.652,21.557,21.558,21.557h247.901c11.904,0,21.556-9.654,21.556-21.557V726.648l-8.324,17.021
    c1.837-1.438,5.159-4.087,9.744-7.863c7.563-6.232,15.962-13.402,25.006-21.42c25.82-22.887,51.638-48.032,75.789-74.731
    c48.306-53.391,83.9-106.156,101.451-156.726c7.801-22.474,11.904-44.259,11.904-65.251c0-196.439-159.248-355.687-355.69-355.687
    c-196.436,0-355.683,159.247-355.683,355.687c0,22.819,4.531,46.715,13.117,71.558c16.526,47.842,47.494,97.958,88.701,148.779
    c21.747,26.814,44.99,52.148,68.24,75.252c8.145,8.092,15.721,15.338,22.535,21.64c4.129,3.826,7.123,6.515,8.788,7.969
    l-7.37-16.227c0,7.372,0,7.372,0,36.421c0,31.426,0,31.426,0,68.249c0,46.528,0,46.528,0,82.166
    c0,11.534,6.048,17.118,13.673,20.459c2.23,0.978,4.354,1.568,6.77,2.044c2.961,0.582,6.594,1.001,11.15,1.345
    c7.678,0.581,18.388,0.962,32.036,1.169c23.585,0.353,55.574,0.193,93.936-0.388c20.786-0.313,42.821-0.741,65.49-1.256
    c17.625-0.402,34.614-0.829,50.353-1.257c9.442-0.257,16.375-0.459,20.163-0.573c11.901-0.36,21.259-10.296,20.897-22.196
    C652.749,900.933,642.81,891.575,630.911,891.933L630.911,891.933z"/>
  <path d="M366.512,529.929l107.783,107.777c8.108,8.109,21.146,8.454,29.665,0.785l107.781-97.006
    c8.853-7.964,9.566-21.596,1.605-30.447c-7.968-8.85-21.596-9.563-30.444-1.599L475.118,606.44l29.667,0.784L396.999,499.438
    c-8.42-8.415-22.068-8.415-30.487,0C358.094,507.856,358.094,521.511,366.512,529.929L366.512,529.929z"/>
  <path d="M467.982,633.246v183.232h43.113V633.246H467.982L467.982,633.246z"/>
</g>
</svg>
