<?xml version="1.0" encoding="utf-8"?>
<!-- Generator: Adobe Illustrator 16.0.0, SVG Export Plug-In . SVG Version: 6.00 Build 0)  -->
<!DOCTYPE svg PUBLIC "-//W3C//DTD SVG 1.1//EN" "http://www.w3.org/Graphics/SVG/1.1/DTD/svg11.dtd">
<svg version="1.1" id="图形" xmlns="http://www.w3.org/2000/svg" xmlns:xlink="http://www.w3.org/1999/xlink" x="0px" y="0px"
   width="1000.637px" height="1000.678px" viewBox="0 0 1000.637 1000.678" enable-background="new 0 0 1000.637 1000.678"
   xml:space="preserve">
<g>
  <path d="M487.734,864.427l-87.247-82.213l31.878-181.205h106.543l24.326,182.045L487.734,864.427z M435.721,765.437l50.334,48.656
    l45.304-46.982l-17.617-132.547h-57.883L435.721,765.437z"/>
  <path d="M606.863,544.8c75.5-41.947,125.836-120.805,125.836-213.083c0-134.226-108.225-243.285-240.771-243.285
    s-240.77,108.22-240.77,243.285S359.383,574.999,491.93,574.999c3.353,0,5.032,0,8.388,0h1.68
    c193.785,0,361.57,138.422,375.832,295.303H479.347H124.486c8.388-104.865,77.176-197.146,182.042-251.676
    c10.069-5.033,14.263-17.617,8.389-27.686c-5.869-10.066-17.617-14.262-27.683-8.391
    C159.718,644.634,80.861,761.241,80.861,891.274v20.973h20.973h377.513h419.456h20.973v-20.973
    C919.775,730.202,783.869,586.745,606.863,544.8z M290.59,331.716c0-109.897,88.926-199.66,199.658-199.66
    c110.74,0,199.666,88.923,199.666,198.821c0,109.898-89.766,199.663-199.666,199.663C380.354,530.54,290.59,441.614,290.59,331.716
    z"/>
</g>
</svg>
