<?xml version="1.0" encoding="utf-8"?>
<!-- Generator: Adobe Illustrator 16.0.0, SVG Export Plug-In . SVG Version: 6.00 Build 0)  -->
<!DOCTYPE svg PUBLIC "-//W3C//DTD SVG 1.1//EN" "http://www.w3.org/Graphics/SVG/1.1/DTD/svg11.dtd">
<svg version="1.1" id="图形" xmlns="http://www.w3.org/2000/svg" xmlns:xlink="http://www.w3.org/1999/xlink" x="0px" y="0px" viewBox="0 0 1000.637 1000.678" enable-background="new 0 0 1000.637 1000.678"
   xml:space="preserve">
<g>
  <path d="M597.145,486.789c-1.598-3.371-4.998-5.52-8.727-5.519h-64.063l60.753-101.26c2.745-4.571,1.268-10.503-3.307-13.25
    c-1.502-0.903-3.224-1.379-4.975-1.378h-92.711c-3.948,0-7.5,2.406-8.97,6.074l-69.532,173.832
    c-1.981,4.956,0.43,10.575,5.383,12.551c1.141,0.458,2.358,0.692,3.588,0.692h44.005l-53.045,141.465
    c-1.877,4.993,0.647,10.563,5.637,12.439c3.883,1.463,8.268,0.277,10.889-2.935l173.834-212.465
    C598.261,494.151,598.746,490.16,597.145,486.789z"/>
  <path d="M770.377,930.251H230.26c-67.688,0-122.753-55.068-122.753-122.756V586.536H95.23c-47.382,0-85.927-38.539-85.927-85.929
    c0-23.643,9.497-45.714,26.781-62.163l387.168-336.888c19.565-19.667,47.262-31.129,76.722-31.129
    c29.459,0,57.158,11.461,77.975,32.283l387.588,336.738c17.15,17.558,25.796,38.794,25.796,61.16
    c0,47.354-38.539,85.929-85.933,85.929h-12.271v220.959C893.131,875.183,838.063,930.251,770.377,930.251z M499.971,115.654
    c-16.516,0-32.017,6.421-43.701,18.08L64.738,474.494c-6.694,6.402-10.835,15.949-10.835,26.118
    c0,20.509,16.688,37.202,37.2,37.202h62.002v272.809c0,41.02,33.382,74.4,74.399,74.4h545.617c41.022,0,74.399-33.377,74.399-74.4
    V537.814h62.005c20.521,0,37.207-16.692,37.207-37.201c0-9.647-3.722-18.799-10.539-25.82L544.931,134.92
    C531.985,122.076,516.48,115.654,499.971,115.654z"/>
</g>
</svg>
