<?xml version="1.0" encoding="utf-8"?>
<!-- Generator: Adobe Illustrator 16.0.0, SVG Export Plug-In . SVG Version: 6.00 Build 0)  -->
<!DOCTYPE svg PUBLIC "-//W3C//DTD SVG 1.1//EN" "http://www.w3.org/Graphics/SVG/1.1/DTD/svg11.dtd">
<svg version="1.1" id="图形" xmlns="http://www.w3.org/2000/svg" xmlns:xlink="http://www.w3.org/1999/xlink" x="0px" y="0px"
   width="1000.637px" height="1000.678px" viewBox="0 0 1000.637 1000.678" enable-background="new 0 0 1000.637 1000.678"
   xml:space="preserve">
<g>
  <path d="M525.609,441.381l-30.398-0.684l158.408,196.488l15.484-32.247H569.73h-19.873v19.824v247.168l19.371-15.602
    l-138.619,0.126l19.872,14.719V705.94c0-10.953-8.9-19.827-19.872-19.827c-10.981,0-19.877,8.874-19.877,19.827v138.777v46.39
    l20.879,0.328l135.625-0.329h22.367v-46.389V624.763l-19.873,19.828h99.373h41.49l-25.998-32.251l-158.41-196.492l-14.791-18.349
    l-15.605,17.667L321.25,612.694c-7.257,8.219-6.467,20.746,1.771,27.979c8.234,7.241,20.793,6.453,28.047-1.762L525.609,441.381z"
    />
  <path stroke="#000000" stroke-width="2" stroke-miterlimit="10" d="M407.735,174.2c39.326-35.108,89.646-57.669,142.005-63.448
    c45.906-4.922,93.055,2.182,135.033,21.416c32.928,14.879,62.832,36.914,86.756,64.204
    c43.922,48.996,67.184,115.517,64.346,181.285c16.186,1.81,32.078,6.048,47.105,12.384c28.152,11.865,53.289,31.082,71.633,55.51
    c21.842,28.571,33.971,63.918,35.344,99.693v10.855c-1.373,39.698-16.25,78.651-42.355,108.445
    c-32.076,37.394-80.359,59.939-129.496,60.462c-58.746,0.193-117.559-0.186-176.258,0.095c-6.451,0-13.311-1.413-17.961-6.205
    c-7.383-6.822-7.383-19.663-0.236-26.726c4.459-5.118,11.748-6.205,18.197-6.397c57.996,0,116.035,0.192,173.988-0.092
    c26.959,0,53.969-8.244,76.045-23.455c23.646-16.299,42.121-40.032,51.406-67.281c12.131-34.776,9.289-74.536-8.104-107.084
    c-21.27-41.173-65.002-69.789-111.531-71.779c-8.102-0.335-17.715-0.523-23.457-7.344c-5.016-5.163-5.207-12.84-4.73-19.662
    c5.299-47.954-6.213-97.605-32.033-138.45c-24.688-39.521-62.492-70.834-106.039-87.613
    c-47.244-18.19-100.975-19.656-148.971-3.171c-60.226,20.135-110.159,68.228-133.001,127.456
    c-2.649,8.196-9.568,15.494-18.521,15.873c-7.823,0.897-14.265-4.313-19.67-9.145c-22.934-20.942-56.291-29.33-86.472-22.274
    c-39.939,8.389-72.11,44.255-75.761,85.007c-1.371,8.671,1.28,18.431-4.115,26.061c-4.558,7.108-13.514,8.953-20.898,11.606
    c-34.923,12.274-64.821,38.055-82.211,70.695c-12.649,23.454-18.855,50.469-17.528,76.997
    c1.421,37.809,17.864,74.536,44.965,100.779c27.575,27.486,66.146,42.878,104.948,42.785c52.926,0.093,177.572,0.093,230.452,0.093
    l-1.855,39.326c-51.082-0.095-173.771,0-224.802-0.095c-17.486,0-35.071-1.706-51.887-6.247
    C104.782,706.63,63.038,675.211,38.02,633.38c-16.871-27.679-25.967-59.944-27.341-92.258v-11.183
    c1.232-27.293,7.77-54.491,20.091-78.983c21.416-42.782,59.559-76.664,104.524-92.917c2.366-32.268,16.158-63.63,38.899-86.613
    c22.833-23.405,54.295-38.332,87.092-40.798c30.277-2.604,61.212,5.454,86.607,22.13
    C362.533,223.045,383.001,196.274,407.735,174.2"/>
</g>
</svg>
