<?xml version="1.0" encoding="utf-8"?>
<!-- Generator: Adobe Illustrator 16.0.0, SVG Export Plug-In . SVG Version: 6.00 Build 0)  -->
<!DOCTYPE svg PUBLIC "-//W3C//DTD SVG 1.1//EN" "http://www.w3.org/Graphics/SVG/1.1/DTD/svg11.dtd">
<svg version="1.1" id="图形" xmlns="http://www.w3.org/2000/svg" xmlns:xlink="http://www.w3.org/1999/xlink" x="0px" y="0px"
   width="1000.637px" height="1000.678px" viewBox="0 0 1000.637 1000.678" enable-background="new 0 0 1000.637 1000.678"
   xml:space="preserve">
<g>
  <path d="M458.79,479.376h20.565v-20.565V284.005c0-107.899-87.472-195.37-195.371-195.37s-195.37,87.471-195.37,195.37
    s87.471,195.371,195.37,195.371H458.79z M129.744,284.005c0-85.183,69.057-154.24,154.24-154.24
    c85.184,0,154.24,69.057,154.24,154.24v174.806l20.566-20.566H283.984C198.801,438.245,129.744,369.19,129.744,284.005z"/>
  <path d="M458.79,561.637l-20.566-20.565v174.806c0,85.185-69.056,154.24-154.24,154.24c-85.183,0-154.24-69.056-154.24-154.24
    c0-85.186,69.057-154.24,154.24-154.24H458.79z M88.614,715.877c0,107.9,87.471,195.37,195.37,195.37s195.371-87.47,195.371-195.37
    V541.071v-20.565H458.79H283.984C176.085,520.506,88.614,607.977,88.614,715.877z"/>
  <path d="M541.051,438.245l20.565,20.566V284.005c0-85.183,69.055-154.24,154.24-154.24c85.185,0,154.24,69.057,154.24,154.24
    c0,85.186-69.056,154.24-154.24,154.24H541.051z M911.227,284.005c0-107.899-87.47-195.37-195.37-195.37
    s-195.371,87.471-195.371,195.37v174.806v20.565h20.565h174.806C823.757,479.376,911.227,391.904,911.227,284.005z"/>
  <path d="M911.227,715.877c0-107.9-87.47-195.371-195.37-195.371H541.051h-20.565v20.565v174.806
    c0,107.9,87.471,195.37,195.371,195.37c30.294,0,59.647-6.917,86.262-20.031c10.186-5.021,14.375-17.348,9.355-27.538
    c-5.021-10.19-17.348-14.376-27.535-9.354c-20.99,10.343-44.127,15.794-68.082,15.794c-85.186,0-154.24-69.056-154.24-154.24
    V541.071l-20.565,20.565h174.806c85.185,0,154.24,69.055,154.24,154.24c0,14.998-2.137,29.687-6.29,43.765
    c-3.219,10.893,3.004,22.333,13.896,25.547c10.893,3.217,22.333-3.004,25.547-13.896
    C908.52,753.439,911.227,734.828,911.227,715.877z"/>
</g>
</svg>
