<?xml version="1.0" encoding="utf-8"?>
<!-- Generator: Adobe Illustrator 16.0.0, SVG Export Plug-In . SVG Version: 6.00 Build 0)  -->
<!DOCTYPE svg PUBLIC "-//W3C//DTD SVG 1.1//EN" "http://www.w3.org/Graphics/SVG/1.1/DTD/svg11.dtd">
<svg version="1.1" id="图形" xmlns="http://www.w3.org/2000/svg" xmlns:xlink="http://www.w3.org/1999/xlink" x="0px" y="0px"
   width="1000.637px" height="1000.678px" viewBox="0 0 1000.637 1000.678" enable-background="new 0 0 1000.637 1000.678"
   xml:space="preserve">
<g>
  <path d="M667.11,895.073H333.972c-15.974,0-28.745-12.769-28.745-28.742V386.253
    c0-15.974,12.771-28.759,28.745-28.759h332.677c15.977,0,28.759,12.786,28.759,28.759v480.078
    C695.407,882.305,682.625,895.073,667.11,895.073L667.11,895.073z M362.729,838.03h275.636V415.01H362.729V838.03z"/>
  <path d="M766.6,413.173H234.494c-15.974,0-28.746-12.771-28.746-28.745c0-61.152,23.732-118.194,66.626-161.548
    c42.892-43.353,100.382-66.626,161.548-66.626h133.25c61.138,0,118.181,23.732,161.548,66.626
    c43.339,43.354,66.624,100.396,66.624,161.548C795.345,400.402,782.562,413.173,766.6,413.173z M265.061,356.131h470.498
    C721.869,275.355,651.596,213.3,566.711,213.3H433.923C349.498,213.3,278.751,274.911,265.061,356.131z M852.388,899.642H148.232
    c-9.581,0-17.799-8.215-17.799-17.799v-21.445c0-9.581,8.218-17.799,17.799-17.799h704.155c9.583,0,17.798,8.218,17.798,17.799
    v21.445C870.634,891.427,862.416,899.642,852.388,899.642z M511.034,726.229h-21.448c-9.581,0-17.796-8.219-17.796-17.799V544.599
    c0-9.581,8.215-17.799,17.796-17.799h21.448c9.595,0,17.799,8.218,17.799,17.799v163.832
    C528.833,718.011,521.074,726.229,511.034,726.229z"/>
  <path d="M567.173,158.079H433.449c0-31.488,25.569-57.043,57.043-57.043h19.635
    C541.602,101.036,567.173,126.591,567.173,158.079z M252.737,711.174h-21.446c-9.583,0-17.798-8.215-17.798-17.799V559.666
    c0-9.581,8.215-17.799,17.798-17.799h21.446c9.581,0,17.799,8.218,17.799,17.799v133.709
    C270.536,702.959,262.318,711.174,252.737,711.174z M767.047,711.174h-21.448c-9.581,0-17.799-8.215-17.799-17.799V559.666
    c0-9.581,8.218-17.799,17.799-17.799h21.448c9.581,0,17.799,8.218,17.799,17.799v133.709
    C784.846,702.959,776.628,711.174,767.047,711.174z"/>
</g>
</svg>
