<?xml version="1.0" encoding="utf-8"?>
<!-- Generator: Adobe Illustrator 16.0.0, SVG Export Plug-In . SVG Version: 6.00 Build 0)  -->
<!DOCTYPE svg PUBLIC "-//W3C//DTD SVG 1.1//EN" "http://www.w3.org/Graphics/SVG/1.1/DTD/svg11.dtd">
<svg version="1.1" id="图形" xmlns="http://www.w3.org/2000/svg" xmlns:xlink="http://www.w3.org/1999/xlink" x="0px" y="0px"
   width="1000.637px" height="1000.678px" viewBox="0 0 1000.637 1000.678" enable-background="new 0 0 1000.637 1000.678"
   xml:space="preserve">
<path d="M500.318,899.242c-220.201,0-398.903-178.702-398.903-398.903c0-220.189,178.702-398.903,398.903-398.903
  s398.903,178.714,398.903,398.903C899.222,720.54,720.52,899.242,500.318,899.242z M784.031,362.033
  c-20.753,6.909-44.956-6.92-51.877-27.669c-6.908-24.193,6.909-48.408,31.124-51.877h3.469
  C711.405,216.81,635.364,171.853,545.44,161.479c0,0-0.974,22.271-0.974,49.278c0,27.008-32.514,31.866-43.979,31.866
  c-11.455,0-42.034-7.974-42.034-36.735c0-28.775,0.532-47.875,0.532-47.875c-86.441,10.386-171.455,60.822-226.783,123.047
  l16.788,9.596c16.104,10.738,30.866,30.863,14.766,57.691c-14.935,24.88-50.227,13.686-50.227,13.686l-20.881-10.907
  c-24.204,48.411-37.916,93.911-37.916,149.228c0,176.351,132.291,321.577,301.721,342.327v-41.502
  c0-24.204,20.753-41.499,44.956-41.499c24.204,0,41.499,20.75,41.499,41.499v41.487c169.379-20.735,299.905-165.976,299.905-342.312
  c0-51.876-13.829-103.753-34.578-148.681L784.031,362.033L784.031,362.033z M538.649,308.366v-41.488
  c98.936,15.946,178.717,95.702,194.674,194.66h-41.499C679.072,384.954,618.431,324.326,538.649,308.366z M620.224,502.144
  c0,67.018-54.254,118.049-118.061,118.049c-67.029,0-121.257-54.254-121.257-118.049v-0.078
  c0-66.925,54.254-121.202,121.206-121.202c67.015,0,118.061,54.251,118.061,121.255L620.224,502.144z M500.37,420.572
  c-44.722,0-79.781,35.097-79.781,79.781c0,44.667,35.111,79.767,79.781,79.767s79.781-35.1,79.781-79.767
  c0-44.684-35.111-79.781-79.833-79.781H500.37z M305.696,462.045h-41.499c15.946-98.921,95.701-178.702,194.674-194.659v38.293
  C382.258,321.637,321.642,382.264,305.696,462.045L305.696,462.045z M458.481,690.533v38.293
  c-98.921-15.945-178.702-95.701-194.663-194.662h41.513c12.778,79.781,73.394,140.423,153.175,156.369H458.481z M695.018,533.789
  h41.488c-15.961,98.921-95.768,178.702-194.66,194.686v-38.319C618.431,671.004,679.058,610.374,695.018,533.789L695.018,533.789z"
  />
</svg>
