<?xml version="1.0" encoding="utf-8"?>
<!-- Generator: Adobe Illustrator 16.0.0, SVG Export Plug-In . SVG Version: 6.00 Build 0)  -->
<!DOCTYPE svg PUBLIC "-//W3C//DTD SVG 1.1//EN" "http://www.w3.org/Graphics/SVG/1.1/DTD/svg11.dtd">
<svg version="1.1" id="图形" xmlns="http://www.w3.org/2000/svg" xmlns:xlink="http://www.w3.org/1999/xlink" x="0px" y="0px"
   width="1000.637px" height="1000.678px" viewBox="0 0 1000.637 1000.678" enable-background="new 0 0 1000.637 1000.678"
   xml:space="preserve">
<g>
  <path d="M403.266,879.339c0,0-137.3-4.598-255.714-119.767C47.781,650.963,39.03,559.472,39.03,559.472
    c-3.135-19.956-4.724-40.135-4.724-60.358c0-211.414,171.981-383.42,383.396-383.42c4.814,0,9.85,0.111,15.411,0.331
    c3.179-0.22,6.005-0.331,8.699-0.331h397.879c69.857,0,126.639,56.807,126.639,126.615v72.325
    c0,69.809-56.781,126.593-126.639,126.593h-42.915c2.913,19.118,4.324,38.502,4.324,57.886
    c0,100.761-38.768,195.959-109.193,267.978c-69.897,71.53-163.285,106.126-263.077,108.998
    C420.396,877.811,411.789,879.339,403.266,879.339z M409.409,841.089c6.283,0,22.526-0.5,22.526-0.5
    c180.813-4.36,327.598-168.508,327.598-349.447c0-23.509-2.437-47.018-7.31-69.93l-4.443-21.116h84.12
    c48.304,0,87.542-39.24,87.542-87.543v-70.016c0-48.303-39.238-87.543-87.542-87.543H446.725c-2.01,0-4.189,0.085-6.797,0.257
    l-1.026,0.085h-1.068c-5.259-0.257-9.959-0.343-14.449-0.343c-185.383,0-345.566,150.805-345.566,336.147
    c0,24.235-1.173,48.515,4,72.195l9.278,29.78c0,0,16.279,92.279,106.728,169.728C298.019,841.915,409.409,841.089,409.409,841.089z
    "/>
  <path d="M416.822,210.691c-53.87,12.806-94.582,70.208-94.582,139.089s40.712,126.283,94.582,139.177V210.691z"/>
  <path d="M695.086,494.521c-12.848-53.914-70.25-94.579-139.131-94.579c-68.929,0-126.33,40.709-139.133,94.579
    H695.086z"/>
  <path d="M138.556,494.521c12.85,53.913,70.251,94.537,139.133,94.537c68.926,0,126.327-40.624,139.133-94.537
    H138.556z"/>
  <path d="M416.822,772.786c53.869-12.851,94.578-70.252,94.578-139.133c0-68.883-40.709-126.328-94.578-139.133
    V772.786z"/>
  <path d="M416.669,883.771c-211.414,0-383.443-172.027-383.443-383.442c0-211.415,172.029-383.422,383.443-383.422
    c211.415,0,383.442,172.008,383.442,383.422C800.111,711.744,628.084,883.771,416.669,883.771z M416.668,165.082
    c-184.841,0-335.236,150.395-335.236,335.279c0,184.839,150.396,335.237,335.236,335.237c184.84,0,335.236-150.398,335.236-335.237
    C751.904,315.476,601.508,165.082,416.668,165.082z"/>
</g>
</svg>
