<?xml version="1.0" encoding="utf-8"?>
<!-- Generator: Adobe Illustrator 16.0.0, SVG Export Plug-In . SVG Version: 6.00 Build 0)  -->
<!DOCTYPE svg PUBLIC "-//W3C//DTD SVG 1.1//EN" "http://www.w3.org/Graphics/SVG/1.1/DTD/svg11.dtd">
<svg version="1.1" id="图形" xmlns="http://www.w3.org/2000/svg" xmlns:xlink="http://www.w3.org/1999/xlink" x="0px" y="0px"
   width="1000.637px" height="1000.678px" viewBox="0 0 1000.637 1000.678" enable-background="new 0 0 1000.637 1000.678"
   xml:space="preserve">
<g>
  <path d="M500.292,56.396c-245.169,0-443.955,198.766-443.955,443.933c0,245.319,198.786,443.952,443.955,443.952
    c101.822,0,198.423-34.376,276.457-96.51c9.324-7.413,10.877-21.067,3.465-30.403c-7.488-9.344-21.086-10.894-30.461-3.446
    c-70.398,56.108-157.475,87.117-249.423,87.117c-221.267,0-400.613-179.405-400.613-400.709
    c0-221.229,179.332-400.612,400.613-400.612c221.308,0,400.646,179.384,400.646,400.612c0,75.863-21.076,148.582-60.334,211.586
    c-6.275,10.112-3.176,23.524,6.963,29.835c10.135,6.357,23.463,3.183,29.777-6.94c43.566-69.787,66.92-150.407,66.92-234.479
    C944.281,255.16,745.531,56.396,500.292,56.396z"/>
  <g>
    <path d="M459.211,321.941c7.364,7.354,22.399,7.354,29.765,0l52.12-49.796v226.611
      c0,12.361,10.018,22.378,22.398,22.378c12.363,0,22.379-10.017,22.379-22.378V267.138l57.16,54.804
      c7.344,7.354,22.399,7.354,29.742,0c7.364-7.354,7.364-20.054,0-27.407l-94.572-89.564c-7.345-7.354-22.398-7.354-29.742,0
      l-94.248,89.564C451.847,302.227,451.847,314.588,459.211,321.941z M419.452,664.198c-12.381,0-22.398,10.017-22.398,22.379
      v92.247c0,12.382,10.017,22.399,22.398,22.399c12.363,0,22.379-10.018,22.379-22.399v-92.247
      C444.176,674.215,434.467,664.198,419.452,664.198z"/>
    <path d="M802.805,605.712l-89.575-94.594c-7.364-7.354-20.054-7.354-29.742,0c-7.365,7.364-7.365,22.4,0,29.744
      l57.139,59.831H314.821c-42.451-2.345-77.213-37.433-77.213-82.211c0-44.798,34.408-81.816,79.559-82.23
      c45.151-0.413,79.559,37.433,79.559,82.23v4.999c0,12.383,4.999,22.399,17.362,24.744c10.036,2.326,20.051-2.345,24.744-12.361
      v-2.346c0-7.365,2.326-12.384,2.326-15.036c0-69.869-54.794-124.346-124.316-124.346c-69.523,0-124.011,54.813-124.011,124.673
      c0,32.415,12.363,62.178,34.761,87.23c22.38,22.397,52.143,37.433,82.233,37.433h420.784l-49.795,52.143
      c-7.363,7.363-7.363,22.397,0,29.742c7.344,7.365,20.032,7.365,27.397,0l89.575-94.594
      C810.147,628.438,810.147,615.729,802.805,605.712z"/>
  </g>
</g>
</svg>
