<?xml version="1.0" encoding="utf-8"?>
<!-- Generator: Adobe Illustrator 16.0.0, SVG Export Plug-In . SVG Version: 6.00 Build 0)  -->
<!DOCTYPE svg PUBLIC "-//W3C//DTD SVG 1.1//EN" "http://www.w3.org/Graphics/SVG/1.1/DTD/svg11.dtd">
<svg version="1.1" id="图形" xmlns="http://www.w3.org/2000/svg" xmlns:xlink="http://www.w3.org/1999/xlink" x="0px" y="0px"
   width="1000.637px" height="1000.678px" viewBox="0 0 1000.637 1000.678" enable-background="new 0 0 1000.637 1000.678"
   xml:space="preserve">
<g>
  <path d="M584.913,597.328c-1.414-2.981-4.422-4.882-7.72-4.881H520.53l53.735-89.56c2.427-4.044,1.119-9.291-2.925-11.718
    c-1.327-0.798-2.852-1.221-4.399-1.221h-81.999c-3.491,0-6.635,2.129-7.934,5.372l-61.496,153.747
    c-1.752,4.384,0.38,9.353,4.762,11.101c1.008,0.407,2.086,0.611,3.173,0.611h38.921l-46.915,125.119
    c-1.661,4.416,0.571,9.344,4.984,11.004c3.435,1.293,7.312,0.245,9.63-2.597l153.748-187.915
    C585.899,603.839,586.328,600.31,584.913,597.328z" />
  <rect x="284.21" y="75.816" width="42.777" height="399.399" />
  <rect x="670.08" y="75.816" width="42.774" height="399.399" />
  <path d="M179.467,882.083c-35.388-0.049-64.071-28.706-64.15-64.097V197.635l-21.391,21.39h727.335
    c35.375,0,64.058,28.682,64.058,64.059c0,0.089,0,0.181,0,0.272v546.686c0,11.808,9.578,21.39,21.392,21.39
    c11.815,0,21.39-9.582,21.39-21.39l0,0V283.37c0.157-59.005-47.551-106.966-106.555-107.125c-0.094,0-0.188,0-0.283,0H93.925
    c-11.813,0-21.388,9.579-21.388,21.39v620.352c0.081,59.018,47.916,106.825,106.929,106.875h641.688
    c11.814,0,21.387-9.573,21.387-21.386c0-11.817-9.572-21.393-21.387-21.393l0,0H179.467L179.467,882.083z" />
</g>
</svg>
