<?xml version="1.0" encoding="utf-8"?>
<!-- Generator: Adobe Illustrator 16.0.0, SVG Export Plug-In . SVG Version: 6.00 Build 0)  -->
<!DOCTYPE svg PUBLIC "-//W3C//DTD SVG 1.1//EN" "http://www.w3.org/Graphics/SVG/1.1/DTD/svg11.dtd">
<svg version="1.1" id="图形" xmlns="http://www.w3.org/2000/svg" xmlns:xlink="http://www.w3.org/1999/xlink" x="0px" y="0px"
   width="1000.637px" height="1000.678px" viewBox="0 0 1000.637 1000.678" enable-background="new 0 0 1000.637 1000.678"
   xml:space="preserve">
<g>
  <path d="M500.319,307.204l-17.45,19.932c-87.224,92.211-132.076,161.985-132.076,216.816
    c0,82.232,67.291,149.521,149.525,149.521c82.232,0,149.523-67.289,149.523-149.521c0-54.831-44.852-124.605-132.074-216.816
    L500.319,307.204z M500.319,647.436c-57.031,0-103.684-46.678-103.684-103.682c0-36.299,33.691-93.33,103.684-168.512
    c69.991,75.182,103.682,134.819,103.682,168.512C604.001,603.366,557.35,647.436,500.319,647.436z"/>
  <path d="M790.172,100.032H152.554c-13.049,0-23.572,10.523-23.572,23.513c0,13.049,10.523,23.572,23.572,23.572
    h637.618c50.875,0,92.338,41.433,92.338,92.368v406.847l-91.014-90.984c-9.201-9.2-24.115-9.2-33.316,0
    c-9.199,9.2-9.199,24.083,0,33.285l131.215,131.186c4.42,4.449,10.404,6.916,16.658,6.916c3.098,0,6.135-0.602,9.02-1.805
    c8.781-3.609,14.523-12.208,14.523-21.74V239.485C929.596,162.603,867.055,100.032,790.172,100.032z M848.082,853.529H210.526
    c-50.936,0-92.398-41.434-92.398-92.398V354.284l91.015,91.046c9.2,9.2,24.114,9.2,33.314,0c9.202-9.201,9.202-24.114,0-33.315
    L111.242,280.798c-6.734-6.704-16.899-8.658-25.678-5.111c-8.781,3.669-14.523,12.268-14.523,21.77v463.675
    c0,76.913,62.571,139.515,139.485,139.515h637.556c13.049,0,23.574-10.555,23.574-23.574
    C871.656,864.084,861.131,853.529,848.082,853.529z"/>
</g>
</svg>
