<?xml version="1.0" encoding="utf-8"?>
<!-- Generator: Adobe Illustrator 16.0.0, SVG Export Plug-In . SVG Version: 6.00 Build 0)  -->
<!DOCTYPE svg PUBLIC "-//W3C//DTD SVG 1.1//EN" "http://www.w3.org/Graphics/SVG/1.1/DTD/svg11.dtd">
<svg version="1.1" id="图形" xmlns="http://www.w3.org/2000/svg" xmlns:xlink="http://www.w3.org/1999/xlink" x="0px" y="0px"
   width="1000.637px" height="1000.678px" viewBox="0 0 1000.637 1000.678" enable-background="new 0 0 1000.637 1000.678"
   xml:space="preserve">
<g>
  <path d="M384.235,839.974l-117.95-0.524c-7.877,0-21.649,5.742-21.649,22.009c0,16.271,13.772,21.285,21.649,21.285
    l117.95,0.265c7.877,0,21.441-4.554,21.705-21.55C406.203,844.463,392.112,839.974,384.235,839.974z"/>
  <path d="M671.434,140.2c-150.049,0-279.75,129.952-279.75,280.199v60.646c0,39.087-27.437,63.603-63.175,63.604
    c-35.738,0.001-63.194-24.517-63.194-63.604V139.893c0-7.878-6.787-21.862-21.872-22.215
    c-15.088-0.351-21.424,14.337-21.424,22.215l-0.703,341.253c0,54.838,41.403,107.146,101.839,107.147
    c60.434,0.001,110.418-41.888,111.826-107.147l0.705-60.649c0-134.494,101.454-237,235.75-237
    c134.492,0,236.366,102.506,236.366,237l0.528,160.383c0,7.879,5.229,21.318,21.357,21.582c16.13,0.265,22.466-13.704,22.466-21.68
    l-0.792-160.385C951.361,270.15,821.68,140.2,671.434,140.2z"/>
  <path d="M671.434,312.856c-58.52,0-106.564,52.698-106.564,107.542l-1.058,60.646
    c0,134.592-104.41,237.136-235.399,236.256c-130.988-0.88-225.147-103.136-236.104-234.604L91.78,139.893
    c0-7.878-8.923-21.869-21.621-21.869c-12.699,0-21.674,13.99-21.674,21.869l0.527,341.155c0,150.244,129.155,278.496,279.4,278.496
    c150.345,0,279.388-125.843,279.388-276.089l1.553-63.056c0-38.99,34.541-63.721,62.084-63.721
    c27.545,0,63.977,24.632,63.977,63.721l-1.057,160.386c0,7.877,7.008,21.415,22.245,20.888
    c15.241-0.528,21.051-13.011,21.051-20.888l1.056-160.386C778.705,365.655,729.955,312.856,671.434,312.856z"/>
</g>
</svg>
