<svg enable-background="new 0 0 1000.637 1000.678" height="1000.678" viewBox="0 0 1000.637 1000.678" width="1000.637" xmlns="http://www.w3.org/2000/svg"><path d="m500.317 77.019c-234.747 0-423.326 188.565-423.326 423.313 0 234.749 188.579 423.328 423.326 423.328 234.749 0 423.328-188.579 423.328-423.328.001-234.748-188.579-423.313-423.328-423.313zm211.652 101.977v13.473c0 40.404-3.834 78.893-11.529 117.367-26.945 5.778-46.197 28.862-46.197 55.809 0 15.39 5.778 30.779 17.335 40.404-13.474 30.794-26.946 61.572-46.197 90.435-71.184-80.81-121.214-182.8-138.534-296.32 44.251-26.945 92.366-48.113 142.396-61.571 28.861 9.624 57.723 23.082 82.726 40.403zm-80.811 379.06c34.641 32.712 71.198 61.573 111.603 84.672-40.404 7.696-82.74 11.528-126.993 11.528-19.25 0-38.473-1.918-57.725-1.918 0-3.847 0-7.693-1.917-11.541 26.933-25.016 51.948-53.878 75.032-82.741zm-130.841-442.564c21.168 0 42.336 1.932 63.504 5.778-26.945 11.541-53.893 23.084-80.822 36.558-1.933-13.474-1.933-26.946-1.933-40.404 5.78-1.932 13.474-1.932 19.251-1.932zm103.909 413.701c-21.167 28.862-44.266 53.879-69.268 78.895-9.624-7.695-21.168-11.557-34.641-11.557-25.016 0-46.184 15.403-53.878 38.502-76.962-19.252-150.076-48.114-215.496-88.518 17.306-65.421 46.169-127.008 82.726-180.871 3.862 0 7.695 1.917 13.474 1.917 32.711 0 57.726-25.016 57.726-57.726 0-7.695-1.917-15.39-3.847-23.085 23.098-23.085 46.183-42.335 71.183-61.572 21.167 115.451 75.059 219.359 152.021 304.015zm-431.008 173.177c-34.64-57.726-55.808-123.145-57.726-194.344 23.086 19.251 46.169 38.489 71.185 53.879-7.694 42.336-13.459 86.586-13.459 130.854zm25.001-178.954c-28.861-19.236-53.863-40.405-78.893-63.489 19.252-173.176 153.938-311.71 325.184-338.656 0 21.168 1.93 40.404 3.862 61.572-32.725 23.1-63.504 48.1-92.366 75.046-9.611-5.778-19.251-7.695-28.863-7.695-32.71 0-57.726 25.002-57.726 57.726 0 13.473 5.778 25.001 13.474 36.558-38.489 53.876-67.351 113.518-84.672 178.938zm17.321 234.762c-1.932-21.168-3.848-42.335-3.848-65.418 0-36.572 3.848-73.131 11.542-107.758 69.268 40.392 144.313 71.186 223.205 88.505 0 1.917 0 1.917 1.933 3.847-67.351 44.269-144.313 73.13-227.068 86.589-3.834-1.93-3.834-3.847-5.764-5.765zm284.777 126.979c-94.281 0-178.953-34.626-246.29-90.421 80.81-15.391 153.924-46.183 219.345-90.45 7.694 5.779 17.336 7.694 26.945 7.694 19.253 0 34.641-9.61 46.185-23.083 23.083 1.93 46.182 3.862 69.266 3.862 61.575 0 121.229-7.71 178.955-21.169 13.472 5.763 26.933 13.459 40.404 17.307-65.435 117.381-190.496 196.26-334.81 196.26zm298.238-253.986c-53.862-26.93-103.895-63.502-146.228-105.824 21.167-32.71 38.486-67.351 53.877-101.977h5.765c32.724 0 57.724-25.016 57.724-57.726 0-23.099-13.458-42.336-32.696-51.961 7.696-34.627 11.544-69.268 11.544-105.825 82.74 71.198 134.687 175.092 134.687 292.473 0 38.475-5.778 73.115-15.391 107.757-21.167 9.611-44.252 17.306-69.282 23.083z"/></svg>