<svg enable-background="new 0 0 1000.637 1000.678" height="1000.678" viewBox="0 0 1000.637 1000.678" width="1000.637" xmlns="http://www.w3.org/2000/svg"><path d="m499.299 904.139c-22.194 0-46.421-10.097-64.604-28.266l-312.926-308.916c-34.337-36.341-34.337-94.889 0-131.232l316.961-312.939c16.152-16.138 38.374-26.247 60.568-26.247 22.225 0 46.45 10.108 64.606 28.266l314.973 308.916c34.323 36.342 34.323 94.891 0 131.231l-319.009 312.94c-14.119 16.15-38.345 26.247-60.569 26.247zm1.016-759.889c-13.702 0-25.444 5.87-33.262 15.665l-307.17 303.245c-17.612 21.535-17.612 52.837 0 74.358l307.17 303.258c7.832 9.781 19.56 15.651 33.262 15.651 13.703 0 25.432-5.87 33.264-15.651l307.169-301.311c17.611-21.508 17.611-52.823 0-74.343l-307.169-305.206c-7.817-9.795-19.56-15.666-33.264-15.666zm0 507.517c-84.797 0-151.421-68.656-151.421-151.433 0-82.767 68.644-151.411 151.421-151.411 84.798 0 151.422 68.645 151.422 151.411 0 82.776-66.624 151.433-151.422 151.433zm0-250.635c-54.911 0-99.216 44.286-99.216 99.202 0 54.925 44.305 99.212 99.216 99.212 54.912 0 99.217-44.287 99.217-99.212 0-54.916-44.304-99.202-99.217-99.202z"/></svg>