<svg enable-background="new 0 0 1000.637 1000.678" height="1000.678" viewBox="0 0 1000.637 1000.678" width="1000.637" xmlns="http://www.w3.org/2000/svg"><path d="m830.643 273.016-291.493-162.481c-23.672-13.241-54.005-13.241-77.318 0l-291.118 162.481c-23.673 13.242-38.473 38.113-38.473 64.993v324.962c0 26.886 14.8 51.348 38.473 64.596l291.119 162.481c11.843 6.416 25.151 10.026 38.473 10.026 13.682 0 27.004-3.61 38.474-10.026l291.117-162.481c23.685-13.248 38.473-38.112 38.473-64.596v-324.962c.745-26.88-14.043-51.751-37.727-64.993zm-10.364 389.563c0 10.015-5.543 18.855-14.429 24.071l-291.118 162.466c-8.511 4.828-19.97 4.828-28.482 0l-291.124-162.466c-8.874-4.825-14.421-14.057-14.421-24.071v-324.974c0-10.026 5.548-18.854 14.421-24.071l291.124-162.479c4.437-2.407 9.246-3.612 14.427-3.612 5.182 0 9.992 1.205 14.055 3.612l291.502 162.479c8.875 4.818 14.429 14.044 14.429 24.071v324.974zm-68.05-322.561-234.539 123.571c-2.212 1.2-4.437 2.399-6.661 4.003-6.648 2.412-14.427 2.412-21.076-.404-1.852-1.201-3.703-2.4-5.927-3.6l-227.121-123.57c-11.47-6.422-26.637-2.413-33.291 8.827-5.548 9.225-3.703 20.458 3.697 27.682 1.479 1.604 3.697 3.208 5.921 4.407l23.673 12.844 206.033 113.139c.384.391 1.118.391 1.491.796 6.661 5.216 10.724 13.235 10.724 21.659l1.107 253.155v2.411c0 .393 0 .796.372 1.2v1.2c0 .402.373.808.373 1.2 0 .403 0 .809.36 1.211 0 .404.384.795.384.795 0 .404.361.81.361 1.2 0 .417.373.417.373.808.372.405.372.81.734 1.605v.404c3.701 6.414 10.735 11.239 18.874 12.034h2.585c7.394 0 14.428-3.208 18.865-8.826 3.33-4.018 5.554-9.231 5.554-15.243v-16.051l.745-236.7c0-8.021 3.692-15.243 9.618-20.46.734-.402 1.84-.808 2.574-1.198l237.496-125.972c11.831-6.428 16.279-20.471 9.618-32.103-6.297-12.033-21.086-16.447-32.917-10.024z"/></svg>