<svg enable-background="new 0 0 1000.637 1000.678" height="1000.678" viewBox="0 0 1000.637 1000.678" width="1000.637" xmlns="http://www.w3.org/2000/svg"><g><path d="m500.317 179.837c-153.766 0-275.108 230.997-283.92 531.571v32.95h59.772v-29.438c7.324-111.38 54.691-186.61 97.729-186.61 46.771 0 98.774 88.806 98.774 216.204h59.772c0-155.321-69.486-276.921-158.25-276.921-24.981.412-49.053 9.629-68.139 26.09 41.539-157.459 119.546-252.817 194.261-252.817 121.636 0 224.149 230.694 224.149 503.492h59.773c.002-316.589-125.072-564.521-283.921-564.521z"/><path d="m186.51 759.771c0 33.704 26.758 61.029 59.773 61.029 33.009 0 59.773-27.325 59.773-61.029 0-33.702-26.764-61.028-59.773-61.028-33.014 0-59.773 27.326-59.773 61.028z"/><path d="m440.545 759.771c0 33.704 26.758 61.029 59.772 61.029 33.011 0 59.772-27.325 59.772-61.029 0-33.702-26.762-61.028-59.772-61.028-33.013 0-59.772 27.326-59.772 61.028z"/><path d="m694.58 759.771c-.02 33.704 26.725 61.049 59.734 61.069 33.02.021 59.793-27.298 59.813-61.001 0-.027 0-.048 0-.068 0-33.702-26.766-61.028-59.775-61.028-33.008 0-59.772 27.326-59.772 61.028z"/></g></svg>