<svg enable-background="new 0 0 1000.637 1000.678" height="1000.678" viewBox="0 0 1000.637 1000.678" width="1000.637" xmlns="http://www.w3.org/2000/svg"><path d="m843.592 475.709h57.23v297.108c.363 10.611-12.115 19.428-27.918 19.684-15.801.257-28.916-8.136-29.313-18.746 0-.313 0-.625 0-.938v-297.108zm-114.358 0h57.197v345.771c.393 10.61-12.121 19.415-27.92 19.683-15.801.246-28.916-8.137-29.277-18.746-.039-.313-.039-.626 0-.937zm-114.494 0h57.215v273.147c.377 10.608-12.121 19.414-27.902 19.671-15.803.256-28.932-8.137-29.313-18.748 0-.299 0-.612 0-.923zm-114.426 0h57.211v175.287c.383 10.611-12.115 19.416-27.914 19.685-15.805.246-28.916-8.137-29.297-18.747 0-.313 0-.623 0-.938zm-371.894-316.2c15.8 0 28.615 8.604 28.615 19.214v296.999h-57.228v-296.998c0-10.611 12.812-19.215 28.613-19.215zm228.868 194.536c15.801 0 28.614 8.604 28.614 19.214v102.45h-57.229v-102.449c-.019-10.599 12.78-19.204 28.583-19.214.015-.001.015-.001.032-.001zm-114.441-60.822c15.799-.01 28.614 8.594 28.614 19.193v.011 163.282h-57.23v-163.282c-.001-10.61 12.814-19.204 28.616-19.204zm228.87-12.048c15.799 0 28.613 8.604 28.613 19.215v175.298h-57.229v-175.298c0-10.611 12.815-19.215 28.616-19.215z"/></svg>