<svg height="200" viewBox="0 0 1024 1024" width="200" xmlns="http://www.w3.org/2000/svg"><path d="m645.636115 912.720567c-3.839445.116657-10.883885.324388-20.502963.585332-16.038278.432859-33.360805.873903-51.319829 1.281179-23.088858.524956-45.534056.959861-66.686819 1.280156-38.850843.587378-71.192436.750083-94.788853.388856-13.154601-.195451-23.340591-.555655-30.126134-1.068331-3.066849-.230244-5.254677-.483001-6.219655-.677429.419556.085958 1.044796.257873 2.281972.798179 6.742565 2.961448 12.402471 8.182356 12.402471 19.46533v-84.080977-69.839624-37.269836a22.052249 22.052249 0 0 0 -7.544836-16.612352c-1.39886-1.220804-4.15053-3.692089-8.064676-7.318686-6.599302-6.101975-13.972223-13.157671-21.923312-21.062712-22.740934-22.594601-45.479821-47.371914-66.661236-73.487711-39.209-48.364521-68.375274-95.568612-83.340103-138.868791-7.267521-21.042245-11.000542-40.7194-11.000542-58.818617 0-176.652326 143.204539-319.855842 319.852772-319.855842 176.653349 0 319.858912 143.203516 319.858911 319.855842 0 16.244986-3.291976 33.726126-9.737781 52.30425-15.669888 45.134966-49.047066 94.621031-94.854345 145.251151-23.543206 26.01449-48.828079 50.635237-74.106812 73.054853-8.843412 7.843642-17.043165 14.83794-24.38641 20.884656a495.548306 495.548306 0 0 1 -8.980535 7.258311 22.054295 22.054295 0 0 0 -8.522094 17.417695v102.948697l22.058389-22.061458h-253.67863c-12.18246 0-22.060435 9.875928-22.060435 22.061458 0 12.17939 9.876951 22.059412 22.060435 22.059412h253.67863c12.181437 0 22.058388-9.875928 22.058388-22.059412v-102.950744l-8.514931 17.417695c1.879813-1.471514 5.279237-4.182252 9.971096-8.046256 7.739265-6.374174 16.334014-13.71128 25.588794-21.919219 26.418696-23.420409 52.841485-49.148373 77.555354-76.470649 49.431829-54.638411 85.85232-108.630093 103.812367-160.381757 7.985882-22.997784 12.181437-45.290509 12.181437-66.771753 0-201.016223-162.959465-363.976712-363.977735-363.976712-201.016223 0-363.975688 162.958442-363.975688 363.976712 0 23.350824 4.6366 47.803749 13.422707 73.228815 16.911158 48.957015 48.600905 100.241029 90.768283 152.243403 22.25384 27.438932 46.038546 53.363372 69.830415 77.006861 8.334829 8.28264 16.087397 15.697517 23.060205 22.146393 4.225231 3.91517 7.28901 6.66684 8.992815 8.154727l-7.541767-16.60519v191.190437c0 11.802814 6.188956 17.516956 13.991666 20.935822 2.281973 1.000793 4.455475 1.601474 6.927783 2.091638 3.03001.595564 6.747681 1.02433 11.409864 1.376346 7.856945.594541 18.816554.984421 32.782638 1.196245 24.134677.36225 56.869219.197498 96.125291-.397042 21.270443-.320295 43.818995-.75827 67.016322-1.285273 18.035772-.411369 35.419697-.848321 51.526538-1.286296 9.662057-.26606 16.756639-.469698 20.632922-.586354 12.178367-.36839 21.754466-10.535961 21.38403-22.713305-.369414-12.178367-10.540054-21.754466-22.716374-21.388123zm-270.561136-370.440937 110.295012 110.288873c8.296967 8.29799 21.638833 8.651031 30.356379.803295l110.292965-99.266841c9.05933-8.149611 9.785877-22.102391 1.641383-31.156604-8.153704-9.05933-22.099321-9.785877-31.150464-1.636267l-110.298082 99.261725 30.358425.799202-110.298082-110.295012c-8.616238-8.608052-22.582321-8.608052-31.197536 0-8.614192 8.614192-8.614192 22.587438 0 31.201629zm103.83488 105.724927v187.499371h44.11473v-187.499371z" /></svg>