<svg height="200" viewBox="0 0 1024 1024" width="200" xmlns="http://www.w3.org/2000/svg"><path d="m511.999488 920.199912c-225.333048 0-408.199912-182.866864-408.199912-408.199912 0-225.320769 182.866864-408.199912 408.199912-408.199912 225.332025 0 408.198889 182.879144 408.19889 408.199912.002047 225.333048-182.863794 408.199912-408.19889 408.199912zm290.325272-549.729299c-21.236674 7.070023-46.003753-7.081279-53.086056-28.313859-7.068999-24.756847 7.070023-49.536206 31.849382-53.086056h3.549849c-56.631811-67.207681-134.445038-113.212458-226.464824-123.828236 0 0-.997724 22.790052-.997724 50.426482 0 27.637454-33.271778 32.608675-45.003983 32.608676-11.721973 0-43.013653-8.159844-43.013653-37.591153 0-29.445636.544399-48.990784.544399-48.990785-88.455611 10.628058-175.450964 62.23953-232.06845 125.914758l17.179265 9.819646c16.479323 10.987239 31.585369 31.581276 15.110139 59.034535-15.283078 25.459858-51.3976 14.005992-51.3976 14.005992l-21.367657-11.161201c-24.768103 49.539276-38.799678 96.099708-38.799678 152.705938 0 180.462095 135.3742 329.071737 308.75297 350.305341v-42.469254c0-24.768103 21.236674-42.466184 46.003753-42.466184 24.768103 0 42.466184 21.233604 42.466184 42.466184v42.453904c173.326581-21.218254 306.894645-169.84427 306.894645-350.291015 0-53.085032-14.151301-106.171088-35.383881-152.146189zm-251.100922-54.917774v-42.454927c101.241822 16.317641 182.882214 97.93245 199.211111 199.196784h-42.466184c-13.049201-78.368882-75.103512-140.40989-156.744927-156.741857zm83.476203 198.294229c0 68.580958-55.518454 120.801297-120.812553 120.801296-68.591191 0-124.08304-55.518454-124.083039-120.801296v-.078795c0-68.485791 55.518454-124.026758 124.030851-124.026758 68.576865 0 120.812553 55.515385 120.812553 124.080993zm-122.647341-83.473134c-45.7643 0-81.640392 35.914978-81.640392 81.639369 0 45.708018 35.929304 81.627089 81.640392 81.627089s81.640392-35.919071 81.640392-81.627089c0-45.725414-35.929304-81.639369-81.693604-81.639369zm-199.211111 42.439578h-42.466184c16.317641-101.226472 97.931426-182.866864 199.211111-199.195761v39.184441c-78.398558 16.330944-140.427286 78.370929-156.744927 160.01132zm156.345838 233.813187v39.185464c-101.226472-16.316617-182.867888-97.931426-199.200878-199.198831h42.48051c13.075807 81.640392 75.104535 143.695726 156.744927 160.013367zm242.049778-160.397107h42.454928c-16.33299 101.226472-97.999988 182.866864-199.196785 199.223391v-39.211047c78.369905-19.599384 140.40989-81.642438 156.741857-160.012344z" /></svg>