<svg height="200" viewBox="0 0 1024 1024" width="200" xmlns="http://www.w3.org/2000/svg"><path d="m788.352537 951.931614h-552.705074c-69.26555 0-125.613906-56.351426-125.613906-125.616975v-226.108715h-12.56313c-48.486294 0-87.929632-39.437198-87.929632-87.931678 0-24.197098 9.718339-46.783513 27.405164-63.611783l396.191414-344.739579c20.020986-20.125363 48.363498-31.854499 78.510098-31.854498 30.145577 0 58.490136 11.728112 79.796394 33.035394l396.62018 344.586082c17.545608 17.96721 26.397207 39.698141 26.397206 62.585407 0 48.457642-39.437198 87.931678-87.935771 87.931679h-12.559037v226.108714c.001023 69.264527-56.350402 125.615952-125.613906 125.615952zm-276.708136-833.582159c-16.900925 0-32.763195 6.570649-44.718481 18.501376l-400.658146 348.70182c-6.850012 6.551206-11.087523 16.320711-11.087522 26.726712 0 20.986987 17.076934 38.069037 38.06699 38.069037h63.447031v279.16714c0 41.97602 34.160008 76.133981 76.132958 76.133982h558.333258c41.977044 0 76.132958-34.154891 76.132958-76.133982v-279.16714h63.449078c20.999266 0 38.074154-17.081027 38.074153-38.068014 0-9.871835-3.811816-19.237133-10.784624-26.421766l-400.379806-347.794148c-13.247722-13.143345-29.115108-19.715017-46.007847-19.715017zm18.396999 629.046786v-41.705867c18.038842-2.636037 45.728484-10.937097 60.036351-24.987091 14.303774-14.018272 21.553898-33.213449 21.553899-57.510831 0-24.607444-6.885827-43.639916-20.853957-57.131186-13.96199-13.4575-35.772738-25.51-65.506947-36.154431-19.621896-6.927783-32.989345-13.979386-40.188304-21.248953-7.161097-7.251148-10.789741-16.974603-10.78974-29.140691 0-12.969383 3.448542-23.174815 10.375301-30.553876 6.913457-7.377014 17.552771-11.112082 31.928177-11.112082 13.818727 0 24.537859 5.375427 32.147164 15.262612 7.579629 9.848299 11.405771 23.685445 11.405771 41.724287h50.164516c0-36.080753-8.92937-50.691519-22.012339-67.072605-13.020548-16.385179-22.188348-26.734898-58.265009-30.343075v-46.902217h-36.085869v46.469358c-18.039865 2.920516-39.489386 11.601222-53.233412 26.030863-13.783934 14.449084-18.706037 33.409924-18.706037 56.899918 0 24.733311 8.097422 43.940768 22.419615 57.619302 14.304797 13.677511 36.804231 25.579585 66.531276 35.666314 18.388812 6.495948 31.531134 13.495362 38.991036 21.034059 7.470135 7.540743 11.323906 17.320481 11.323906 29.330003 0 13.135158-4.071735 23.364127-12.376888 30.682813-8.292873 7.325849-20.236903 10.983145-35.83823 10.983145-14.647605 0-26.682709-7.824199-36.175921-16.071024-9.451256-8.188496-14.161534-10.011005-14.161534-46.088688h-50.362015c0 36.077683 6.116301 57.307194 21.920242 72.463382 15.819291 15.099906 41.636283 27.729551 59.672055 30.337959v41.509393h36.08894z" /></svg>