<svg height="200" viewBox="0 0 1024 1024" width="200" xmlns="http://www.w3.org/2000/svg"><path d="m966.425212 150.597927h-590.227666c-12.359492 0-22.856567 9.949606-22.856567 22.85759v328.049455h-295.78154c-12.909008 0-22.834055 10.222829-22.834055 22.859637v326.70176c0 12.380982 9.92607 22.335704 22.834055 22.335704h809.637817a22.274306 22.274306 0 0 0 22.334681-22.335704v-180.158173h76.887135c12.656251 0 22.856567-10.478655 22.856567-22.856567v-474.596112c.005117-12.902868-10.200316-22.857591-22.850427-22.85759zm-122.332163 677.611875h-763.678066v-280.993742h763.677043zm-150.051481-344.45203c10.743692-3.750417 20.700461-9.67536 29.033243-16.950044l26.90272 15.338337c10.477632 5.931083 24.202215 2.433422 30.379915-8.340969 6.460132-10.498098 2.958378-24.993231-8.0657-31.443129l-26.351158-14.816451c1.063215-5.631254 1.607614-11.539824 1.607614-16.380062 0-5.9055-.544399-11.833513-1.607614-17.466814l26.351158-14.795984c11.022031-6.450922 14.522762-20.963451 8.0657-31.197536-5.92392-11.018961-19.899212-14.517645-30.379915-8.580423l-26.90272 15.582907c-8.332782-7.519254-18.289552-13.45136-29.033243-16.94595v-30.933523c0-11.836583-10.225899-22.308075-22.856567-22.308076-12.08627 0-22.313192 10.470469-22.313192 22.308076v30.929429c-11.287067 3.499707-20.969591 9.431813-29.334096 16.949021l-26.582425-15.585977c-10.248412-6.472412-24.223704-2.437515-30.677696 8.586563-6.448876 10.227945-2.951215 24.749684 8.069792 31.197536l26.90272 14.795984c-1.641383 5.627161-2.163269 11.56336-2.163269 17.466813 0 4.839215.525979 10.742668 2.163269 16.380063l-26.90272 14.81645c-10.748808 6.449899-14.520715 20.945031-8.069792 31.17093 6.455015 11.04352 19.905352 14.544251 30.677696 8.613169l26.582425-15.338337c8.364505 7.274684 18.040888 13.199627 29.334096 16.950044v17.742083h-97.334839c-8.611122-11.292184-16.131399-24.198122-20.970614-37.629016-5.932106-16.695241-9.701966-34.95921-9.701966-53.772694 0-41.152259 16.680914-78.798671 44.100404-105.678878 27.152407-27.174919 64.799842-44.095287 106.223276-44.095287 41.672098 0 79.317487 16.920368 106.743117 44.095287 26.90272 26.881231 44.10552 64.527642 44.10552 105.678878 0 18.813484-4.050246 37.074384-9.952676 53.772694-4.573155 13.430894-12.088316 26.336832-20.972661 37.629016h-97.064686zm-.520863-51.351551c-5.658883 5.641487-12.930497 8.886391-20.99722 9.136077h-2.130523c-8.372691-.249687-15.591093-3.494591-21.246907-9.136077-1.343601-1.364067-2.984984-3.744277-4.573155-5.924943l-.26606-.249687c-2.436492-4.569062-4.052293-10.225899-4.052293-15.066137 0-5.385661 1.6158-10.469446 3.503801-15.068184h.272199l.277316-1.066285.515747-.549515v-.243547c1.338485-1.907443 2.978844-4.045129 4.317328-5.408174 5.658883-5.634324 13.157671-8.339946 21.516037-8.861831h1.86651c8.067746 0 15.33629 3.227508 20.998243 8.861831 5.362124 5.408173 8.584516 13.198603 8.584516 22.335705 0 4.560876-1.337461 9.955746-3.219321 14.517645h-.523933v.796132c-1.910513 2.184759-3.500731 4.562922-4.842285 5.92699zm250.590292 193.337333h-54.57906v-101.378945c0-12.636808-9.950629-22.859637-22.334681-22.859637h-22.585391c3.773953-7.52437 7.27366-14.798031 10.228969-22.314215 7.788383-21.248953 12.356422-44.650943 12.356422-69.094658 0-53.532217-22.315238-102.173031-57.007365-137.939629h-.523933c-35.486212-35.221176-83.884502-57.550741-138.480957-57.550741-53.777811 0-102.450347 22.329565-138.213875 57.550741-35.236526 35.766598-57.525158 84.405365-57.525158 137.939629 0 24.444738 4.567016 47.846728 12.359492 69.094658 2.681062 7.516184 6.455015 14.789844 9.930163 22.314215h-98.92301v-305.708634h545.305547v429.947216zm-817.70761 141.981688h662.813844c12.901845 0 22.862707-10.506285 22.862707-22.856567 0-12.93152-9.957793-22.865777-22.862707-22.865777h-662.813844c-12.360516 0-22.314215 9.934257-22.314215 22.865777 0 12.353352 9.954723 22.856567 22.314215 22.856567z" /></svg>