<svg height="200" viewBox="0 0 1024 1024" width="200" xmlns="http://www.w3.org/2000/svg"><path d="m511.972882 57.710376c-250.882957 0-454.301903 203.39848-454.301903 454.279391 0 251.036453 203.418946 454.298833 454.301903 454.298833 104.195084 0 203.047486-35.177174 282.900162-98.759281 9.541307-7.585769 11.130502-21.557992 3.545756-31.111578-7.662517-9.561773-21.577434-11.147898-31.17093-3.526313-72.03871 57.415664-161.145144 89.147366-255.236102 89.147366-226.423893 0-409.949766-183.586249-409.949766-410.048004 0-226.385007 183.511547-409.948743 409.949766-409.948743 226.465848 0 409.983535 183.564759 409.983535 409.948743 0 77.631078-21.567201 152.044882-61.740156 216.517266-6.421246 10.347672-3.25002 24.072255 7.125281 30.53034 10.371208 6.505158 24.009833 3.257184 30.470989-7.101745 44.581358-71.41347 68.479651-153.912415 68.479651-239.943814-.021489-250.886027-203.403596-454.28246-454.358186-454.282461zm-42.038442 271.733845c7.535627 7.525394 22.921036 7.525394 30.458709 0l53.33472-50.956556v231.892441c0 12.649088 10.251481 22.899546 22.920012 22.899546 12.651135 0 22.900569-10.250458 22.900569-22.899546v-237.016135l58.492182 56.081273c7.515161 7.525394 22.921036 7.525394 30.435173 0 7.535627-7.525394 7.535627-20.521383 0-28.045753l-96.776113-91.651396c-7.516184-7.525394-22.920012-7.525394-30.435173 0l-96.444563 91.651396c-2.421142 7.871271-2.421142 20.520359 5.114484 28.04473zm-40.685631 350.233709c-12.669554 0-22.920012 10.250458-22.920012 22.90057v94.396927c0 12.670577 10.250458 22.921036 22.920012 22.921035 12.651135 0 22.900569-10.251481 22.90057-22.921035v-94.396927c2.399653-12.650111-7.535627-22.900569-22.90057-22.90057zm392.287501-59.849086-91.662652-96.798626c-7.535627-7.525394-20.521383-7.525394-30.435173 0-7.53665 7.535627-7.53665 22.922059 0 30.437219l58.470693 61.225433h-435.72992c-43.440371-2.399653-79.012541-38.305421-79.012541-84.127026 0-45.842071 35.20992-83.72282 81.413218-84.146468 46.203298-.422625 81.413218 38.305421 81.413218 84.146468v5.115508c0 12.671601 5.115508 22.921036 17.766642 25.320689 10.269901 2.38021 20.518313-2.399653 25.320688-12.649088v-2.400677c0-7.53665 2.38021-12.672624 2.380211-15.386432 0-71.497381-56.07104-127.244033-127.213334-127.244032-71.143317 0-126.901225 56.090483-126.901225 127.578653 0 33.17047 12.651135 63.627133 35.571147 89.263 22.901593 22.918989 53.358255 38.305421 84.149539 38.305421h430.590875l-50.955532 53.358255c-7.534604 7.534604-7.534604 22.918989 0 30.435173 7.515161 7.53665 20.49887 7.53665 28.03552 0l91.662653-96.798626c12.649088-2.379187 12.649088-15.384385 5.135973-25.634844z" /></svg>