<svg height="200" viewBox="0 0 1024 1024" width="200" xmlns="http://www.w3.org/2000/svg"><path d="m511.999488 43.427068-425.925622 234.285955v468.572931l425.925622 234.286978 425.926646-234.286978v-468.572931zm74.496692 660.211577c0-18.961864-7.249101-36.058241-18.961864-49.201585l96.1652-158.729118c10.324136 5.491061 22.038946 8.933463 34.55705 8.933463 13.58132 0 26.139334-3.8814 37.120432-10.323113l126.881783 209.320353zm-424.864454 0 126.84392-209.320353c11.021008 6.296403 23.573905 10.323113 37.156248 10.323113 12.521175 0 24.125467-3.443425 34.559097-8.933463l96.1652 158.729118c-11.605316 13.143345-18.961864 30.239721-18.961864 49.201585zm462.935537-266.135336c.950651 9.810437 3.770883 18.961864 8.200776 27.309996l-101.328803 167.257351c-6.188956-1.645476-12.631692-2.927679-19.439748-2.927679s-13.253862 1.172709-19.439748 2.927679l-101.328803-167.257351c4.430916-8.347109 7.250124-17.570167 8.200776-27.309996zm8.457626-42.647309h-242.049778c-6.075369-11.237949-14.753005-20.756743-25.4046-27.530007l146.428977-241.643526 146.428978 241.643526c-10.653641 6.773264-19.328207 16.292058-25.403577 27.530007zm-504.450047-91.956342 339.129814-186.515974-145.001465 239.486396c-39.71963 1.609661-71.565942 34.043351-71.565942 74.239841 0 11.345396 2.781346 22.146393 7.356548 31.774681l-129.918955 214.114543zm383.424646 629.058043-337.590761-185.671747h276.56692c13.470803 19.329231 35.727713 31.995715 61.024865 31.995715 25.294083 0 47.554062-12.666484 61.024865-31.995715h276.568966zm253.616209-470.072075c4.576225-9.739828 7.393387-20.429285 7.393387-31.774681 0-40.196491-31.885198-72.630181-71.602781-74.239842l-145.257292-239.486396 339.129814 186.515974v373.098464z" /></svg>