<svg height="200" viewBox="0 0 1024 1024" width="200" xmlns="http://www.w3.org/2000/svg"><path d="m660.609131 275.16192v37.400818c0 11.625782-9.981329 21.591761-21.605064 21.591761h-15.795754c-11.623735 0-21.605064-9.965979-21.605064-21.591761v-37.400818h-1.658779c-19.950378 0-38.239929-14.973016-39.883359-34.086329-1.675152-22.427802 15.779382-41.540092 37.386492-41.540092h65.659418c19.932981 0 38.22458 14.95869 39.881313 34.068933 1.658779 22.445198-15.793708 41.557488-37.386492 41.557488zm-240.850463 0v37.400818c0 11.625782-9.982352 21.591761-21.607111 21.591761h-15.796778c-11.624758 0-21.60711-9.965979-21.60711-21.591761v-37.400818h-1.657756c-19.949354 0-38.22458-14.973016-39.884382-34.086329-1.674129-22.427802 15.796778-41.540092 37.404911-41.540092h65.642023c19.932981 0 38.22458 14.95869 39.884382 34.068933 1.656733 22.445198-15.780405 41.557488-37.387515 41.557488zm-226.878241-217.315444h638.239146c23.25054 0 42.377156 19.11229 42.377156 42.385343v823.543525c0 23.267936-19.126616 42.379203-42.377156 42.379203h-638.239146c-23.249517 0-42.37818-19.111267-42.37818-42.379203v-822.714647c0-24.101931 19.129686-43.214221 42.37818-43.214221zm55.614645 51.497885h-43.780109v495.312945h619.189278v-495.312945zm-43.780109 540.269857v258.366395h619.189278v-258.366395h-619.189278c0-.87288 0-.87288 0 0zm393.858276-282.210454h66.481134c10.80509 0 22.443152 3.316535 29.915334 11.624759 9.967002 9.145287 14.134929 21.60711 12.461822 34.084283l-9.964955 117.167536c-1.660826 21.60711-19.950378 39.059598-42.379203 39.059598h-47.382147c-22.430872 0-40.72247-16.616446-42.36283-39.059598l-9.983375-115.507734c-.821715-13.298887 3.317559-26.597775 13.298887-35.743062 9.130961-7.472182 19.934005-11.625782 29.915333-11.625782zm-.819668 42.377157 4.137227 117.167536h60.668755l3.329838-116.330472h-68.13582z" /></svg>