<svg enable-background="new 0 0 980 400" viewBox="0 0 980 400" xmlns="http://www.w3.org/2000/svg"><path d="m587.95 224.14.41-8.93c.04-.89 1.03-1.41 1.78-.92l7.53 4.82c.75.48.7 1.6-.09 2.01l-7.94 4.12c-.79.4-1.73-.2-1.69-1.1z" fill="none" stroke="#fff" stroke-miterlimit="10"/><path d="m517.24 183.53-8.45-4.88c-.62-.36-.62-1.25 0-1.6l8.45-4.88c.62-.36 1.39.09 1.39.8v9.75c0 .72-.77 1.16-1.39.81z" fill="none" stroke="#fff" stroke-miterlimit="10"/><path d="m718.25 135.14-8.56 2.59c-.85.26-1.67-.51-1.46-1.38l2.04-8.71c.2-.87 1.27-1.19 1.92-.58l6.52 6.12c.65.61.39 1.7-.46 1.96z" fill="none" stroke="#fff" stroke-miterlimit="10"/><path d="m860.63 211.23-8.92.68c-.89.07-1.52-.85-1.13-1.66l3.87-8.06c.39-.81 1.5-.89 2-.15l5.05 7.38c.51.74.02 1.75-.87 1.81z" fill="none" stroke="#fff" stroke-miterlimit="10"/><path d="m402.99 100.36c-2.02.11-3.41-2-2.49-3.81.91-1.81 3.44-1.95 4.55-.25 1.1 1.69-.04 3.94-2.06 4.06z" fill="none" stroke="#fff" stroke-miterlimit="10"/><path d="m202.63 55.99-8.29-3.36c-.83-.34-.98-1.44-.28-1.99l7.05-5.5c.7-.55 1.74-.13 1.86.75l1.23 8.86c.13.89-.75 1.58-1.57 1.24z" fill="none" stroke="#fff" stroke-miterlimit="10"/><path d="m118.56 181.33-8.93.5c-.89.05-1.5-.88-1.1-1.68l4.03-7.98c.4-.8 1.52-.86 2.01-.11l4.9 7.48c.49.75-.02 1.74-.91 1.79z" fill="none" stroke="#fff" stroke-miterlimit="10"/><path d="m455.67 273.18-8.91.78c-.89.08-1.53-.84-1.15-1.64l3.78-8.11c.38-.81 1.49-.91 2-.18l5.13 7.32c.51.74.04 1.75-.85 1.83z" fill="none" stroke="#fff" stroke-miterlimit="10"/><path d="m109.17 292.37-3.78 8.11c-.38.81-1.49.91-2 .18l-5.13-7.32c-.51-.73-.04-1.74.85-1.82l8.91-.78c.88-.09 1.52.82 1.15 1.63z" fill="none" stroke="#fff" stroke-miterlimit="10"/><path d="m408.48 186.31c-2.67-1.08-3.17-4.65-.89-6.42 2.27-1.77 5.61-.42 6.01 2.43.39 2.86-2.45 5.08-5.12 3.99z" fill="none" stroke="#fff" stroke-miterlimit="10"/><path d="m656.48 204.31c-2.67-1.08-3.17-4.65-.89-6.42 2.27-1.77 5.61-.42 6.01 2.43.39 2.86-2.45 5.08-5.12 3.99z" fill="none" stroke="#fff" stroke-miterlimit="10"/><path d="m291.02 306.66c6.04 0 11.73.67 16.03 1.89 1.95.56 3.55 1.21 4.61 1.89 1.01.65 1.16 1.07 1.18 1.12-.01.05-.16.47-1.18 1.12-1.06.68-2.66 1.34-4.61 1.89-4.3 1.22-9.99 1.89-16.03 1.89s-11.73-.67-16.03-1.89c-1.95-.56-3.55-1.21-4.61-1.89-1.01-.65-1.16-1.07-1.18-1.12.01-.05.16-.47 1.18-1.12 1.06-.68 2.66-1.34 4.61-1.89 4.3-1.22 9.99-1.89 16.03-1.89m0-2.18c-13.25 0-24 3.17-24 7.09s10.75 7.09 24 7.09 24-3.17 24-7.09-10.74-7.09-24-7.09zm-21.82 6.97h-2.18v34.96h2.18zm45.82-.02h-2.18v34.96h2.18zm-2.18 34.96v.03c-.01.05-.16.47-1.18 1.12-1.06.68-2.66 1.34-4.61 1.89-4.3 1.22-9.99 1.89-16.03 1.89s-11.73-.67-16.03-1.89c-1.95-.56-3.55-1.21-4.61-1.89-1.01-.65-1.16-1.07-1.18-1.12v-.02l-2.18.02v.01c0 3.92 10.75 7.09 24 7.09s24-3.17 24-7.09v-.02zm0-11.48v.03c-.01.05-.16.47-1.18 1.12-1.06.68-2.66 1.34-4.61 1.89-4.3 1.22-9.99 1.89-16.03 1.89s-11.73-.67-16.03-1.89c-1.95-.56-3.55-1.21-4.61-1.89-1.01-.65-1.16-1.07-1.18-1.12v-.02l-2.18.02v.01c0 3.92 10.75 7.09 24 7.09s24-3.17 24-7.09v-.02zm0-12.08v.03c-.01.05-.16.47-1.18 1.12-1.06.68-2.66 1.34-4.61 1.89-4.3 1.22-9.99 1.89-16.03 1.89s-11.73-.67-16.03-1.89c-1.95-.56-3.55-1.21-4.61-1.89-1.01-.65-1.16-1.07-1.18-1.12v-.02l-2.18.02v.01c0 3.92 10.75 7.09 24 7.09s24-3.17 24-7.09v-.02zm0 0" fill="#fff"/><path d="m622 335.33h16c.74 0 1.33-.6 1.33-1.33v-16c0-.74-.6-1.33-1.33-1.33h-16c-.74 0-1.33.6-1.33 1.33v16c0 .74.59 1.33 1.33 1.33zm1.33-16h13.33v13.33h-13.33zm0 0" fill="#fff"/><path d="m652.67 324c.74 0 1.33-.6 1.33-1.33 0-.74-.6-1.33-1.33-1.33h-4.67v-4h4.67c.74 0 1.33-.6 1.33-1.33 0-.74-.6-1.33-1.33-1.33h-4.67v-5.33c0-.74-.6-1.33-1.33-1.33h-5.33v-4.67c0-.74-.6-1.33-1.33-1.33-.74 0-1.33.6-1.33 1.33v4.65h-4v-4.67c0-.74-.6-1.33-1.33-1.33-.74 0-1.33.6-1.33 1.33v4.67h-4v-4.67c0-.74-.6-1.33-1.33-1.33-.74 0-1.33.6-1.33 1.33v4.67h-4v-4.67c0-.74-.6-1.33-1.33-1.33-.74 0-1.33.6-1.33 1.33v4.67h-5.33c-.74 0-1.33.6-1.33 1.33v5.33h-4.67c-.74 0-1.33.6-1.33 1.33 0 .74.6 1.33 1.33 1.33h4.63v4h-4.67c-.74 0-1.33.6-1.33 1.33 0 .74.6 1.33 1.33 1.33h4.67v4h-4.67c-.74 0-1.33.6-1.33 1.33 0 .74.6 1.33 1.33 1.33h4.67v4h-4.67c-.74 0-1.33.6-1.33 1.33 0 .74.6 1.33 1.33 1.33h4.67v5.33c0 .74.6 1.33 1.33 1.33h5.33v4.67c0 .74.6 1.33 1.33 1.33.74 0 1.33-.6 1.33-1.33v-4.63h4v4.67c0 .74.6 1.33 1.33 1.33.74 0 1.33-.6 1.33-1.33v-4.67h4v4.67c0 .74.6 1.33 1.33 1.33.74 0 1.33-.6 1.33-1.33v-4.67h4v4.67c0 .74.6 1.33 1.33 1.33.74 0 1.33-.6 1.33-1.33v-4.67h5.33c.74 0 1.33-.6 1.33-1.33v-5.33h4.67c.74 0 1.33-.6 1.33-1.33 0-.74-.6-1.33-1.33-1.33h-4.63v-4h4.67c.74 0 1.33-.6 1.33-1.33 0-.74-.6-1.33-1.33-1.33h-4.67v-4h4.67zm-7.34 17.33h-30.67v-30.67h30.67zm0 0" fill="#fff"/><path d="m239 314s-30.7-41.27-67-57c-30-13-69-7-69-7" fill="none" stroke="#fff" stroke-miterlimit="10"/><path d="m278.5 290.5-4-94" fill="none" stroke="#fff" stroke-miterlimit="10"/><path d="m342.5 290.5s21.13-41.15 38.5-57.5c17-16 38.5-23.5 38.5-23.5" fill="none" stroke="#fff" stroke-miterlimit="10"/><path d="m597.5 279.5s-10.5-27.5-33.5-44.5-55.5-25.5-55.5-25.5" fill="none" stroke="#fff" stroke-miterlimit="10"/><path d="m641.5 278.5 23-93" fill="none" stroke="#fff" stroke-miterlimit="10"/><path d="m669.5 306.5s28.5-42.5 60.5-55.5 85.5-13.5 85.5-13.5" fill="none" stroke="#fff" stroke-miterlimit="10"/><path d="m564 322s-58-14-108-15-111 15-111 15" fill="none" stroke="#fff" stroke-miterlimit="10"/><path d="m564 338s-59 16-108 15-111-15-111-15" fill="none" stroke="#fff" stroke-miterlimit="10"/><path d="m226.5 139.5h7v7h-7z" fill="none" stroke="#fff" stroke-miterlimit="10" transform="matrix(.866 -.5 .5 .866 -40.6858 134.1584)"/><path d="m333.5 107.5h12v12h-12z" fill="none" stroke="#fff" stroke-miterlimit="10"/><path d="m278.5 146.5h12v12h-12z" fill="none" stroke="#fff" stroke-miterlimit="10" transform="matrix(.7499 .6615 -.6615 .7499 172.0244 -150.0653)"/><path d="m746.5 301.5h13v13h-13z" fill="none" stroke="#fff" stroke-miterlimit="10"/><path d="m687.5 33.5h7v7h-7z" fill="none" stroke="#fff" stroke-miterlimit="10"/><path d="m148.5 298.5h16v16h-16z" fill="none" stroke="#fff" stroke-miterlimit="10" transform="matrix(.7455 .6666 -.6666 .7455 244.1332 -26.2986)"/><path d="m361.5 196.5h7v7h-7z" fill="none" stroke="#fff" stroke-miterlimit="10" transform="matrix(.8965 -.4429 .4429 .8965 -50.8293 182.366)"/><path d="m293.5 219.5h7v7h-7z" fill="none" stroke="#fff" stroke-miterlimit="10" transform="matrix(.9065 .4222 -.4222 .9065 121.9129 -104.5401)"/><path d="m567.82 161.96c-.19 0-.37-.04-.51-.11-.25-.13-.23-.33.05-.46.09-.03 2.04-.88.72-1.68-1.98-1.21-.42-2.56-.35-2.62.19-.16.6-.21.94-.12.33.08.45.28.27.44-.05.04-1.18 1.04.24 1.92 1.67 1.03.15 2.12-.9 2.55-.14.05-.3.08-.46.08zm7.74 0c-.19 0-.37-.04-.51-.11-.25-.13-.23-.33.05-.46.09-.03 2.04-.88.72-1.68-1.98-1.21-.42-2.56-.35-2.62.18-.16.6-.21.94-.12.33.08.45.28.27.44-.05.04-1.18 1.04.24 1.92 1.67 1.03.15 2.12-.9 2.55-.14.05-.3.08-.46.08zm7.73 0c-.19 0-.37-.04-.51-.11-.25-.13-.23-.33.05-.46.09-.03 2.04-.88.72-1.68-1.98-1.21-.42-2.56-.35-2.62.18-.16.6-.21.94-.12.33.08.45.28.27.44-.05.04-1.18 1.04.24 1.92 1.67 1.03.15 2.12-.9 2.55-.14.05-.3.08-.46.08z" fill="#fff"/><path d="m591.61 171.42h-4.2c-.35 0-.63-.28-.63-.63v-3.5c0-.35.28-.63.63-.63h4.2c.35 0 .63.28.63.63v3.5c0 .35-.29.63-.63.63zm-3.57-1.26h2.94v-2.25h-2.94zm-6.69-1.09h-4.34c-.35 0-.63-.28-.63-.63s.28-.63.63-.63h4.34c.35 0 .63.28.63.63s-.28.63-.63.63zm-10.65 0h-3.79c-.35 0-.63-.28-.63-.63s.28-.63.63-.63h3.79c.35 0 .63.28.63.63s-.28.63-.63.63zm10.65 14.23h-4.34c-.35 0-.63-.28-.63-.63s.28-.63.63-.63h4.34c.35 0 .63.28.63.63s-.28.63-.63.63zm-10.65 0h-3.79c-.35 0-.63-.28-.63-.63s.28-.63.63-.63h3.79c.35 0 .63.28.63.63s-.28.63-.63.63z" fill="#fff"/><path d="m564.05 187.61h-.68c-1.73 0-3.14-1.41-3.14-3.14v-17.83c0-1.73 1.41-3.14 3.14-3.14h.68c1.73 0 3.14 1.41 3.14 3.14v17.83c0 1.73-1.41 3.14-3.14 3.14zm-.68-22.86c-1.04 0-1.88.84-1.88 1.88v17.83c0 1.04.84 1.88 1.88 1.88h.68c1.04 0 1.88-.84 1.88-1.88v-17.83c0-1.04-.84-1.88-1.88-1.88zm11.1 22.86h-.68c-1.73 0-3.14-1.41-3.14-3.14v-17.83c0-1.73 1.41-3.14 3.14-3.14h.68c1.73 0 3.14 1.41 3.14 3.14v17.83c0 1.73-1.4 3.14-3.14 3.14zm-.67-22.86c-1.04 0-1.88.84-1.88 1.88v17.83c0 1.04.84 1.88 1.88 1.88h.68c1.04 0 1.88-.84 1.88-1.88v-17.83c0-1.04-.84-1.88-1.88-1.88zm11.09 22.86h-.68c-1.73 0-3.14-1.41-3.14-3.14v-17.83c0-1.73 1.41-3.14 3.14-3.14h.68c1.73 0 3.14 1.41 3.14 3.14v17.83c.01 1.73-1.4 3.14-3.14 3.14zm-.67-22.86c-1.04 0-1.88.84-1.88 1.88v17.83c0 1.04.84 1.88 1.88 1.88h.68c1.04 0 1.88-.84 1.88-1.88v-17.83c0-1.04-.84-1.88-1.88-1.88z" fill="#fff"/><path d="m349.02 157.12-.65.74c-3.25 3.44-4.92 6.04-4.92 8.08 0 3.06 2.51 5.57 5.57 5.57s5.57-2.51 5.57-5.57c0-2.04-1.67-4.64-4.92-8.08zm0 12.69c-2.13 0-3.86-1.74-3.86-3.86 0-1.35 1.26-3.48 3.86-6.28 2.61 2.8 3.86 5.02 3.86 6.28 0 2.21-1.73 3.86-3.86 3.86z" fill="#fff"/><path d="m359.82 149.4h-23.77c-.49 0-.88.39-.88.88s.39.88.88.88h23.77c1.9 0 3.44 1.54 3.44 3.44v15.16l-3.39-3.39c-.34-.34-.9-.34-1.24 0s-.34.9 0 1.24l4.89 4.89c.16.17.39.26.62.26.12 0 .23-.02.34-.07.33-.13.54-.46.54-.81v-17.28c0-2.87-2.33-5.2-5.2-5.2zm2.16 28.09h-23.76c-1.9 0-3.44-1.54-3.44-3.44v-15.16l3.39 3.39c.34.34.9.34 1.24 0s.34-.9 0-1.24l-4.89-4.89c-.25-.25-.63-.32-.96-.19-.33.14-.54.46-.54.81v17.28c0 2.87 2.33 5.2 5.2 5.2h23.76c.49 0 .88-.39.88-.88s-.39-.88-.88-.88z" fill="#fff"/><path d="m211.32 196.15c-.08-2.13-1.83-3.81-3.96-3.81h-.08-.08-27.12c-.15 0-.38.08-.53.23-.08.15-.23.3-.23.53v27.2c.08 2.21 1.83 4.04 4.04 4.04h.08.08 27.05c.38 0 .76-.3.76-.76v-.08-27.28c-.01 0-.01 0-.01-.07zm-1.53.15c0 .08.08.08 0 0v4.8c0 1.6-1.45 2.67-3.05 2.67s-2.97-1.07-2.97-2.59c0 0 0 0 0-.08v-7.24h-1.52v7.24.08c-.08 1.6-1.52 2.59-3.12 2.59s-2.97-1.07-2.97-2.59c0 0 0 0 0-.08v-7.24h-1.52v7.24.08c-.08 1.6-1.52 2.59-3.12 2.59s-2.9-.99-2.97-2.59v-7.31h-1.52v7.31c-.08 1.6-1.52 2.59-3.12 2.59-1.68 0-2.97-1.07-2.97-2.67v-7.24h26.29.08.15c1.19 0 2.33 1.15 2.33 2.44zm-28.95 24v-16.08c.84.69 1.9 1.07 3.05 1.07 1.6 0 2.97-.69 3.81-1.83.84 1.14 2.21 1.83 3.81 1.83s2.97-.69 3.81-1.83c.84 1.14 2.21 1.83 3.81 1.83s2.97-.69 3.81-1.83c.84 1.14 2.21 1.83 3.81 1.83 1.22 0 2.29-.38 3.12-1.07v18.59h-26.36-.08c-.08 0-.08 0-.08 0-1.29 0-2.51-1.14-2.51-2.51z" fill="#fff"/><path d="m195.98 220.89v-1.54c.66-.1 1.68-.4 2.21-.92s.79-1.22.79-2.12c0-.91-.25-1.61-.77-2.1-.51-.5-1.32-.94-2.41-1.33-.72-.26-1.22-.52-1.48-.78-.26-.27-.4-.63-.4-1.07 0-.48.13-.85.38-1.13.25-.27.65-.41 1.18-.41.51 0 .9.2 1.18.56s.42.87.42 1.54h1.85c0-1.33-.33-1.87-.81-2.47s-.82-.98-2.15-1.12v-1.73h-1.33v1.71c-.66.11-1.45.43-1.96.96s-.69 1.23-.69 2.1c0 .91.3 1.62.83 2.12s1.36.94 2.45 1.31c.68.24 1.16.5 1.44.77.28.28.42.64.42 1.08 0 .48-.15.86-.46 1.13s-.75.4-1.32.4c-.54 0-.98-.29-1.33-.59s-.52-.37-.52-1.7h-1.86c0 1.33.23 2.11.81 2.67s1.53 1.02 2.2 1.12v1.53z" fill="#fff"/><path d="m76.19 265.76h-19.79c-.41 0-.77.33-.77.77v11h-9.92c-.43 0-.77.34-.77.77v10.95c0 .42.33.75.77.75h27.14c.42 0 .75-.33.75-.75v-6.04h2.58c.42 0 .77-.35.77-.77v-15.91c.01-.44-.33-.77-.76-.77zm-4.1 22.71h-25.6v-9.42h25.6zm-5.03-11.55c.36-.13.69-.32.97-.57l.9.51c.35.2.81.08 1.02-.28.22-.35.1-.84-.27-1.05l-.88-.5c.04-.19.05-.39.05-.55 0-.2-.02-.4-.05-.59l.88-.5c.37-.22.49-.7.27-1.05-.2-.37-.67-.49-1.02-.29l-.9.52c-.28-.25-.61-.45-.97-.57v-1.04c0-.4-.34-.75-.77-.75-.41 0-.75.35-.75.75v1.04c-.38.12-.7.32-.98.57l-.89-.52c-.34-.22-.81-.08-1.03.29-.22.34-.1.83.27 1.05l.9.5c-.06.19-.07.39-.07.59 0 .16.02.36.07.55l-.9.5c-.36.22-.49.7-.27 1.04.22.37.67.49 1.03.29l.89-.51c.28.24.6.44.98.57v.59h-3.26c-.29-.38-.54-.81-.7-1.26-.2-.56-.33-1.17-.33-1.8 0-1.38.56-2.64 1.48-3.54.91-.91 2.17-1.48 3.56-1.48 1.4 0 2.66.57 3.58 1.48.9.9 1.48 2.16 1.48 3.54 0 .63-.14 1.24-.33 1.8-.15.45-.41.88-.7 1.26h-3.25zm-.02-1.72c-.19.19-.43.3-.7.31h-.04-.03c-.28-.01-.52-.12-.71-.31-.05-.05-.1-.13-.15-.2h-.02c-.08-.15-.14-.34-.14-.51 0-.18.05-.35.12-.51h.01l.01-.04.02-.02v-.01c.04-.06.1-.14.14-.18.19-.19.44-.28.72-.3h.01.01.03.02c.27 0 .51.11.7.3.18.18.29.44.29.75 0 .15-.04.33-.11.49h-.02v.01.02c-.06.08-.11.16-.16.2zm8.4 6.48h-1.83v-3.4c0-.42-.33-.77-.75-.77h-.76c.13-.25.24-.5.34-.75.26-.71.41-1.5.41-2.32 0-1.79-.75-3.43-1.91-4.62h-.02c-1.19-1.18-2.81-1.93-4.64-1.93-1.8 0-3.43.75-4.63 1.93-1.18 1.2-1.93 2.83-1.93 4.62 0 .82.15 1.6.41 2.32.09.25.22.5.33.75h-3.32v-10.25h18.28zm-27.41 4.76h22.22c.43 0 .77-.35.77-.77 0-.43-.33-.77-.77-.77h-22.22c-.41 0-.75.33-.75.77 0 .42.34.77.75.77z" fill="#fff"/><path d="m883.65 188.89s-7.06-.24-13.15-6.16c-5.13-5.59-5.58-10.29-5.58-10.29-.16-1.03-.24-2.06-.24-3.1 0-10.88 8.85-19.72 19.72-19.72.25 0 .51.01.79.02.16-.01.31-.02.45-.02h20.47c3.59 0 6.51 2.92 6.51 6.51v3.72c0 3.59-2.92 6.51-6.51 6.51h-2.21c.15.98.22 1.98.22 2.98 0 5.18-1.99 10.08-5.62 13.79-3.6 3.68-8.4 5.46-13.53 5.61-.44.07-.88.15-1.32.15zm.31-1.97c.32 0 1.16-.03 1.16-.03 9.3-.22 16.85-8.67 16.85-17.98 0-1.21-.13-2.42-.38-3.6l-.23-1.09h4.33c2.48 0 4.5-2.02 4.5-4.5v-3.6c0-2.48-2.02-4.5-4.5-4.5h-19.81c-.1 0-.22 0-.35.01h-.05-.05c-.27-.01-.51-.02-.74-.02-9.54 0-17.78 7.76-17.78 17.29 0 1.25-.06 2.5.21 3.71l.48 1.53s.84 4.75 5.49 8.73c5.14 4.1 10.87 4.05 10.87 4.05z" fill="#fff"/><path d="m884.35 154.49c-2.77.66-4.87 3.61-4.87 7.15s2.09 6.5 4.87 7.16z" fill="#fff"/><path d="m898.66 169.1c-.66-2.77-3.61-4.87-7.16-4.87s-6.5 2.09-7.16 4.87z" fill="#fff"/><path d="m870.03 169.1c.66 2.77 3.61 4.86 7.16 4.86s6.5-2.09 7.16-4.86z" fill="#fff"/><path d="m884.35 183.41c2.77-.66 4.87-3.61 4.87-7.16 0-3.54-2.09-6.5-4.87-7.16z" fill="#fff"/><path d="m884.34 189.12c-10.88 0-19.72-8.85-19.72-19.72s8.85-19.72 19.72-19.72c10.88 0 19.72 8.85 19.72 19.72s-8.85 19.72-19.72 19.72zm0-36.97c-9.51 0-17.24 7.74-17.24 17.25s7.74 17.24 17.24 17.24c9.51 0 17.24-7.74 17.24-17.24 0-9.52-7.73-17.25-17.24-17.25z" fill="#fff"/><path d="m784.13 121.18c-.25.01-.72.02-1.35.04-1.06.03-2.2.06-3.38.08-1.52.03-3 .06-4.4.08-2.56.04-4.69.05-6.25.03-.87-.01-1.54-.04-1.99-.07-.2-.02-.35-.03-.41-.04.03.01.07.02.15.05.44.2.82.54.82 1.28 0-2.4 0-2.4 0-5.54 0-2.48 0-2.48 0-4.61 0-1.96 0-1.96 0-2.46 0-.42-.18-.82-.5-1.1-.09-.08-.27-.24-.53-.48-.44-.4-.92-.87-1.45-1.39-1.5-1.49-3-3.12-4.4-4.85-2.59-3.19-4.51-6.3-5.5-9.16-.48-1.39-.73-2.68-.73-3.88 0-11.65 9.44-21.09 21.09-21.09s21.09 9.44 21.09 21.09c0 1.07-.22 2.22-.64 3.45-1.03 2.98-3.23 6.24-6.25 9.58-1.55 1.72-3.22 3.34-4.89 4.82-.58.52-1.12.98-1.61 1.38-.29.24-.49.4-.59.48-.35.28-.56.7-.56 1.15v6.79l1.45-1.45h-16.73c-.8 0-1.45.65-1.45 1.45s.65 1.45 1.45 1.45h16.73c.8 0 1.45-.65 1.45-1.45v-6.79l-.56 1.15c.12-.1.35-.28.66-.53.51-.42 1.08-.9 1.69-1.45 1.74-1.54 3.48-3.24 5.11-5.04 3.26-3.6 5.66-7.16 6.85-10.58.53-1.52.8-2.99.8-4.4 0-13.25-10.75-24-24-24s-24 10.75-24 24c0 1.54.31 3.15.89 4.83 1.12 3.23 3.2 6.61 5.99 10.04 1.47 1.81 3.04 3.52 4.6 5.08.55.55 1.06 1.04 1.52 1.46.28.26.48.44.59.54l-.5-1.09v2.46 4.61 5.54c0 .78.41 1.16.92 1.38.15.07.29.11.46.14.2.04.44.07.75.09.52.04 1.24.06 2.16.08 1.59.02 3.75.01 6.34-.03 1.4-.02 2.89-.05 4.42-.08 1.19-.03 2.34-.06 3.4-.08.64-.02 1.1-.03 1.36-.04.8-.02 1.43-.69 1.41-1.5-.01-.81-.68-1.44-1.48-1.42z" fill="#fff"/><path d="m766.29 96.76 7.27 7.27c.55.55 1.43.57 2 .05l7.27-6.55c.6-.54.65-1.46.11-2.05-.54-.6-1.46-.65-2.05-.11l-7.27 6.55 2 .05-7.27-7.27c-.57-.57-1.49-.57-2.06 0s-.57 1.49 0 2.06z" fill="#fff"/><path d="m773.13 103.73v12.36h2.91v-12.36z" fill="#fff"/><path d="m541.72 113.84c-1.53-.62-1.82-2.67-.51-3.68 1.3-1.02 3.22-.24 3.44 1.4.23 1.63-1.4 2.9-2.93 2.28z" fill="none" stroke="#fff" stroke-miterlimit="10"/><path d="m347.48 76.31c-2.67-1.08-3.17-4.65-.89-6.42 2.27-1.77 5.61-.42 6.01 2.43.39 2.86-2.45 5.08-5.12 3.99z" fill="none" stroke="#fff" stroke-miterlimit="10"/><path d="m66.44 101.85-2.46-1c-1.72-.7-2.04-2.99-.58-4.13l2.09-1.63c1.46-1.14 3.61-.27 3.86 1.57l.37 2.63c.26 1.84-1.57 3.26-3.28 2.56z" fill="none" stroke="#fff" stroke-miterlimit="10"/><path d="m211.48 248.31c-2.67-1.08-3.17-4.65-.89-6.42 2.27-1.77 5.61-.42 6.01 2.43.39 2.86-2.45 5.08-5.12 3.99z" fill="none" stroke="#fff" stroke-miterlimit="10"/><g fill="#fff"><path d="m883.28 307.64h-.29c-8.75 0-15.82-7.06-15.82-15.82v-15.37c0-.44.29-.74.74-.74h3.68c3.02 0 6.03-.74 8.75-2.06l2.5-1.25c.22-.07.44-.07.66 0l2.5 1.25c2.72 1.32 5.74 2.06 8.75 2.06h3.68c.44 0 .74.29.74.74s-.29.74-.74.74h-3.68c-3.24 0-6.47-.74-9.42-2.21l-2.21-1.1-2.13 1.1c-2.94 1.47-6.18 2.21-9.42 2.21h-2.94v14.64c0 7.94 6.4 14.34 14.34 14.34h.29c7.87 0 14.34-6.4 14.34-14.34l.07-11.99c-.01-.45.35-.65.73-.66.47-.02.73.37.73.66l-.06 11.99c.03 8.74-7.03 15.81-15.79 15.81z"/><path d="m887.03 284.2c-.18.18-.31.48-.18.72.12.24.18.54.24.84-1.65-3.8-4.4-4.65-4.52-4.71-.19-.05-.4-.01-.55.12-.18.12-.24.36-.18.54.25 1.63-.49 3.56-2.2 5.85-.13-.53-.34-1.04-.61-1.51-.18-.18-.43-.3-.67-.24-.31.06-.49.24-.49.54-.06.9-.49 1.75-.98 2.65-.43.78-.86 1.63-1.04 2.53-.61 2.9.67 5.01 4.28 6.94.12.06.18.06.31.06.18 0 .37-.12.49-.24.18-.3.12-.66-.18-.84l-.06-.06c-3.61-1.99-4.1-3.62-3.67-5.61.18-.78.55-1.45.92-2.23.24-.36.43-.72.55-1.09 0 .18.06.42.06.6 0 .24.18.48.43.54.24.06.5 0 .67-.18 2.14-2.53 3.3-4.83 3.42-6.88.98.6 2.63 2.05 3.48 5.13.06.18.18.36.43.42.19.06.4.01.55-.12.49-.42.73-1.03.8-1.63 1.04 1.27 2.2 3.32 2.08 5.43-.12 1.75-1.1 3.26-2.87 4.59.67-3.14-.61-6.76-3.42-8.63-.18-.12-.43-.12-.61-.06-.18.12-.31.3-.31.54-.06 1.69-.92 2.71-1.71 3.74-.67.84-1.35 1.69-1.47 2.84 0 .3.24.6.55.66.37.06.61-.24.67-.54.06-.78.61-1.45 1.16-2.17.67-.84 1.47-1.87 1.83-3.32 2.2 2.05 2.93 5.67 1.59 8.21v.06c0 .06 0 .06-.06.12v.24c0 .06 0 .06.06.12v.06l.06.06c0 .06.06.06.06.12 0 0 .06.06.12.06l.06.06s.06 0 .06.06h.37c.06 0 .12 0 .18-.06 3.12-1.69 4.83-3.92 4.95-6.52.18-4.04-3.24-7.42-3.91-7.84-.25-.15-.55-.09-.74.03z"/><path d="m535.08 80.06-6.27-.03c-.42 0-1.15.31-1.15 1.17s.73 1.13 1.15 1.13l6.27.01c.42 0 1.14-.24 1.15-1.14s-.74-1.14-1.15-1.14z"/><path d="m550.33 42.89c-7.97 0-14.86 6.9-14.86 14.88v3.23c0 2.08-1.46 3.38-3.36 3.38s-3.36-1.3-3.36-3.38v-18.12c0-.42-.36-1.16-1.16-1.18s-1.14.76-1.14 1.18l-.03 18.12c0 2.91 2.2 5.69 5.41 5.69s5.87-2.22 5.94-5.69l.04-3.22c0-7.14 5.39-12.59 12.52-12.59 7.14 0 12.55 5.44 12.55 12.59l.03 8.52c0 .42.28 1.13 1.13 1.15.86.01 1.19-.73 1.19-1.15l-.04-8.52c.01-7.99-6.88-14.89-14.86-14.89z"/><path d="m550.33 52.06c-3.11 0-5.66 2.8-5.66 5.71l-.05 3.23c0 7.15-5.55 12.6-12.5 12.55-6.96-.05-11.96-5.48-12.54-12.46l-.03-18.21c0-.42-.47-1.16-1.15-1.16s-1.15.74-1.15 1.16l.02 18.12c0 7.98 6.86 14.79 14.84 14.79 7.99 0 14.84-6.68 14.84-14.66l.08-3.35c0-2.07 1.83-3.38 3.3-3.38 1.46 0 3.4 1.31 3.4 3.38l-.06 8.52c0 .42.37 1.14 1.18 1.11s1.12-.69 1.12-1.11l.06-8.52c0-2.91-2.59-5.72-5.7-5.72z"/><path d="m139.01 81.46c-.08-.16-.24-.27-.43-.27h-3.13l2.97-4.95c.13-.22.06-.51-.16-.65-.07-.04-.16-.07-.24-.07h-4.53c-.19 0-.37.12-.44.3l-3.4 8.5c-.1.24.02.52.26.61.06.02.12.03.18.03h2.15l-2.59 6.91c-.09.24.03.52.28.61.19.07.4.01.53-.14l8.5-10.38c.11-.14.13-.33.05-.5z"/><path d="m147.48 103.14h-26.4c-3.31 0-6-2.69-6-6v-10.8h-.6c-2.32 0-4.2-1.88-4.2-4.2 0-1.16.46-2.23 1.31-3.04l18.92-16.47c.96-.96 2.31-1.52 3.75-1.52s2.79.56 3.81 1.58l18.94 16.46c.84.86 1.26 1.9 1.26 2.99 0 2.31-1.88 4.2-4.2 4.2h-.6v10.8c.01 3.31-2.68 6-5.99 6zm-13.22-39.82c-.81 0-1.56.31-2.14.88l-19.14 16.66c-.33.31-.53.78-.53 1.28 0 1 .82 1.82 1.82 1.82h3.03v13.33c0 2 1.63 3.64 3.64 3.64h26.67c2.01 0 3.64-1.63 3.64-3.64v-13.33h3.03c1 0 1.82-.82 1.82-1.82 0-.47-.18-.92-.52-1.26l-19.12-16.61c-.63-.63-1.39-.95-2.2-.95z"/><path d="m276.49 74.25c-5.08 0-9.21-4.13-9.21-9.21s4.13-9.21 9.21-9.21 9.21 4.13 9.21 9.21-4.13 9.21-9.21 9.21zm0-16.73c-4.15 0-7.52 3.37-7.52 7.52s3.37 7.52 7.52 7.52 7.52-3.38 7.52-7.52c0-4.15-3.37-7.52-7.52-7.52z"/><path d="m262.42 85.53c-.06 0-.12-.01-.18-.02-.46-.1-.74-.55-.64-1.01.9-4.07 3.3-7.6 6.77-9.94.39-.26.91-.16 1.17.23s.16.91-.23 1.17c-3.11 2.1-5.26 5.26-6.07 8.9-.09.4-.44.67-.82.67z"/><path d="m281.48 85.53h-19.06c-.47 0-.85-.38-.85-.85s.38-.85.85-.85h19.06c.47 0 .85.38.85.85-.01.47-.38.85-.85.85z"/><path d="m288.09 71.92c-2.07 2.07-5.48 4.98-5.48 8.01 0 3.04 2.45 5.48 5.48 5.48 3.04 0 5.48-2.45 5.48-5.48 0-3.04-3.33-5.86-5.48-8.01zm0 12.06c-2.25 0-4.05-1.81-4.05-4.05 0-2.25 2.54-4.39 4.05-5.9 1.58 1.59 4.05 3.69 4.05 5.9 0 2.25-1.8 4.05-4.05 4.05z"/><path d="m653.26 108.95h10.09l-.84-.84v3.36l.84-.84h-10.09l.84.84v-3.36zm0-1.68h-.84v.84 3.36.84h.84 10.09.84v-.84-3.36-.84h-.84z"/><path d="m649.9 91.29v-6.73l-.84.84h5.05l-.84-.84v6.73h1.68v-6.73-.84h-.84-5.05-.84v.84 6.73z"/><path d="m663.35 91.29v-6.73l-.84.84h5.05l-.84-.84v6.73h1.68v-6.73-.84h-.84-5.05-.84v.84 6.73z"/><path d="m658.23 92.55h13.54l.09-.01c.49-.05.6.01.67.27.1.4.01 1.11-.27 2.02-.45 1.47-1.4 3.41-2.04 4.41-.45.72-1.14 1.58-2.02 2.56-.4.45-.84.91-1.31 1.39-.89.91-1.85 1.83-2.81 2.71-.34.31-.65.59-.93.84-.17.15-.29.25-.35.31l.55-.21h-5.05v1.68h5.05.31l.24-.21c.07-.06.19-.17.36-.32.29-.25.6-.54.95-.86.98-.9 1.96-1.84 2.87-2.78.48-.49.94-.98 1.36-1.44.94-1.04 1.68-1.97 2.19-2.78.71-1.12 1.72-3.19 2.22-4.81.36-1.18.49-2.16.3-2.93-.28-1.11-1.19-1.67-2.48-1.53l.09-.01h-13.54v1.7z"/><path d="m658.26 90.87h-13.54l.09.01c-1.29-.14-2.2.42-2.48 1.53-.19.77-.07 1.75.3 2.93.5 1.62 1.52 3.69 2.22 4.81.51.81 1.25 1.74 2.19 2.78.42.46.87.95 1.36 1.44.92.94 1.89 1.88 2.87 2.78.34.31.66.6.95.86.17.15.3.26.36.32l.24.21h.31 5.89v-1.68h-5.89l.55.21c-.06-.05-.18-.16-.35-.31-.28-.25-.59-.53-.93-.84-.96-.88-1.92-1.8-2.81-2.71-.47-.48-.91-.94-1.31-1.39-.88-.98-1.57-1.84-2.02-2.56-.63-1-1.59-2.95-2.04-4.41-.28-.91-.37-1.62-.27-2.02.06-.25.17-.32.67-.27l.09.01h13.54z"/><path d="m654.1 111.9v4.63c0 .46.38.84.84.84s.84-.38.84-.84v-4.63c0-.46-.38-.84-.84-.84-.46-.01-.84.37-.84.84z"/><path d="m660.83 111.9v4.63c0 .46.38.84.84.84s.84-.38.84-.84v-4.63c0-.46-.38-.84-.84-.84-.46-.01-.84.37-.84.84z"/></g><path d="m793.37 129.35c-1.01-.41-1.2-1.77-.34-2.44.86-.67 2.13-.16 2.28.92.16 1.09-.92 1.93-1.94 1.52z" fill="none" stroke="#fff" stroke-miterlimit="10"/><path d="m776.31 178.68h-27.64c-1.2 0-2.18.98-2.18 2.18v13.82c0 1.2.98 2.18 2.18 2.18h27.64c1.2 0 2.18-.98 2.18-2.18v-13.82c0-1.2-.98-2.18-2.18-2.18zm-27.64 1.46h27.64c.4 0 .73.33.73.73v10.18h-29.09v-10.18c0-.4.32-.73.72-.73zm27.64 15.27h-27.64c-.4 0-.73-.33-.73-.73v-2.18h29.09v2.18c.01.41-.32.73-.72.73z" fill="#fff"/><path d="m769.04 189.39h5.82c.4 0 .73-.33.73-.73s-.33-.73-.73-.73h-5.82c-.4 0-.73.33-.73.73s.33.73.73.73zm-17.82 9.24c-.4 0-.73.33-.73.73v3.64c0 .4.33.73.73.73s.73-.33.73-.73v-3.64c0-.4-.33-.73-.73-.73zm5.64 0c-.4 0-.73.33-.73.73v3.64c0 .4.33.73.73.73s.73-.32.73-.73v-3.64c-.01-.4-.33-.73-.73-.73zm5.63 0c-.4 0-.73.33-.73.73v3.64c0 .4.33.73.73.73s.73-.32.73-.73v-3.64c0-.4-.33-.73-.73-.73zm5.64 0c-.4 0-.73.33-.73.73v3.64c0 .4.33.73.73.73s.73-.33.73-.73v-3.64c0-.4-.33-.73-.73-.73zm5.64 0c-.4 0-.73.33-.73.73v3.64c0 .4.33.73.73.73s.73-.33.73-.73v-3.64c-.01-.4-.33-.73-.73-.73z" fill="#fff"/><path d="m413.01 56.86c-.08-.17-.25-.27-.43-.27h-3.18l3.01-5.02c.14-.23.06-.52-.16-.66-.07-.04-.16-.07-.25-.07h-4.6c-.2 0-.37.12-.45.3l-3.45 8.63c-.1.25.02.52.27.62.06.02.12.03.18.03h2.18l-2.63 7.02c-.09.25.03.52.28.62.19.07.41.01.54-.15l8.63-10.54c.12-.14.14-.34.06-.51z" fill="#fff"/><path d="m396.14 27.6h2.4v22.41h-2.4z" fill="#fff"/><path d="m417.79 27.6h2.4v22.41h-2.4z" fill="#fff"/><path d="m390.27 72.84c-1.99 0-3.59-1.61-3.6-3.6v-34.8l-1.2 1.2h40.81c1.98 0 3.59 1.61 3.59 3.59v.02 30.67c0 .66.54 1.2 1.2 1.2s1.2-.54 1.2-1.2v-30.67c.01-3.31-2.67-6-5.98-6.01-.01 0-.01 0-.02 0h-40.81c-.66 0-1.2.54-1.2 1.2v34.8c0 3.31 2.69 5.99 6 6h36c.66 0 1.2-.54 1.2-1.2s-.54-1.2-1.2-1.2z" fill="#fff"/><path d="m82.49 178.17c0-13.25-10.75-24-24-24-13.26 0-24 10.75-24 24 0 13.26 10.75 24 24 24 5.33 0 10.4-1.74 14.54-4.91.46-.35.55-1 .2-1.46s-1-.55-1.46-.2c-3.79 2.89-8.41 4.48-13.28 4.48-12.1 0-21.91-9.81-21.91-21.91s9.81-21.91 21.91-21.91 21.91 9.81 21.91 21.91c0 4.08-1.12 7.99-3.19 11.4-.3.49-.14 1.13.35 1.43s1.13.14 1.43-.35c2.27-3.72 3.5-8.01 3.5-12.48z" fill="#fff"/><path d="m75.25 178.09c-.3-2.1-1.21-4.19-2.41-5.68-1.94-2.39-6.18-3.9-9.1-2.97-3.47 1.1-5.46 3.26-6.2 6.46-.11.46-.18.61-.28 1.26-.26-.05-.15-.04-.41-.1-2.71-.77-3.82-1.53-5.01-4.53-.76-2.39.31-5.48 2.31-7.1 1.13-.92 1.77-1.33 3.33-1.66l-.04 5.71c0 .35.25 1.06 1.06 1.06s1.05-.71 1.05-1.06c0 0 .01-6.16 0-7-.01-.85-.7-1.07-1.05-1.07-.03 0-.06 0-.09.01-2.1.3-4.21 1.18-5.7 2.39-3.35 3.1-3.83 6.66-2.81 9.42.96 3.42 3.47 5.23 6.67 5.97.31.07.07.03.39.09-.14.86-.25 1-.41 1.46-1.42 3.11-3.62 4.47-6.82 4.23-3.31-.34-5.56-3.3-5.83-5.42l5.59-.07c.35 0 .94-.23.94-1.02s-.71-1.09-1.06-1.09l-6.57.03c-.74-.04-1.05.69-1.06 1.03-.16 3.97 3.31 8.27 7.87 8.65 3.61.59 7.59-1.92 8.94-5.59.2-.55.33-.95.49-1.89l.3.07c1.14.18 1.2.25 1.74.44 3.23 1.38 4.34 3.44 4.25 6.82-.34 3.31-3.51 5.68-5.49 5.81l.03-5.44c0-.35-.34-1.09-1.08-1.08s-1.1.72-1.1 1.08l.03 6.57c0 .34.36 1.02 1.05 1.08 3.97.16 8.23-3.26 8.68-7.88.41-3.96-2.03-7.64-5.62-8.94-.64-.23-1.21-.4-2.44-.59l.01.01c.1-.62.09-.57.19-1 .64-2.78 2.04-4.12 4.66-5.03 2.37-.67 5.24.24 7.04 2.28.92 1.13 1.04 1.53 1.61 3.34l-5.7-.02c-.35 0-1.06.27-1.06 1.08s.71 1.05 1.06 1.05l7.17.01c.53 0 .91-.71.91-1.06-.03-.06-.02-.09-.03-.12z" fill="#fff"/><path d="m458.95 178.14v35.03-.45c0 .61.5 1.07 1.11 1.07s1.11-.4 1.11-1.01v-34.64c0-4.3 3.48-7.78 7.78-7.78s7.78 3.48 7.79 7.78v1.18c-5.06.57-8.89 4.85-8.89 9.94v3.34c0 1.84 1.49 3.34 3.34 3.34h13.34c1.84 0 3.34-1.49 3.34-3.34v-3.34c0-5.09-3.83-9.37-8.89-9.94v-1.18c0-5.53-4.48-10.01-10.01-10.01-5.54 0-10.02 4.48-10.02 10.01zm12.23 15.56c-.61 0-1.11-.5-1.11-1.11v-1.11h15.56v1.11c0 .61-.5 1.11-1.11 1.11zm6.67-12.23c4.3 0 7.78 3.48 7.78 7.78h-15.56c-.01-4.29 3.48-7.78 7.78-7.78zm9.75 15.96c-.47-.4-1.17-.35-1.57.12s-.35 1.17.12 1.57l3.15 3.15c.42.36 1.03.36 1.45 0 .47-.4.52-1.1.12-1.57l-3.15-3.15c-.04-.04-.08-.08-.12-.12z" fill="#fff"/><path d="m477.85 200.37c-.61 0-1.11.5-1.11 1.11v4.45c0 .61.5 1.11 1.11 1.11s1.11-.5 1.11-1.11v-4.45c0-.61-.5-1.11-1.11-1.11zm-13.02.33c-.36.42-.36 1.03 0 1.45.4.47 1.1.52 1.57.12l3.15-3.15c.04-.04.08-.08.12-.12.4-.47.35-1.17-.12-1.57s-1.17-.35-1.57.12z" fill="#fff"/><path d="m490.99 214.35c.55 0 .9-.49.9-1.1s-.46-1.1-1.01-1.1h-46.1c-.55 0-.9.49-.9 1.1s.28 1.1.83 1.1z" fill="#fff"/><path d="m448.21 189.24h2.42v23.5h-2.42z" fill="#fff"/></svg>