<?xml version="1.0" encoding="utf-8"?>
<!-- Generator: Adobe Illustrator 16.0.0, SVG Export Plug-In . SVG Version: 6.00 Build 0)  -->
<!DOCTYPE svg PUBLIC "-//W3C//DTD SVG 1.1//EN" "http://www.w3.org/Graphics/SVG/1.1/DTD/svg11.dtd">
<svg version="1.1" id="图形" xmlns="http://www.w3.org/2000/svg" xmlns:xlink="http://www.w3.org/1999/xlink" x="0px" y="0px"
	 width="1000.637px" height="1000.678px" viewBox="0 0 1000.637 1000.678" enable-background="new 0 0 1000.637 1000.678"
	 xml:space="preserve">
<path fill="#272636" d="M860.381,769.194"/>
<g>
	<g>
		<g>
			<g>
				
					<rect x="465.225" y="617.851" transform="matrix(-0.9447 -0.3278 0.3278 -0.9447 684.462 1578.7626)" fill="#616363" width="20.118" height="227.692"/>
			</g>
		</g>
	</g>
	<g>
		<g>
			<g>
				<path fill="#FCB856" d="M378.325,818.738c11.179-32.893,46.946-50.458,79.84-38.962c32.895,11.499,50.139,46.947,38.962,79.84
					c-11.178,32.896-46.945,50.46-79.84,38.964C384.393,887.401,367.147,851.634,378.325,818.738z"/>
			</g>
		</g>
	</g>
	<g>
		<g>
			<g>
				<path fill="#616363" d="M437.727,912.311c-7.984,0-15.969-1.276-23.633-3.832c-18.523-6.387-33.214-19.48-41.837-37.045
					c-8.622-17.565-9.579-37.365-3.513-55.568c10.22-29.38,38.004-49.182,68.982-49.182c7.983,0,15.967,1.278,23.632,3.832
					c18.523,6.388,33.212,19.481,41.835,37.045c8.623,17.566,9.581,37.367,3.514,55.569
					C496.488,892.512,468.704,912.311,437.727,912.311z M437.727,786.485c-22.675,0-42.795,14.37-50.14,35.767
					c-4.471,13.414-3.832,27.784,2.556,40.24c6.066,12.773,16.926,22.353,30.339,26.826c5.428,1.917,11.495,2.875,17.245,2.875
					c22.675,0,42.793-14.372,50.139-35.771c4.472-13.411,3.832-27.783-2.555-40.239c-6.066-12.772-16.926-22.355-30.339-26.824
					C449.542,787.443,443.794,786.485,437.727,786.485z"/>
			</g>
		</g>
	</g>
	<g>
		<g>
			<g>
				<g>
					<circle fill="#84D1DA" cx="518.205" cy="480.219" r="225.787"/>
				</g>
			</g>
		</g>
		<g>
			<g>
				<g>
					<path fill="#616363" d="M518.205,715.908c-129.979,0-235.687-105.711-235.687-235.688
						c0-129.979,105.707-235.687,235.687-235.687c129.976,0,235.685,105.708,235.685,235.687
						C753.89,610.197,648.181,715.908,518.205,715.908z M518.205,264.334c-119.122,0-215.887,96.766-215.887,215.886
						c0,119.122,96.765,215.886,215.887,215.886c119.118,0,215.887-96.764,215.887-215.886
						C734.092,361.1,637.323,264.334,518.205,264.334z"/>
				</g>
			</g>
		</g>
		<g>
			<g>
				<g>
					<path fill="#616363" d="M617.206,738.262c-23.954,0-52.376-7.984-83.993-23.951l8.942-17.887
						c49.501,24.91,89.421,28.745,110.178,10.541c44.392-38.962-1.915-167.024-100.916-280.078
						c-49.82-56.525-105.388-101.876-157.124-127.104c-47.903-23.633-87.185-26.825-107.623-9.262
						c-27.146,23.953-20.759,83.992,16.287,157.125l-17.885,8.941c-42.154-82.714-46.307-150.736-11.496-181.076
						c27.146-23.952,73.133-21.716,129.66,6.068c53.651,26.506,111.774,73.452,163.189,131.895
						c109.86,125.188,153.292,260.597,99.001,308.182C653.294,732.833,636.686,738.262,617.206,738.262z"/>
				</g>
			</g>
		</g>
		<g>
			<g>
				<g>
					<path fill="#616363" d="M342.238,725.169c-9.581,0-18.203-2.237-25.868-6.709c-31.936-19.162-37.046-74.729-14.372-152.333
						l19.162,5.748c-19.479,66.107-17.245,115.609,5.43,129.342c37.045,22.354,137.323-49.82,221.634-189.382
						c84.31-139.559,102.194-261.873,65.149-284.229c-12.455-7.664-49.502-1.915-88.783,34.491l-13.73-14.689
						c45.029-41.837,91.016-50.14,112.732-37.047c53.652,32.256,27.783,169.261-58.442,311.694
						C491.697,644.05,400.681,725.169,342.238,725.169z"/>
				</g>
			</g>
		</g>
		<g>
			<g>
				<g>
					<path fill="#616363" d="M387.268,631.915c-59.401,0-99-17.247-112.095-48.862c-8.622-20.757-4.791-45.987,11.497-73.133
						l17.245,10.22c-8.941,14.69-17.884,36.407-10.22,54.932c9.581,23.313,43.753,36.405,93.572,36.405c0.319,0,0.64,0,1.277,0
						c54.291-0.318,120.397-15.33,186.504-43.114c131.256-54.61,223.871-144.03,202.473-195.127
						c-9.261-22.676-42.472-35.769-90.378-36.407l0.318-20.119c57.167,0.639,95.809,17.883,108.583,48.861
						c26.507,63.232-67.385,160.636-213.33,221.636c-68.344,28.421-137.324,44.39-194.17,44.39
						C388.226,631.915,387.587,631.915,387.268,631.915z"/>
				</g>
			</g>
		</g>
		<g>
			<g>
				<g>
					<path fill="#616363" d="M705.027,620.737l-5.429-19.163c50.14-14.368,80.159-34.808,80.798-54.928
						c0.639-19.801-27.465-41.836-74.729-59.081c-52.373-19.162-122.314-30.659-197.363-33.214
						c-75.048-2.235-145.626,5.11-198.96,20.758c-48.543,14.371-77.604,34.491-78.242,54.29
						c-0.639,23.953,38.961,50.14,103.152,68.344l-5.429,19.162c-76.966-21.716-118.802-53.015-117.843-88.143
						c0.957-30.021,32.894-55.25,92.613-72.814c55.248-16.287,128.381-23.951,205.347-21.396
						c76.964,2.555,149.46,14.689,203.432,34.49c58.442,21.396,88.78,48.542,87.821,78.563
						C799.558,577.304,765.387,603.491,705.027,620.737z"/>
				</g>
			</g>
		</g>
	</g>
	<g>
		<g>
			<g>
				
					<rect x="719.694" y="140.527" transform="matrix(-0.6539 -0.7566 0.7566 -0.6539 1027.0033 945.3777)" fill="#616363" width="20.117" height="194.48"/>
			</g>
		</g>
	</g>
	<g>
		<g>
			<g>
				<rect x="743.989" y="461.377" fill="#616363" width="157.125" height="20.121"/>
			</g>
		</g>
	</g>
	<g>
		<g>
			<g>
				
					<rect x="319.71" y="217.457" transform="matrix(-0.4652 -0.8852 0.8852 -0.4652 362.7286 674.1777)" fill="#616363" width="130.616" height="20.121"/>
			</g>
		</g>
	</g>
	<g>
		<g>
			<g>
				
					<rect x="674.78" y="658" transform="matrix(-0.7038 -0.7104 0.7104 -0.7038 786.0956 1663.8822)" fill="#616363" width="130.298" height="20.117"/>
			</g>
		</g>
	</g>
	<g>
		<g>
			<g>
				<rect x="91.542" y="450.52" fill="#616363" width="200.875" height="20.119"/>
			</g>
		</g>
	</g>
	<g>
		<g>
			<g>
				<circle fill="#FCB856" cx="901.114" cy="471.278" r="47.904"/>
			</g>
		</g>
	</g>
	<g>
		<g>
			<g>
				<path fill="#616363" d="M901.114,529.081c-31.937,0-57.805-25.869-57.805-57.804c0-31.936,25.868-57.804,57.805-57.804
					c31.936,0,57.804,25.868,57.804,57.804C958.918,503.212,933.05,529.081,901.114,529.081z M901.114,433.593
					c-20.758,0-37.684,16.927-37.684,37.685s16.926,37.684,37.684,37.684c20.759,0,37.685-16.926,37.685-37.684
					S921.873,433.593,901.114,433.593z"/>
			</g>
		</g>
	</g>
	<g>
		<g>
			<g>
				<circle fill="#FCB856" cx="803.392" cy="174.274" r="76.007"/>
			</g>
		</g>
	</g>
	<g>
		<g>
			<g>
				<path fill="#616363" d="M803.392,260.183c-24.272,0-47.266-10.221-63.555-28.104c-31.936-35.13-29.38-89.42,5.75-121.356
					c15.968-14.371,36.407-22.354,57.805-22.354c24.27,0,47.264,10.22,63.552,28.104c15.329,16.926,23.313,38.962,22.355,61.955
					c-0.959,22.994-11.179,44.071-28.104,59.401C845.227,252.198,824.787,260.183,803.392,260.183z M803.07,108.167
					c-16.287,0-32.254,6.068-44.39,17.246c-26.826,24.59-28.742,66.106-4.471,93.252c12.453,13.732,30.339,21.717,48.86,21.717
					c16.288,0,32.256-6.068,44.392-17.245c13.094-11.817,20.758-28.104,21.397-45.669c0.958-17.565-5.109-34.49-16.926-47.584
					C839.477,116.151,821.913,108.167,803.07,108.167z"/>
			</g>
		</g>
	</g>
	<g>
		<g>
			<g>
				<circle fill="#FCB856" cx="335.212" cy="141.061" r="39.919"/>
			</g>
		</g>
	</g>
	<g>
		<g>
			<g>
				<path fill="#616363" d="M335.212,190.88c-13.414,0-25.868-5.108-35.129-14.689c-19.481-19.48-19.481-51.098,0-70.579
					c9.261-9.261,22.035-14.69,35.129-14.69c13.413,0,25.868,5.11,35.13,14.69c9.261,9.262,14.69,22.037,14.69,35.13
					c0,13.095-5.109,25.869-14.69,35.13C361.08,185.771,348.306,190.88,335.212,190.88z M335.212,111.361
					c-7.984,0-15.329,3.193-21.078,8.622c-11.496,11.498-11.496,30.658,0,42.156c5.749,5.748,13.094,8.622,21.078,8.622
					s15.33-3.194,21.077-8.622c5.749-5.749,8.624-13.095,8.624-21.078c0-7.984-3.194-15.329-8.624-21.078
					C350.542,114.235,343.196,111.361,335.212,111.361z"/>
			</g>
		</g>
	</g>
	<g>
		<g>
			<g>
				<circle fill="#FCB856" cx="785.826" cy="714.31" r="39.919"/>
			</g>
		</g>
	</g>
	<g>
		<g>
			<g>
				<path fill="#616363" d="M785.826,764.449c-13.413,0-25.869-5.11-35.132-14.69c-9.26-9.262-14.688-22.036-14.688-35.13
					c0-13.412,5.108-25.868,14.688-35.131c9.263-9.261,22.038-14.69,35.132-14.69c13.413,0,25.868,5.11,35.13,14.69
					c19.479,19.481,19.479,51.098,0,70.579C811.694,759.019,799.239,764.449,785.826,764.449z M785.826,684.609
					c-7.983,0-15.328,3.193-21.078,8.621c-5.748,5.749-8.622,13.094-8.622,21.08c0,7.981,3.193,15.326,8.622,21.075
					c5.75,5.751,13.095,8.624,21.078,8.624c7.984,0,15.328-3.195,21.077-8.624c11.497-11.495,11.497-30.658,0-42.155
					C801.154,687.803,793.811,684.609,785.826,684.609z"/>
			</g>
		</g>
	</g>
	<g>
		<g>
			<g>
				<path fill="#FCB856" d="M90.903,500.658c-22.036-0.319-39.601-18.522-39.28-40.559c0.318-22.035,18.522-39.92,40.237-39.6
					c22.037,0.319,39.601,18.522,39.282,40.559C131.143,483.413,112.939,500.979,90.903,500.658z"/>
			</g>
		</g>
	</g>
	<g>
		<g>
			<g>
				<path fill="#616363" d="M91.542,510.877h-0.639c-27.465-0.319-49.501-23.312-49.182-50.777
					c0.319-27.145,22.674-49.181,49.82-49.181h0.638c27.466,0.319,49.502,23.313,49.182,50.777
					C141.042,488.522,118.687,510.877,91.542,510.877z M91.86,430.719c-16.606,0-30.02,13.413-30.338,29.7
					c-0.32,16.606,13.093,30.339,29.381,30.339h0.319c16.287,0,29.381-13.413,29.7-29.699
					C121.562,444.451,108.468,430.719,91.86,430.719L91.86,430.719z"/>
			</g>
		</g>
	</g>
</g>
</svg>
