<?xml version="1.0" encoding="utf-8"?>
<!-- Generator: Adobe Illustrator 16.0.0, SVG Export Plug-In . SVG Version: 6.00 Build 0)  -->
<!DOCTYPE svg PUBLIC "-//W3C//DTD SVG 1.1//EN" "http://www.w3.org/Graphics/SVG/1.1/DTD/svg11.dtd">
<svg version="1.1" id="图形" xmlns="http://www.w3.org/2000/svg" xmlns:xlink="http://www.w3.org/1999/xlink" x="0px" y="0px"
	 width="1000.637px" height="1000.678px" viewBox="0 0 1000.637 1000.678" enable-background="new 0 0 1000.637 1000.678"
	 xml:space="preserve">
<path fill="#272636" d="M860.381,769.194"/>
<g id="XMLID_259_">
	<path id="XMLID_243_" fill="#D0D1D3" d="M841.417,811.815H155.896c-9.866,0-17.922-8.072-17.922-17.92V382.931
		c0-9.864,8.056-17.92,17.922-17.92h685.521c9.856,0,17.921,8.056,17.921,17.92v410.964
		C859.338,803.743,851.273,811.815,841.417,811.815z"/>
	<rect id="XMLID_242_" x="172.998" y="405.802" fill="#FFFFFF" width="647.397" height="349.078"/>
	<path id="XMLID_241_" fill="#F1F1F1" d="M850.36,835.106H146.252c-16.914,0-31.329-12.242-34.054-28.93l-5.02-30.59H893.47
		l-4.357,26.604C885.989,821.171,869.597,835.106,850.36,835.106z"/>
	<g id="XMLID_240_">
		<path id="XMLID_1172_" fill="#414042" d="M850.36,844.073H146.252c-21.402,0-39.447-15.322-42.903-36.451l-6.721-41.004h807.381
			l-6.051,37.027C894.104,827.058,874.085,844.073,850.36,844.073z M117.727,784.538l3.316,20.191
			c2.031,12.414,12.627,21.414,25.209,21.414H850.36c14.912,0,27.482-10.686,29.906-25.41l2.656-16.195H117.727z"/>
	</g>
	<rect id="XMLID_244_" x="206.822" y="455.196" fill="#EBA639" width="282.256" height="152.016"/>
	<rect id="XMLID_245_" x="528.398" y="455.196" fill="#D0D1D3" width="69.037" height="69.049"/>
	<rect id="XMLID_247_" x="528.398" y="538.167" fill="#F1F1F1" width="69.037" height="69.045"/>
	<rect id="XMLID_248_" x="528.398" y="621.13" fill="#D0D1D3" width="69.037" height="69.053"/>
	<g id="XMLID_249_">
		<rect id="XMLID_1171_" x="629.915" y="455.804" fill="#414042" width="152.018" height="17.925"/>
	</g>
	<g id="XMLID_246_">
		<rect id="XMLID_1170_" x="629.915" y="491.946" fill="#414042" width="85.043" height="17.929"/>
	</g>
	<g id="XMLID_251_">
		<rect id="XMLID_1169_" x="629.915" y="545.663" fill="#414042" width="152.018" height="17.922"/>
	</g>
	<g id="XMLID_250_">
		<rect id="XMLID_1168_" x="629.915" y="581.802" fill="#414042" width="85.043" height="17.92"/>
	</g>
	<g id="XMLID_253_">
		<rect id="XMLID_1167_" x="629.915" y="635.507" fill="#414042" width="152.018" height="17.93"/>
	</g>
	<g id="XMLID_254_">
		<rect id="XMLID_1166_" x="227.023" y="671.11" fill="#414042" width="220.051" height="17.922"/>
	</g>
	<g id="XMLID_252_">
		<rect id="XMLID_1165_" x="629.915" y="671.653" fill="#414042" width="85.043" height="17.922"/>
	</g>
	<path id="XMLID_239_" fill="#53BBA5" d="M296.172,165.565v241.741h31.079v40.898v77.522c0,4.221,5.277,6.139,7.995,2.9
		l101.598-121.32H741.1V165.565H296.172z"/>
	<g id="XMLID_258_">
		<path id="XMLID_1162_" fill="#414042" d="M331.834,539.228c-1.554,0-3.133-0.271-4.67-0.83c-5.393-1.967-8.874-6.936-8.874-12.672
			V416.267h-31.078V156.604h462.856v259.663h-309.04l-98.919,118.119C339.479,537.524,335.73,539.228,331.834,539.228z
			 M305.137,398.345h31.078v115.167l96.445-115.167h299.471V174.526H305.137V398.345z"/>
	</g>
	<g id="XMLID_255_">
		<rect id="XMLID_1161_" x="350.252" y="217.963" fill="#414042" width="322.188" height="17.925"/>
	</g>
	<g id="XMLID_256_">
		<rect id="XMLID_1160_" x="350.252" y="271.939" fill="#414042" width="322.188" height="17.922"/>
	</g>
	<g id="XMLID_257_">
		<rect id="XMLID_206_" x="350.252" y="325.921" fill="#414042" width="190.715" height="17.92"/>
	</g>
</g>
</svg>
