<svg enable-background="new 0 0 1000.637 1000.678" height="1000.678" viewBox="0 0 1000.637 1000.678" width="1000.637" xmlns="http://www.w3.org/2000/svg"><g fill="#fff"><path d="m514.52 590.495c-11.045 5.683-21.696 5.683-32.741 0l-365.716-195.745 366.11-196.139c11.045-5.688 21.697-5.688 32.738 0l371.638 195.739zm190.939 153.096c0 5.682-3.539 9.347-9.06 11.365l-136.107 42.648c-41.821 12.992-85.22 12.992-127.042 0l-125.453-41.023c-3.549-3.644-7.1-7.309-7.1-12.99v-194.107l159.378 84.061c12.626 5.685 25.251 9.327 37.877 9.327 12.625 0 25.247-3.643 37.878-9.327l170.818-89.755zm231.583-375.236-402.401-212.795c-23.673-12.991-52.468-12.991-76.139 0l-395.301 212.795c-10.65 5.688-16.176 15.024-16.176 26.394 0 11.376 5.526 22.339 16.176 25.587l37.872 22.333v199.8c-14.597 9.338-25.247 24.366-25.247 43.053 0 28.02 21.696 50.348 48.918 50.348s48.918-21.928 48.918-49.947c0-18.673-11.047-35.331-25.247-43.051v-175.836l105.335 56.042v220.102c0 26.002 16.176 50.357 41.817 57.668l125.062 41.021c25.247 7.308 52.468 12.992 79.69 12.992 25.251 0 50.893-3.655 76.144-11.376l134.138-43.039c25.241-7.309 41.811-31.677 41.811-57.669v-223.352l185.021-97.054c11.062-5.688 16.181-15.031 16.181-25.995-.401-12.996-5.922-23.96-16.572-28.021z"/><path d="m264.401 422.371c-5.525 0-12.625-3.655-16.177-9.343-5.52-9.343-1.968-20.712 7.1-25.992l88.765-52.383c9.077-5.688 20.122-2.033 25.253 7.308 5.52 9.337 1.969 20.713-7.102 25.989l-88.765 52.387c-3.548-.001-5.525 2.034-9.074 2.034z"/></g></svg>