<svg enable-background="new 0 0 1000.637 1000.678" height="1000.678" viewBox="0 0 1000.637 1000.678" width="1000.637" xmlns="http://www.w3.org/2000/svg"><path d="m517.371 125.01c-9.408-8.956-24.697-8.956-34.105 0-12.355 11.73-302.786 289.813-302.786 452.894 0 167.868 143.479 304.48 319.838 304.48 176.36 0 319.838-136.612 319.838-304.48 0-163.081-290.429-441.164-302.785-452.894zm-17.053 711.375c-149.731 0-271.528-115.921-271.528-258.48 0-111.911 182.306-315.516 271.528-403.808 89.223 88.374 271.53 291.897 271.53 403.808 0 142.559-121.797 258.48-271.53 258.48zm185.311-270.446c-13.273-1.531-25.238 7.654-26.699 20.232-8.643 72.546-61.746 132.82-135.387 153.5-12.814 3.64-20.068 16.37-16.277 28.571 3.086 10.033 12.732 16.512 23.154 16.512 2.238 0 4.547-.307 6.867-.92 92.154-25.932 158.764-101.492 169.646-192.423 1.46-12.659-8.031-24.001-21.304-25.472z" fill="#fff"/></svg>