<svg enable-background="new 0 0 1000.637 1000.678" height="1000.678" viewBox="0 0 1000.637 1000.678" width="1000.637" xmlns="http://www.w3.org/2000/svg"><g fill="#fff"><path d="m250.355 587.923h153.826c10.614 0 19.225-10.51 19.225-23.483 0-12.955-8.61-23.465-19.225-23.465h-153.826c-10.621 0-19.224 10.51-19.224 23.465.001 12.973 8.603 23.483 19.224 23.483z"/><path d="m250.355 442.62h153.826c10.614 0 19.225-10.51 19.225-23.474 0-12.965-8.61-23.468-19.225-23.468h-153.826c-10.621 0-19.224 10.503-19.224 23.468.001 12.964 8.603 23.474 19.224 23.474z"/><path d="m250.355 297.321h153.826c10.614 0 19.225-10.51 19.225-23.474 0-12.958-8.61-23.467-19.225-23.467h-153.826c-10.621 0-19.224 10.509-19.224 23.467.001 12.964 8.603 23.474 19.224 23.474z"/><path d="m830.62 385.87-192.294-76.915c-21.229 0-38.448 17.22-38.448 38.46v499.911c0 21.256 17.22 38.463 38.448 38.463h192.294c21.228 0 38.447-17.207 38.447-38.463v-423.001c0-21.236-10.493-26.394-38.447-38.455zm-8.383 448.543h-175.528v-465.204l175.528 71.57z"/><path d="m691.82 557.526h76.922c10.614 0 19.212-10.771 19.212-24.049 0-13.276-8.598-24.049-19.212-24.049h-76.922c-10.614 0-19.226 10.772-19.226 24.049.001 13.278 8.612 24.049 19.226 24.049z"/><path d="m500.316 115.785h-346.099c-21.237 0-38.456 17.213-38.456 38.455v692.191c0 21.256 17.219 38.463 38.456 38.463h115.302.068 115.358.08 115.291c21.242 0 38.461-17.207 38.461-38.463v-692.191c0-21.242-17.218-38.455-38.461-38.455zm-123.401 717.128h-100.495v-112.494h100.495zm108.05-1.5h-70.086v-110.238c0-20.299-15.679-36.754-35.049-36.754h-105.122c-19.358 0-35.043 16.455-35.043 36.754v110.238h-70.091v-661.467h315.391z"/><path d="m691.82 701.851h76.922c10.614 0 19.212-10.77 19.212-24.066 0-13.279-8.598-24.049-19.212-24.049h-76.922c-10.614 0-19.226 10.77-19.226 24.049.001 13.296 8.612 24.066 19.226 24.066z"/></g></svg>