<svg enable-background="new 0 0 1000.637 1000.678" height="1000.678" viewBox="0 0 1000.637 1000.678" width="1000.637" xmlns="http://www.w3.org/2000/svg"><g fill="#fff"><path d="m643.587 217.813h13.388c74.979 13.392 83.019 21.432 83.019 42.85v18.751h45.518v-93.726c0-10.725-2.668-29.476-16.056-50.894-21.433-32.143-58.92-48.198-107.118-48.198h-125.872c-13.389 0-24.1 10.711-24.1 24.099 0 69.63 48.198 93.729 131.221 107.118zm-80.341-85.687h99.091c34.807 0 56.226 8.03 69.617 26.78 2.681 8.026 5.358 13.389 5.358 18.737v16.069c-16.069-8.025-40.169-13.388-74.976-18.75l-10.725-2.668c-56.222-10.72-80.336-18.749-88.365-40.168zm-26.78 589.14c-13.389 16.068-18.751 18.75-32.14 18.75-10.71 0-13.388-2.682-29.448-18.75-18.75-21.419-34.82-32.13-64.281-32.13-29.448 0-42.836 10.711-64.268 32.13-10.71 16.068-16.069 18.75-26.78 18.75h-8.029v45.53h10.71c29.461 0 42.85-10.725 64.268-32.142 13.392-16.07 18.75-18.751 29.461-18.751 10.707 0 16.069 2.681 32.139 18.751 18.741 21.417 34.81 32.142 61.59 32.142 29.458 0 45.531-10.725 64.268-32.142 13.389-13.389 18.751-16.07 26.781-16.07h8.04v-45.518h-8.04c-29.462-2.68-45.517 8.031-64.271 29.45z"/><path d="m863.185 314.223h-176.748c-13.392 0-21.432 10.708-21.432 24.099v530.229h-508.812v-144.605l211.567-214.238h275.826v-45.531h-283.868c-5.345 0-10.708 2.694-16.07 8.043l-224.946 227.627c-5.349 5.359-5.349 10.708-5.349 16.069v176.748c0 13.389 10.711 21.418 24.099 21.418h728.398c13.39 0 21.433-10.711 21.433-21.418v-557.023c-2.68-13.389-13.391-21.418-24.098-21.418zm-155.331 551.661v-431.155h131.217v431.155zm131.217-506.131v29.448h-131.217v-29.448z"/><path d="m608.777 590.048h-8.04c-26.781 0-42.851 10.707-61.591 32.14-13.389 16.068-18.75 18.736-29.458 18.736-10.711 0-13.392-2.668-29.461-18.736-18.737-21.433-34.81-32.14-64.268-32.14-29.461 0-42.85 10.707-64.268 32.14-13.392 16.068-18.75 18.736-29.461 18.736h-10.71v45.53h10.71c29.461 0 42.85-10.706 64.268-32.139 13.392-16.06 18.75-18.74 29.461-18.74 10.707 0 16.069 2.681 32.139 18.74 18.741 21.433 34.81 32.139 61.59 32.139 29.458 0 45.531-10.706 64.268-32.139 13.389-13.392 18.751-16.06 26.781-16.06h8.04z"/></g></svg>