<?xml version="1.0" encoding="utf-8"?>
<!-- Generator: Adobe Illustrator 16.0.0, SVG Export Plug-In . SVG Version: 6.00 Build 0)  -->
<!DOCTYPE svg PUBLIC "-//W3C//DTD SVG 1.1//EN" "http://www.w3.org/Graphics/SVG/1.1/DTD/svg11.dtd">
<svg version="1.1" id="图形" xmlns="http://www.w3.org/2000/svg" xmlns:xlink="http://www.w3.org/1999/xlink" x="0px" y="0px"
	 width="1000.637px" height="1000.678px" viewBox="0 0 1000.637 1000.678" enable-background="new 0 0 1000.637 1000.678"
	 xml:space="preserve">
<g>
	<g>
		<path d="M470.632,598.275c-139.231,0-252.503-113.255-252.503-252.482c0-139.229,113.269-252.477,252.503-252.477
			c139.23,0,252.48,113.271,252.48,252.498C723.113,485.053,609.862,598.275,470.632,598.275z M470.632,139.618
			c-113.689,0-206.181,92.487-206.181,206.175c0,113.693,92.494,206.157,206.181,206.157c113.684,0,206.153-92.496,206.153-206.157
			C676.807,232.105,584.316,139.618,470.632,139.618z"/>
		<path d="M85.002,907.334c-1.666,0-3.326-0.181-5.013-0.554c-12.484-2.744-20.367-15.126-17.621-27.624
			c24.643-111.439,90.557-208.18,185.604-272.383c10.601-7.1,25.006-4.34,32.141,6.247c7.166,10.598,4.373,24.981-6.227,32.163
			c-85.165,57.498-144.22,144.168-166.276,243.977C105.211,899.992,95.623,907.334,85.002,907.334z"/>
		<path d="M607.465,907.361H85.053c-12.797,0-23.168-10.37-23.168-23.168c0-12.79,10.374-23.162,23.168-23.162h522.389
			c12.797,0,23.162,10.374,23.162,23.162C630.604,896.991,620.253,907.361,607.465,907.361z"/>
	</g>
	<path d="M788.527,534.231c-56.645,56.646-150.283,136.413-150.283,219.646c0,83.236,67.05,150.286,150.283,150.286
		c83.238,0,150.287-67.05,150.287-150.286C938.813,670.643,847.484,593.19,788.527,534.231z M788.529,864.87
		c-61.621,0-111.123-49.499-111.123-111.124s69.703-120.211,111.123-161.635c43.438,43.442,111.123,101.023,111.123,161.635
		C899.651,815.371,850.15,864.87,788.529,864.87z"/>
</g>
</svg>
