<svg enable-background="new 0 0 1000.637 1000.678" height="1000.678" viewBox="0 0 1000.637 1000.678" width="1000.637" xmlns="http://www.w3.org/2000/svg"><path d="m289.583 826.415h-26.51c-41.229 0-74.758-38.69-74.758-86.233v-344.893c0-47.554 33.529-86.233 74.758-86.233h26.51c41.218 0 74.746 38.673 74.746 86.227v344.899c-.001 47.543-33.529 86.233-74.746 86.233zm-26.511-470.339c-17.247 0-31.261 17.575-31.261 39.189v344.917c0 21.598 14.014 39.194 31.261 39.194h26.51c17.222 0 31.248-17.597 31.248-39.194v-344.893c0-21.62-14.037-39.195-31.248-39.195zm250.574 470.339h-26.465c-41.192 0-74.699-38.69-74.699-86.233v-250.843c0-47.555 33.506-86.226 74.699-86.226h26.465c41.203 0 74.684 38.671 74.684 86.226v250.856c0 47.53-33.492 86.22-74.684 86.22zm-26.465-376.272c-17.223 0-31.225 17.576-31.225 39.196v250.856c0 21.595 14.002 39.195 31.225 39.195h26.465c17.221 0 31.232-17.601 31.232-39.195v-250.856c0-21.621-14.012-39.196-31.232-39.196zm250.549 376.272h-26.451c-41.123 0-74.582-38.69-74.582-86.233v-501.692c0-47.554 33.459-86.227 74.582-86.227h26.451c41.135 0 74.592 38.673 74.592 86.227v501.692c0 47.543-33.457 86.233-74.592 86.233zm-26.451-627.12c-17.188 0-31.178 17.575-31.178 39.195v501.692c0 21.598 13.99 39.194 31.178 39.194h26.451c17.188 0 31.178-17.597 31.178-39.194v-501.692c0-21.62-13.979-39.195-31.178-39.195z"/></svg>