<svg enable-background="new 0 0 1000.637 1000.678" height="1000.678" viewBox="0 0 1000.637 1000.678" width="1000.637" xmlns="http://www.w3.org/2000/svg"><path d="m743.59 522.013h-119.944c-11.535.097-22.631-4.407-30.836-12.516l-75.146-70.819c-18.497-16.824-47.136-15.479-63.97 3.02-.53.584-1.044 1.185-1.549 1.795l-48.17 61.18c-8.435 10.878-21.398 17.268-35.171 17.34h-112.237v-43.357h87.669c13.754-.265 26.718-6.407 35.65-16.85l66.003-83.83c15.302-19.435 43.472-22.78 62.907-7.478 1.068.841 2.098 1.726 3.081 2.663l96.351 93.457c8.361 7.808 19.391 12.107 30.824 12.037h102.133z"/><path d="m784.539 702.662h-568.434c-29.277 0-52.996-23.719-52.996-52.987v-385.387c0-29.259 23.718-52.986 52.996-52.986h568.434c29.27 0 52.988 23.728 52.988 52.986v385.387c0 29.268-23.718 52.987-52.988 52.987zm-568.434-443.189c-2.567.23-4.602 2.257-4.823 4.815v385.387c0 2.93 2.379 5.301 5.301 5.301h567.956c2.736-.248 4.834-2.548 4.824-5.301v-385.387c-.23-2.558-2.266-4.584-4.824-4.815zm551.096 529.903h-540.016c-13.31.016-24.1-10.764-24.108-24.065-.018-13.302 10.762-24.099 24.064-24.106h.044 540.017c13.295.008 24.076 10.805 24.066 24.106-.01 13.283-10.78 24.054-24.067 24.065z"/></svg>