<svg enable-background="new 0 0 1000.637 1000.678" height="1000.678" viewBox="0 0 1000.637 1000.678" width="1000.637" xmlns="http://www.w3.org/2000/svg"><g fill="#fff"><path d="m784.324 221.6c-119.518-13.541-209.432-45.867-267.232-96.125l-15.219-13.229-16.401 11.719c-90.606 64.696-180.215 97.469-266.305 97.469h-25.551v357.819c0 109.696 96.712 209.184 295.677 304.177l10.473 5.004 10.636-4.56c196.846-84.574 296.618-187.022 296.618-304.622v-355.082zm-28.418 357.652c0 93.283-85.785 178.412-255.055 253.025-169.962-82.887-256.121-167.994-256.121-253.025v-307.519c83.606-5.414 168.984-37.293 254.381-95.003 61.29 46.727 147.508 77.89 256.795 92.836z"/><path d="m372.437 466.348c-9.354-10.573-25.501-11.577-36.081-2.224-10.599 9.354-11.583 25.508-2.23 36.093l97.264 110.08c10.091 11.372 24.12 17.207 38.292 17.207 15.354 0 29.915-6.888 39.653-18.756l157.862-193.88c8.906-10.943 7.245-27.036-3.706-35.96-10.938-8.9-27.03-7.265-35.949 3.698l-157.842 193.808z"/></g></svg>