<svg enable-background="new 0 0 1000.637 1000.678" height="1000.678" viewBox="0 0 1000.637 1000.678" width="1000.637" xmlns="http://www.w3.org/2000/svg"><g fill="#fff"><path d="m600.035 774.771-86.167-86.167c-23.522 15.203-47.571 29.561-72.125 43.009l-172.694-172.694c13.096-24.824 27.26-49.066 42.475-72.66l-85.643-85.643c-7.946-7.945-7.951-20.832-.02-28.773.009-.009.019-.019.019-.019l71.948-71.948c55.244-55.194 141.896-63.391 206.515-19.541 128.376-91.134 259.239-119.139 297.139-81.2 37.89 37.93 9.924 168.791-81.205 297.133 43.85 64.619 35.657 151.276-19.54 206.515l-71.949 71.947c-7.927 7.947-20.786 7.965-28.753.041zm-143.91-460.503c-31.787-31.797-83.335-31.796-115.127-.004l-57.556 57.556c-7.951 7.939-7.961 20.831-.026 28.788l.015.015 43.169 43.169zm302.211-71.946c-18.318-18.319-69.745-12.332-130.481 13.41l117.061 117.062c25.814-60.728 31.896-112.078 13.482-130.473zm-31.973 169.497-137.523-137.525c-49.288 26.249-94.471 59.581-134.099 98.933-51.775 54.128-97.175 114.006-135.316 178.478l129.528 129.528c64.065-38.729 123.895-84.076 178.481-135.313 39.357-39.641 72.722-84.814 98.979-134.111zm-39.979 247.831c31.803-31.782 31.798-83.328.007-115.117l-129.525 129.524 43.159 43.158c7.956 7.956 20.838 7.956 28.783.012.011-.012.011-.012.021-.021zm-201.481-143.895c-31.792-31.792-31.792-83.342-.001-115.132 31.792-31.792 83.341-31.792 115.133 0 31.791 31.79 31.781 83.331-.001 115.132-31.786 31.745-83.29 31.739-115.071-.002zm86.355-86.355c-15.891-15.901-41.667-15.91-57.567-.01-15.9 15.891-15.901 41.665-.005 57.562 15.885 15.895 41.665 15.9 57.57.015l.006-.005c15.896-15.896 15.931-41.655.056-57.562z"/><path d="m182.817 817.899s-3.009-112.122 28.783-143.914c31.792-31.791 83.336-31.798 115.132-.001 31.792 31.792 31.791 83.341-.001 115.133-31.851 31.852-143.914 28.782-143.914 28.782zm115.133-115.131c-15.896-15.896-41.661-15.896-57.562.006-15.89 15.891-28.787 86.344-28.787 86.344s70.447-12.903 86.338-28.793c15.841-15.9 15.819-41.625-.051-57.495z"/></g></svg>