<svg enable-background="new 0 0 1000.637 1000.678" height="1000.678" viewBox="0 0 1000.637 1000.678" width="1000.637" xmlns="http://www.w3.org/2000/svg"><g fill="#fff"><path d="m414.745 756.688h-97.152c-45.385 0-88.122-17.683-120.225-49.786-32.11-32.114-49.792-74.845-49.792-120.23s17.683-88.116 49.792-120.225c32.103-32.109 74.839-49.793 120.225-49.793 13.438 0 24.288-10.851 24.288-24.287v-.301c0-58.367 22.77-113.324 64.058-154.536 41.29-41.21 96.164-64.058 154.536-64.058 35.067 0 68.618 8.046 99.583 23.907 29.601 15.181 55.786 37.27 75.675 63.982 8.042 10.78 23.221 12.979 34.002 4.935 10.78-8.047 12.974-23.229 4.933-34.002-24.371-32.638-56.32-59.659-92.443-78.177-37.428-19.129-79.471-29.222-121.749-29.222-36.053 0-71.044 7.056-103.984 21.021-31.8 13.436-60.418 32.713-84.932 57.233-24.52 24.514-43.796 53.13-57.228 84.932-11.005 25.954-17.687 53.207-20.042 81.214-49.561 5.235-95.481 27.092-131.231 62.766-41.289 41.293-64.059 96.238-64.059 154.61 0 58.373 22.77 113.317 64.059 154.526 41.218 41.297 96.168 64.066 154.535 64.066h97.152c13.437 0 24.288-10.852 24.288-24.288s-10.852-24.287-24.289-24.287z"/><path d="m827.644 368.078h-291.457c-26.79 0-48.576 21.786-48.576 48.575v388.611c0 26.791 21.786 48.576 48.576 48.576h291.457c26.791 0 48.576-21.785 48.576-48.576v-388.611c0-26.79-21.785-48.575-48.576-48.575zm0 437.186h-291.457v-97.154h291.457zm0-145.729h-291.457v-97.152h291.457zm0-145.728h-291.457v-97.231.077h291.457v-.077z"/><path d="m730.49 465.231c0 13.413 10.875 24.288 24.289 24.288 13.413 0 24.288-10.875 24.288-24.288 0-13.415-10.875-24.29-24.288-24.29-13.414 0-24.289 10.875-24.289 24.29z"/><path d="m730.49 610.959c0 13.412 10.875 24.288 24.289 24.288 13.413 0 24.288-10.876 24.288-24.288 0-13.413-10.875-24.288-24.288-24.288-13.414 0-24.289 10.875-24.289 24.288z"/><path d="m730.49 756.688c0 13.413 10.875 24.288 24.289 24.288 13.413 0 24.288-10.875 24.288-24.288 0-13.415-10.875-24.288-24.288-24.288-13.414-.001-24.289 10.872-24.289 24.288z"/></g></svg>