<?xml version="1.0" encoding="utf-8"?>
<!-- Generator: Adobe Illustrator 16.0.0, SVG Export Plug-In . SVG Version: 6.00 Build 0)  -->
<!DOCTYPE svg PUBLIC "-//W3C//DTD SVG 1.1//EN" "http://www.w3.org/Graphics/SVG/1.1/DTD/svg11.dtd">
<svg version="1.1" id="图形" xmlns="http://www.w3.org/2000/svg" xmlns:xlink="http://www.w3.org/1999/xlink" x="0px" y="0px"
	 width="1000.637px" height="1000.678px" viewBox="0 0 1000.637 1000.678" enable-background="new 0 0 1000.637 1000.678"
	 xml:space="preserve">
<g>
	<path d="M809.692,190.993c-66.991-66.99-184.871-64.733-309.349-3.056c-124.452-61.677-242.358-63.934-309.347,3.056
		c-55.68,55.679-63.449,146.499-29.256,246.884c-20.75,30.801-16.373,72.041,10.375,97.804
		c-44.643,109.239-42.673,212.418,18.906,273.995c66.989,66.989,184.921,64.77,309.471,3.019
		c121.947,60.404,241.036,65.145,309.199-3.019c68.187-68.187,63.397-187.327,2.942-309.322
		C873.09,378.32,877.879,259.18,809.692,190.993z M773.577,773.562c-76.94,76.953-265.465,23.471-417.676-128.766
		c-9.975-9.965-26.149-9.965-36.114,0c-9.975,9.975-9.975,26.138,0,36.112c38.012,38.134,80.134,71.953,125.602,100.811
		c-93.578,38.233-174.87,35.215-218.254-8.183c-44.519-44.506-45.142-126.384-8.505-216.931c2.245,0.213,4.39,0.699,6.685,0.699
		c42.311,0,76.616-34.306,76.616-76.617c0-16.771-5.535-32.161-14.689-44.768c20.826-28.381,43.771-55.131,68.66-80.045
		c9.965-9.963,9.965-26.138,0-36.114c-9.975-9.964-26.149-9.964-36.114,0c-27.083,27.135-52.024,56.315-74.595,87.267
		c-6.459-1.871-13.144-2.868-19.877-2.956c-6.685,0.087-13.319,1.06-19.741,2.88c-22.908-76.965-15.787-142.509,21.561-179.845
		c49.769-49.768,149.441-46.426,260.252,11.373c4.104,2.008,8.68,2.844,13.221,2.419c4.401,0.325,8.815-0.523,12.793-2.468
		c110.785-57.75,210.409-61.091,260.177-11.324c44.694,44.694,45.143,127.06,8.031,218.055
		c-16.359-25.739-34.38-50.406-53.945-73.799c5.212-9.253,8.429-19.778,8.429-31.138c0-35.253-28.581-63.848-63.848-63.848
		c-35.266,0-63.847,28.594-63.847,63.848c0,35.253,28.581,63.847,63.847,63.847c5.089,0,9.953-0.736,14.69-1.858
		c25.75,30.49,48.571,63.336,68.163,98.116c-25.165,45.229-59.06,91.045-100.71,134.366c-2.543-0.313-5.051-0.772-7.682-0.772
		c-35.266-0.05-63.873,28.506-63.921,63.771c-0.05,35.266,28.506,63.873,63.771,63.924c35.267,0.048,63.873-28.509,63.921-63.774
		c0.013-12.955-3.915-25.614-11.271-36.289c30.727-32.694,58.311-68.198,82.402-106.045
		C818.683,646.49,818.271,728.869,773.577,773.562z"/>
	<path d="M506.243,404.071c-56.415,0-102.156,45.728-102.156,102.157c0,56.414,45.741,102.154,102.156,102.154
		c56.413,0,102.154-45.74,102.154-102.154C608.397,449.799,562.656,404.071,506.243,404.071z M506.243,557.305
		c-28.207,0-51.079-22.895-51.079-51.103c0-28.221,22.896-51.091,51.102-51.079c28.22,0.013,51.079,22.883,51.079,51.104
		C557.346,534.446,534.451,557.305,506.243,557.305z"/>
</g>
</svg>
