<?xml version="1.0" encoding="utf-8"?>
<!-- Generator: Adobe Illustrator 16.0.0, SVG Export Plug-In . SVG Version: 6.00 Build 0)  -->
<!DOCTYPE svg PUBLIC "-//W3C//DTD SVG 1.1//EN" "http://www.w3.org/Graphics/SVG/1.1/DTD/svg11.dtd">
<svg version="1.1" id="图形" xmlns="http://www.w3.org/2000/svg" xmlns:xlink="http://www.w3.org/1999/xlink" x="0px" y="0px"
	 width="1000.637px" height="1000.678px" viewBox="0 0 1000.637 1000.678" enable-background="new 0 0 1000.637 1000.678"
	 xml:space="preserve">
<g>
	<path d="M763.666,575.67c-24.427,20.031-54.896,34.412-93.829,46.595c-11.267,3.504-22.884,6.761-37.08,10.454
		c-5.257,1.362-27.766,7.048-33.349,8.513c-13.709,3.59-27.717-4.608-31.308-18.303c-3.595-13.709,4.604-27.718,18.302-31.311
		c5.869-1.528,28.455-7.224,33.485-8.536c11.631-2.955,23.187-6.223,34.652-9.766c33.212-10.392,58.162-22.157,76.663-37.306
		c67.426-55.244,128.366-44.478,163.095,30.921l6.783,14.772l-10.427,12.431c-115.56,137.73-215.033,207.771-301.661,207.771
		l-439.26,12.18c-14.158,0-25.638-11.479-25.638-25.638c0-14.155,11.479-25.639,25.638-25.639l439.26-12.178
		c64.871,0,149.597-58.101,251.299-176.39C822.089,544.349,800.971,545.136,763.666,575.67z M150.835,691.517
		c-0.238,14.146-11.912,25.438-26.07,25.188c-14.159-0.237-25.444-11.904-25.206-26.064l2.491-145.114l6.741-7.187
		c68.221-72.857,135.752-105.675,202.232-95.034c50.25,8.023,78.662,23.69,118.114,57.354l5.564,4.769
		c17.075,14.586,26.227,21.459,38.149,27.793c9.027,4.817,20.845,7.697,36.774,9.225c7.224,0.753,12.656,1.027,26.864,1.616
		c58.713,2.489,82.047,10.463,82.047,52.741c0,57.686-37.956,94.291-106.021,105.781c-44.816,7.562-109.781-9.864-197.543-50.975
		c-12.819-6.011-18.337-21.272-12.33-34.089c6.009-12.834,21.276-18.341,34.095-12.331c78.967,36.991,135.602,52.179,167.241,46.843
		c44.304-7.485,62.507-24.31,63.244-53.329c-5.482-1.803-13.759-2.566-32.888-3.392c-9.915-0.288-19.815-0.89-29.692-1.789
		c-22.021-2.155-39.941-6.537-55.89-15.05c-16.099-8.562-27.641-17.2-47.352-34.074l-5.539-4.721
		c-32.917-28.102-53.512-39.457-92.939-45.755c-45.047-7.186-94.915,15.888-149.959,72.395L150.835,691.517L150.835,691.517z
		 M255.698,354.623c0,14.159-11.481,25.638-25.639,25.638c-14.158,0-25.638-11.479-25.638-25.638V237.868
		c0-28.317,22.959-51.276,51.277-51.276H742.82c28.317,0,51.276,22.959,51.276,51.276v153.828c0,28.319-22.959,51.277-51.276,51.277
		H468.362c-14.158,0-25.638-11.48-25.638-25.639c0-14.158,11.48-25.638,25.638-25.638H742.82V237.868H255.698V354.623z"/>
</g>
</svg>
