<?xml version="1.0" encoding="utf-8"?>
<!-- Generator: Adobe Illustrator 16.0.0, SVG Export Plug-In . SVG Version: 6.00 Build 0)  -->
<!DOCTYPE svg PUBLIC "-//W3C//DTD SVG 1.1//EN" "http://www.w3.org/Graphics/SVG/1.1/DTD/svg11.dtd">
<svg version="1.1" id="图形" xmlns="http://www.w3.org/2000/svg" xmlns:xlink="http://www.w3.org/1999/xlink" x="0px" y="0px"
	 width="1000.637px" height="1000.678px" viewBox="0 0 1000.637 1000.678" enable-background="new 0 0 1000.637 1000.678"
	 xml:space="preserve">
<g>
	<path d="M799.131,746.27C762.384,621.654,652.173,532.917,522.59,523.61V388.993h89.063
		c12.297,0,22.266-9.969,22.266-22.266v-89.064c0-12.296-9.969-22.266-22.266-22.266H388.995c-12.297,0-22.266,9.97-22.266,22.266
		v89.064c0,12.296,9.969,22.266,22.266,22.266h89.063V523.61c-129.594,9.307-239.837,98.032-276.584,222.659
		c-24.049,5.196-39.324,28.887-34.139,52.925c5.197,24.049,28.887,39.324,52.926,34.139c20.504-4.436,35.149-22.57,35.139-43.554
		c0-11.47-4.458-21.82-11.579-29.702c30.801-106.307,123.952-182.629,234.238-191.913v183.28
		c-13.242,7.697-22.267,21.896-22.267,38.356c0,24.593,19.94,44.532,44.533,44.532c24.591,0,44.532-19.939,44.532-44.532
		c0-16.438-9.024-30.637-22.267-38.356v-183.28c110.308,9.284,203.447,85.628,234.217,191.956
		c-7.405,8.111-11.536,18.678-11.558,29.659c0,24.593,19.938,44.531,44.532,44.531c24.592,0,44.531-19.938,44.531-44.531
		C834.291,768.796,819.636,750.684,799.131,746.27z"/>
	<path d="M344.462,478.057h53.904c12.307,0,22.266-9.97,22.266-22.266c0-12.296-9.959-22.266-22.266-22.266h-53.904
		c-12.296,0-22.266-9.97-22.266-22.267V233.131c0-12.296,9.97-22.266,22.266-22.266h311.722c12.297,0,22.266,9.97,22.266,22.266
		v178.127c0,12.297-9.969,22.267-22.266,22.267h-63.058c-12.295,0-22.266,9.97-22.266,22.266c0,12.296,9.971,22.266,22.266,22.266
		h63.058c36.889,0,66.799-29.909,66.799-66.798V233.131c0-36.889-29.91-66.798-66.799-66.798H344.462
		c-36.889,0-66.797,29.909-66.797,66.798v178.127C277.665,448.148,307.574,478.057,344.462,478.057z"/>
</g>
</svg>
