<svg height="200" viewBox="0 0 1024 1024" width="200" xmlns="http://www.w3.org/2000/svg"><path d="m904.685056 156.203598h-785.371135c-34.20401 0-62.002123 27.821649-62.002122 62.005192v392.678404c0 34.190707 27.819602 62.008262 62.002122 62.008263h785.371135c34.186613 0 62.006216-27.817556 62.006215-62.008263v-392.678404c-.00307-34.183544-27.819602-62.005192-62.006215-62.005192zm-785.371135 41.337477h785.371135c11.410887 0 20.669762 9.278317 20.669761 20.667715v289.346991h-826.708611v-289.346991c0-11.389398 9.259898-20.667715 20.667715-20.667715zm785.371135 434.025091h-785.371135c-11.387351 0-20.666692-9.262968-20.666692-20.675902v-61.999052h826.707588v61.999052c0 11.420097-9.254781 20.675902-20.669761 20.675902zm-206.675107-171.163311h165.344792c11.410887.005117 20.672832-9.239432 20.677949-20.654412.00921-11.413957-9.239432-20.673855-20.653389-20.681019h-165.369352c-11.416004 0-20.669762 9.253758-20.669762 20.665669 0 11.413957 9.253758 20.669762 20.669762 20.669762zm-506.359536 262.706237c-11.412934 0-20.666692 9.252735-20.666692 20.668739v103.334483c-.004093 11.414981 9.244548 20.673855 20.658506 20.673855 11.416004.00921 20.672832-9.244548 20.676925-20.657482v-103.352903c-.001023-11.413957-9.254781-20.666692-20.668739-20.666692zm160.176073 0c-11.417027 0-20.669762 9.252735-20.669762 20.668739v103.334483c-.00614 11.414981 9.239432 20.673855 20.654412 20.683065 11.413957.011256 20.673855-9.233292 20.683065-20.658506v-103.359042c0-11.416004-9.253758-20.668739-20.667715-20.668739zm160.173002 0c-11.412934 0-20.666692 9.252735-20.666692 20.668739v103.334483c-.00921 11.414981 9.238408 20.673855 20.652366 20.683065 11.419074.011256 20.671809-9.233292 20.679995-20.658506v-103.359042c.001023-11.416004-9.253758-20.668739-20.665669-20.668739zm160.17198 0c-11.409864 0-20.664645 9.252735-20.664646 20.668739v103.334483c0 11.414981 9.254781 20.663622 20.664646 20.663622 11.42112 0 20.674878-9.248641 20.674878-20.663622v-103.334483c0-11.416004-9.253758-20.668739-20.674878-20.668739zm160.181189 0c-11.418051 0-20.670785 9.252735-20.670785 20.668739v103.334483c0 11.414981 9.252735 20.663622 20.670785 20.663622 11.410887 0 20.663622-9.248641 20.663622-20.663622v-103.334483c0-11.416004-9.252735-20.668739-20.663622-20.668739z" /></svg>