<svg height="200" viewBox="0 0 1024 1024" width="200" xmlns="http://www.w3.org/2000/svg"><path d="m301.165666 217.189577c-5.344728 0-10.689457-1.070378-14.703887-3.028986-7.261381-3.741207-6.686283-9.532097 1.52268-13.005198 2.490727-.979304 58.255799-25.03314 20.629852-48.105625-56.531528-34.653241-12.025894-73.137741-10.119474-74.739215 5.346775-4.454452 17.184381-6.058996 26.736944-3.563152 9.550517 2.40477 12.985756 8.017604 7.827269 12.47001-1.334391 1.159406-33.802874 29.754674 6.875594 54.78679 47.744397 29.308513 4.204765 60.487629-25.585725 72.870658-3.820002 1.603521-8.411577 2.314719-13.183253 2.314718zm221.157959 0c-5.350868 0-10.691503-1.070378-14.70491-3.028986-7.260357-3.741207-6.67912-9.532097 1.528819-13.005198 2.483564-.979304 58.248635-25.03314 20.62883-48.105625-56.531528-34.653241-12.036128-73.137741-10.126639-74.739215 5.158487-4.454452 17.193591-6.058996 26.740015-3.563152 9.547447 2.40477 12.983709 8.017604 7.824199 12.47001-1.333368 1.159406-33.80185 29.754674 6.876618 54.78679 47.750537 29.308513 4.201695 60.487629-25.586749 72.870658-3.815909 1.603521-8.586562 2.314719-13.180183 2.314718zm220.970693 0c-5.348821 0-10.69662-1.070378-14.709003-3.028986-7.255241-3.741207-6.674003-9.532097 1.533936-13.005198 2.478448-.979304 58.243519-25.03314 20.623713-48.105625-56.527434-34.653241-12.035104-73.137741-10.126638-74.739215 5.158487-4.454452 17.194614-6.058996 26.745131-3.563152 9.55154 2.40477 12.984732 8.017604 7.827269 12.47001-1.337461 1.159406-33.802874 29.754674 6.880711 54.78679 47.740304 29.308513 4.199649 60.487629-25.603121 72.870658-3.816932 1.603521-8.396227 2.314719-13.171998 2.314718zm237.776452 270.364661h-119.987768a17.809621 17.809621 0 0 1 -17.865903-17.864879v-100.167351a17.813714 17.813714 0 0 1 17.865903-17.874089h119.987768a17.814738 17.814738 0 0 1 17.871019 17.874089v100.167351c.13303 9.907651-7.954159 17.86488-17.871019 17.864879zm-101.989859-35.868929h84.124979v-64.164368h-84.124979zm-191.068663-31.168883h-124.035968a17.814738 17.814738 0 0 1 -17.873066-17.87409 17.815761 17.815761 0 0 1 17.873066-17.865902h124.035968a17.813714 17.813714 0 0 1 17.864879 17.865902 17.811668 17.811668 0 0 1 -17.864879 17.87409zm-304.410058 0h-108.252493a17.810644 17.810644 0 0 1 -17.868973-17.87409 17.812691 17.812691 0 0 1 17.868973-17.865902h108.252493a17.815761 17.815761 0 0 1 17.868973 17.865902c0 9.923-7.961322 17.874089-17.868973 17.87409zm304.410058 406.532947h-124.035968a17.811668 17.811668 0 0 1 -17.873066-17.863857 17.812691 17.812691 0 0 1 17.873066-17.871019h124.035968a17.811668 17.811668 0 0 1 17.864879 17.871019 17.812691 17.812691 0 0 1 -17.864879 17.863857zm-304.410058 0h-108.252493a17.808598 17.808598 0 0 1 -17.868973-17.863857 17.810644 17.810644 0 0 1 17.868973-17.871019h108.252493a17.813714 17.813714 0 0 1 17.868973 17.871019 17.815761 17.815761 0 0 1 -17.868973 17.863857zm-190.159968 123.380028h-19.302625c-49.429783 0-89.731674-40.303938-89.731674-89.731674v-509.565555c0-49.432853 40.301891-89.731674 89.731674-89.731674h19.302625c49.431829 0 89.731674 40.301891 89.731674 89.731674v509.566578c0 49.425689-40.301891 89.730651-89.731674 89.730651zm-19.433608-653.29198c-29.737278 0-53.864792 24.130583-53.864792 53.862745v509.567601c0 29.740348 24.127514 53.869908 53.864792 53.869908h19.303648c29.736255 0 53.864792-24.12956 53.864792-53.869908v-509.434571c0-29.735232-24.128537-53.864792-53.864792-53.864792h-19.303648zm317.327252 653.29198h-19.306718c-49.427736 0-89.730651-40.303938-89.73065-89.731674v-509.565555c0-49.432853 40.302915-89.731674 89.73065-89.731674h19.306718c49.426713 0 89.728604 40.301891 89.728604 89.731674v509.566578c0 49.425689-40.169885 89.730651-89.728604 89.730651zm-19.306718-653.29198c-29.734208 0-53.866838 24.130583-53.866838 53.862745v509.567601c0 29.740348 24.131607 53.869908 53.866838 53.869908h19.306718c29.732162 0 53.858652-24.12956 53.858652-53.869908v-509.434571c0-29.735232-24.12649-53.864792-53.860698-53.864792h-19.304672zm317.190129 653.29198h-19.303648c-49.431829 0-89.733721-40.303938-89.73372-89.731674v-509.565555c0-49.432853 40.302915-89.731674 89.73372-89.731674h19.299555c49.433876 0 89.731674 40.301891 89.731674 89.731674v509.566578c.134053 49.425689-40.169885 89.730651-89.727581 89.730651zm-19.303648-653.29198c-29.740348 0-53.865815 24.130583-53.865815 53.862745v509.567601c0 29.740348 24.125467 53.869908 53.865815 53.869908h19.299555c29.740348 0 53.867862-24.12956 53.867862-53.869908v-509.434571c0-29.735232-24.125467-53.864792-53.867862-53.864792h-19.299555z" /></svg>