<svg height="200" viewBox="0 0 1024 1024" width="200" xmlns="http://www.w3.org/2000/svg"><path d="m333.611635 255.435647v688.297238-8.899694c0 12.063757 9.779737 21.016663 21.842471 21.016663 12.059664 0 21.837354-7.816013 21.837354-19.877723v-680.536484c.041956-84.392062 68.454068-152.797012 152.838968-152.836921 84.441181-.038886 152.933111 68.3896 152.970973 152.836921v23.152302c-99.462293 11.119245-174.703951 95.191012-174.751023 195.277522v65.528436c0 36.186154 29.344329 65.527412 65.528436 65.527412h262.122953c36.187177 0 65.526389-29.341259 65.526389-65.527412v-65.528436c-.047072-100.086509-75.277474-184.158277-174.745906-195.277522v-23.152302c0-108.574834-88.018659-196.590424-196.584284-196.590424-108.568694 0-196.58633 88.015589-196.586331 196.590424zm240.269226 305.801754c-12.063757 0-21.840424-9.778714-21.840424-21.843494v-21.844517h305.803801v21.844517c0 12.06171-9.777691 21.843494-21.846564 21.843494zm131.060964-240.273319c84.444251 0 152.904459 68.455091 152.904459 152.903436h-305.804824c0-84.447321 68.457138-152.903435 152.900365-152.903436zm191.58441 313.471435c-9.160637-7.848759-22.950711-6.782473-30.797423 2.38635-7.845689 9.155521-6.780427 22.942525 2.381233 30.797423l61.818951 61.810764c8.172123 7.004531 20.233833 7.004531 28.418237 0 9.159614-7.849782 10.225899-21.638833 2.378163-30.800493l-61.814857-61.807694a21.087271 21.087271 0 0 0 -2.384304-2.38635zm-191.58441 57.860802c-12.063757 0-21.842471 9.782807-21.84247 21.849634v87.367837c.008186 12.053524 9.774621 21.819958 21.828144 21.829167 12.06171.011256 21.851681-9.767458 21.853727-21.829167v-87.367837c.00614-12.066827-9.776667-21.849634-21.839401-21.849634zm-255.782547 6.337335c-7.001461 8.18031-7.001461 20.23895 0 28.415167 7.849782 9.166777 21.635763 10.238179 30.800493 2.385327l61.809741-61.810765a21.545712 21.545712 0 0 0 2.387374-2.38635c7.849782-9.162684 6.77838-22.955828-2.387374-30.797423-9.157567-7.847735-22.943548-6.77838-30.7964 2.38635zm513.912559 268.338515c10.725272 0 17.630542-9.638521 17.630543-21.525246 0-11.887748-9.019421-21.528316-19.74981-21.528316h-905.676127c-10.728342 0-17.632589 9.640568-17.63259 21.528316 0 11.886725 5.494131 21.525246 16.222474 21.525246zm-840.347236-493.425969h47.599088v461.763852h-47.599088z" /></svg>