<?xml version="1.0" encoding="utf-8"?>
<!-- Generator: Adobe Illustrator 16.0.0, SVG Export Plug-In . SVG Version: 6.00 Build 0)  -->
<!DOCTYPE svg PUBLIC "-//W3C//DTD SVG 1.1//EN" "http://www.w3.org/Graphics/SVG/1.1/DTD/svg11.dtd">
<svg version="1.1" id="图形" xmlns="http://www.w3.org/2000/svg" xmlns:xlink="http://www.w3.org/1999/xlink" x="0px" y="0px"
	 width="1000.637px" height="1000.678px" viewBox="0 0 1000.637 1000.678" enable-background="new 0 0 1000.637 1000.678"
	 xml:space="preserve">
<path d="M500.318,124.054c-130.59,0-351.552,22.771-351.552,108.17v536.228
	c0,85.381,220.962,108.172,351.552,108.172c130.565,0,351.553-22.791,351.553-108.172V232.225
	C851.871,146.825,630.883,124.054,500.318,124.054z M202.851,456.785c73.798,34.938,207.202,45.865,297.467,45.865
	c90.319,0,223.84-10.952,297.6-45.945l0.08,125.291c-10.063,20.137-117.625,55.867-297.68,55.867
	c-179.235,0-286.586-35.4-297.467-55.564V456.785z M500.318,448.564c-179.235,0-286.586-35.4-297.467-55.569v-98.438
	c73.798,34.911,207.202,45.839,297.467,45.839c90.293,0,223.723-10.928,297.495-45.892l0.053,98.353
	C787.354,413.032,679.912,448.564,500.318,448.564z M500.318,178.14c174.827,0,281.385,33.697,296.624,54.085
	c-15.238,20.387-121.797,54.085-296.624,54.085c-174.824,0-281.385-33.699-296.596-54.085
	C218.933,211.836,325.494,178.14,500.318,178.14z M500.318,822.538c-180.477,0-288.224-35.914-297.467-54.086V646.075
	c73.798,34.939,207.202,45.873,297.467,45.873c90.372,0,224-10.986,297.733-46.006l0.08,120.582
	C788.518,786.624,680.795,822.538,500.318,822.538z"/>
</svg>
