<?xml version="1.0" encoding="utf-8"?>
<!-- Generator: Adobe Illustrator 16.0.0, SVG Export Plug-In . SVG Version: 6.00 Build 0)  -->
<!DOCTYPE svg PUBLIC "-//W3C//DTD SVG 1.1//EN" "http://www.w3.org/Graphics/SVG/1.1/DTD/svg11.dtd">
<svg version="1.1" id="图形" xmlns="http://www.w3.org/2000/svg" xmlns:xlink="http://www.w3.org/1999/xlink" x="0px" y="0px"
	 width="1000.637px" height="1000.678px" viewBox="0 0 1000.637 1000.678" enable-background="new 0 0 1000.637 1000.678"
	 xml:space="preserve">
<g>
	<path d="M769.899,718.598c-25.498,0.013-48.577,15.132-58.77,38.512H588.875
		c-5.038-34.425-29.561-62.831-62.882-72.836V577.389H680.04c42.472,0,77.022-34.551,77.022-77.023
		c0-42.461-34.551-77.023-77.022-77.023H320.598c-42.473,0-77.023,34.562-77.023,77.023c0,42.472,34.55,77.023,77.023,77.023
		h154.047v106.885c-33.321,10.005-57.843,38.411-62.881,72.836H289.508c-14.115-32.493-51.901-47.375-84.381-33.26
		c-23.457,10.193-38.625,33.36-38.575,58.935c0.076,35.453,28.872,64.123,64.312,64.061c25.424-0.063,48.416-15.119,58.645-38.387
		h129.965c14.478,30.237,45.129,51.349,80.845,51.349c35.717,0,66.368-21.111,80.848-51.349H711.13
		c14.115,32.494,51.9,47.375,84.383,33.26c23.454-10.192,38.625-33.36,38.573-58.934
		C834.086,747.33,805.353,718.598,769.899,718.598z M320.598,526.041c-14.178-0.628-25.161-12.638-24.521-26.816
		c0.59-13.302,11.233-23.945,24.521-24.534H680.04c14.178,0.639,25.16,12.649,24.52,26.816c-0.589,13.301-11.23,23.932-24.52,24.534
		H320.598z M500.318,808.458c-21.236,0-38.511-17.274-38.511-38.511c0-21.237,17.274-38.512,38.511-38.512
		c21.237,0,38.513,17.274,38.513,38.512C538.831,791.184,521.556,808.458,500.318,808.458z"/>
	<path d="M307.761,680.086h73.401c14.177,0,25.673-11.495,25.673-25.673c0-14.18-11.497-25.675-25.673-25.675
		h-73.401c-77.951-0.089-141.122-63.259-141.209-141.21c-0.351-69.601,50.334-128.961,119.121-139.516l15.294-2.383l4.989-14.643
		c28.482-82.977,106.584-138.713,194.363-138.713c87.756-0.026,165.845,55.71,194.34,138.713l5.013,14.643l15.295,2.383
		c68.788,10.555,119.472,69.915,119.12,139.516c0,77.851-63.358,141.21-141.209,141.21h-78.051
		c-14.18,0-25.675,11.495-25.675,25.675c0,14.178,11.495,25.673,25.675,25.673h78.051c106.184,0,192.558-86.374,192.558-192.558
		c0.452-89.145-60.7-166.795-147.477-187.268c-53.869-131.243-203.941-193.949-335.173-140.081
		c-63.546,26.088-114.004,76.534-140.08,140.081c-86.777,20.46-147.941,98.123-147.503,187.268
		C115.202,593.712,201.578,680.086,307.761,680.086z"/>
</g>
</svg>
