<svg height="200" viewBox="0 0 1024 1024" width="200" xmlns="http://www.w3.org/2000/svg"><path d="m516.581854 274.758738c-7.517207-7.52437-25.947975-3.391237-33.465183 4.133133l-150.383032 150.375869c-60.135612-75.191516-52.618405-187.975209 15.034414-255.642354 45.130873-37.592177 90.232071-60.149938 142.862755-60.149938 45.118594 0 90.235141 15.034415 120.314203 37.592176l-60.163241 60.149938c-7.517207 7.52437-7.517207 30.074969 0 37.59934 7.518231 7.517207 30.082132 7.517207 37.59934 0l75.184353-75.191516c7.518231-7.517207 7.518231-30.075992 0-37.592177-45.102221-45.116547-105.266485-75.191516-172.934655-75.191516-60.147892 0-125.888152 27.995611-170.33034 65.064878 0 0-51.033303-25.235754-92.834338-34.989908-41.801035-9.754155-68.780503-14.260795-103.572914 10.915607s-39.278585 56.751538-39.278585 94.350878v736.857211c0 15.032368 3.786233 31.120788 26.002211 30.067806 22.215978-1.049912 22.858614-24.915459 22.858614-32.43369l-.729618-737.504964c0-22.557762 4.217045-33.286104 12.284791-43.570331s42.294268-16.119119 69.861114-8.506745 69.969585 28.077475 69.969585 28.077476c-36.474726 43.490513-42.34748 94.683453-42.34748 139.798976 0 67.667146 22.551622 127.817084 75.184353 172.933631 17.71036 14.2127 40.697911-1.290389 41.58614-4.202718l164.397211-165.761278c.001023-.00307 7.934716-22.145369-7.099698-37.179784zm143.527904 117.924783c9.509585 9.509585 9.408277 25.028023-.224104 34.660404s-25.149796 9.732665-34.659381.223081l-57.244772-57.244772c-9.508561-9.509585-9.408277-25.028023.224104-34.660405 9.632381-9.633405 25.15082-9.733689 34.659381-.224104zm121.543193-93.084025c9.509585 9.509585 9.4093 25.028023-.22308 34.661427-9.632381 9.631358-25.15082 9.732665-34.660405.223081l-57.244772-57.245796c-9.509585-9.509585-9.4093-25.028023.223081-34.65938 9.632381-9.633405 25.15082-9.733689 34.660404-.224105zm-262.377756 239.125169c9.510608 9.509585 9.4093 25.027-.22308 34.659381-9.632381 9.632381-25.149796 9.733689-34.659381.224104l-57.245796-57.244772c-9.509585-9.508561-9.4093-25.025976.223081-34.659381s25.149796-9.733689 34.659381-.224104zm413.041175-109.290126c9.509585 9.509585 9.410324 25.028023-.222058 34.660405-9.633405 9.631358-25.15082 9.732665-34.660404.22308l-57.243749-57.245795c-9.509585-9.509585-9.4093-25.027.224104-34.659381 9.632381-9.633405 25.148773-9.732665 34.658358-.224104zm-163.921374 149.697418c9.509585 9.509585 9.4093 25.027-.223081 34.65938-9.633405 9.632381-25.149796 9.733689-34.65938.224105l-57.244773-57.244773c-9.509585-9.509585-9.4093-25.028023.224105-34.661427 9.631358-9.632381 25.148773-9.730619 34.658357-.222058zm-133.891429-41.150213c9.508561 9.510608 9.407254 25.029046-.224104 34.660405-9.632381 9.632381-25.15082 9.733689-34.660405.224104l-57.244772-57.244772c-9.509585-9.508561-9.408277-25.027.224104-34.659381 9.632381-9.633405 25.149796-9.732665 34.659381-.224104zm182.957938-65.794495c9.509585 9.509585 9.408277 25.028023-.224104 34.659381-9.632381 9.633405-25.148773 9.733689-34.658358.225127l-57.245795-57.244772c-9.509585-9.509585-9.4093-25.028023.224104-34.660404 9.632381-9.633405 25.149796-9.733689 34.658358-.224104zm-136.405693 201.245444c9.509585 9.509585 9.408277 25.029046-.224104 34.661427-9.632381 9.631358-25.15082 9.732665-34.660404.223081l-57.243749-57.243749c-9.509585-9.509585-9.4093-25.029046.223081-34.660404 9.632381-9.633405 25.15082-9.733689 34.660404-.224104z" /></svg>