<?xml version="1.0" encoding="utf-8"?>
<!-- Generator: Adobe Illustrator 16.0.0, SVG Export Plug-In . SVG Version: 6.00 Build 0)  -->
<!DOCTYPE svg PUBLIC "-//W3C//DTD SVG 1.1//EN" "http://www.w3.org/Graphics/SVG/1.1/DTD/svg11.dtd">
<svg version="1.1" id="图层_1" xmlns="http://www.w3.org/2000/svg" xmlns:xlink="http://www.w3.org/1999/xlink" x="0px" y="0px"
	 width="1291.528px" height="857.957px" viewBox="0 0 1291.528 857.957" enable-background="new 0 0 1291.528 857.957"
	 xml:space="preserve">
<polygon fill="none" points="693.366,301.55 631.148,263.333 640.749,250.39 702.963,288.608 "/>
<rect x="670.799" y="201.891" fill="none" width="51.158" height="13"/>
<rect x="805.836" y="284.923" fill="none" width="51.16" height="13"/>
<rect x="874.124" y="177.867" fill="none" width="51.162" height="13"/>
<rect x="680.979" y="64.755" fill="none" width="51.16" height="13"/>
<rect x="478.545" y="315.35" fill="none" width="51.16" height="13"/>
<rect x="666.78" y="405.478" fill="none" width="51.16" height="13"/>
<rect x="666.78" y="443.834" fill="none" width="51.16" height="13"/>
<path fill="#FFFFFF" stroke="#0E77CA" stroke-width="2" stroke-miterlimit="10" d="M764.508,373.559"/>
<polygon fill="none" points="243.174,280.248 211.531,260.4 220.476,247.064 252.12,266.912 "/>
<path fill="#FFFFFF" stroke="#0E77CA" stroke-width="2" stroke-miterlimit="10" d="M766.743,376.234"/>
<g>
	<g>
		<path fill="#108EE9" d="M589.891,234.972c-11.896,0-21.207-4.19-21.207-9.538v-31.425c0-5.35,9.313-9.536,21.207-9.536
			c11.896,0,21.207,4.188,21.207,9.536v31.425C611.1,230.781,601.783,234.972,589.891,234.972L589.891,234.972z"/>
		<path fill="#D2EAFB" d="M589.891,186.492c-11.479,0-19.188,3.887-19.188,7.518v31.425c0,3.631,7.712,7.516,19.188,7.516
			c11.478,0,19.188-3.885,19.188-7.516V194.01C609.079,190.378,601.368,186.492,589.891,186.492z"/>
		<path fill="#108EE9" d="M589.891,224.198c-11.896,0-21.207-4.188-21.207-9.535c0-0.558,0.448-1.01,1.012-1.01
			c0.56,0,1.01,0.453,1.01,1.01c0,3.631,7.712,7.517,19.188,7.517c11.479,0,19.188-3.886,19.188-7.517c0-0.558,0.451-1.01,1.01-1.01
			c0.563,0,1.011,0.453,1.011,1.01C611.1,220.009,601.783,224.198,589.891,224.198L589.891,224.198z"/>
		<path fill="#108EE9" d="M589.891,213.422c-11.896,0-21.207-4.188-21.207-9.535c0-0.558,0.448-1.011,1.012-1.011
			c0.56,0,1.01,0.453,1.01,1.011c0,3.631,7.712,7.518,19.188,7.518c11.479,0,19.188-3.887,19.188-7.518
			c0-0.558,0.451-1.011,1.01-1.011c0.563,0,1.011,0.453,1.011,1.011C611.1,209.235,601.783,213.422,589.891,213.422L589.891,213.422
			z"/>
		<path fill="#108EE9" d="M589.891,202.65c-11.896,0-21.207-4.188-21.207-9.536c0-0.563,0.448-1.009,1.012-1.009
			c0.56,0,1.01,0.448,1.01,1.009c0,3.631,7.712,7.519,19.188,7.519c11.479,0,19.188-3.888,19.188-7.519
			c0-0.563,0.451-1.009,1.01-1.009c0.563,0,1.011,0.448,1.011,1.009C611.1,198.46,601.783,202.65,589.891,202.65L589.891,202.65z"/>
		<ellipse fill="#FFFFFF" cx="589.87" cy="193.562" rx="19.167" ry="7.07"/>
	</g>
	<g>
		<path fill="#108EE9" d="M752.659,335.51c-11.895,0-21.207-4.192-21.207-9.539v-31.424c0-5.349,9.313-9.537,21.207-9.537
			s21.209,4.188,21.209,9.537v31.424C773.866,331.317,764.551,335.51,752.659,335.51L752.659,335.51z"/>
		<path fill="#D2EAFB" d="M752.659,287.029c-11.479,0-19.189,3.888-19.189,7.519v31.424c0,3.632,7.713,7.517,19.189,7.517
			c11.479,0,19.188-3.886,19.188-7.517v-31.424C771.846,290.917,764.133,287.029,752.659,287.029z"/>
		<path fill="#108EE9" d="M752.659,324.735c-11.895,0-21.207-4.188-21.207-9.533c0-0.56,0.449-1.012,1.01-1.012
			c0.564,0,1.012,0.452,1.012,1.012c0,3.631,7.715,7.516,19.189,7.516c11.479,0,19.188-3.885,19.188-7.516
			c0-0.56,0.447-1.012,1.012-1.012c0.561,0,1.01,0.452,1.01,1.012C773.868,320.548,764.551,324.735,752.659,324.735L752.659,324.735
			z"/>
		<path fill="#108EE9" d="M752.659,313.961c-11.895,0-21.207-4.188-21.207-9.535c0-0.558,0.449-1.011,1.01-1.011
			c0.564,0,1.012,0.453,1.012,1.011c0,3.63,7.715,7.518,19.189,7.518c11.479,0,19.188-3.887,19.188-7.518
			c0-0.558,0.447-1.011,1.012-1.011c0.561,0,1.01,0.453,1.01,1.011C773.868,309.773,764.551,313.961,752.659,313.961
			L752.659,313.961z"/>
		<path fill="#108EE9" d="M752.659,303.189c-11.895,0-21.207-4.188-21.207-9.538c0-0.561,0.449-1.01,1.01-1.01
			c0.564,0,1.012,0.449,1.012,1.01c0,3.631,7.715,7.519,19.189,7.519c11.479,0,19.188-3.888,19.188-7.519
			c0-0.561,0.447-1.01,1.012-1.01c0.561,0,1.01,0.449,1.01,1.01C773.868,299,764.551,303.189,752.659,303.189L752.659,303.189z"/>
		<ellipse fill="#FFFFFF" cx="752.635" cy="294.099" rx="19.168" ry="7.07"/>
	</g>
	<g>
		<path fill="#FFFFFF" stroke="#108EE9" stroke-width="2" stroke-miterlimit="10" d="M125.408,526.823c0,0,2.762-5.736,7.197-5.584
			c4.433,0.155,3.192-0.002,3.192-0.002s6.822,2.02,13.18,5.586c6.358,3.564,3.488,1.783,6.438,3.953c2.945,2.172,4.96,7.6,4.96,7.6
			v15.504l-5.97,5.974l-28.997-16.05V526.823L125.408,526.823z"/>
		
			<ellipse transform="matrix(0.0144 -0.9999 0.9999 0.0144 -375.1974 650.2056)" fill="#FFFFFF" stroke="#108EE9" stroke-width="2" stroke-miterlimit="10" cx="142.224" cy="515.425" rx="11.399" ry="10.622"/>
		<path fill="#D2EAFB" stroke="#108EE9" stroke-width="2" stroke-miterlimit="10" d="M125.502,527.743c0,0,2.609-2.48,4.159-2.172
			c1.551,0.313,20.623,10.232,20.623,10.232s1.554,0.619,3.103,2.636c1.55,2.021,0.337,21.407,0.337,21.407l-28.222-15.905V527.743z
			"/>
		
			<line fill="none" stroke="#108EE9" stroke-width="2" stroke-miterlimit="10" x1="131.146" y1="535.911" x2="131.146" y2="546.67"/>
		
			<line fill="none" stroke="#108EE9" stroke-width="2" stroke-miterlimit="10" x1="144.635" y1="542.698" x2="144.635" y2="554.989"/>
		<path fill="#D2EAFB" stroke="#108EE9" stroke-width="2" stroke-miterlimit="10" d="M147.223,512.961
			c2.866,4.979,2.081,10.803-1.755,13.014c-3.835,2.207-9.267-0.033-12.134-5.014c-2.865-4.979-2.08-10.799,1.755-13.012
			C138.926,505.745,144.357,507.987,147.223,512.961z"/>
		<path fill="#D2EAFB" d="M132.494,510.874"/>
	</g>
	<g>
		<path fill="#FFFFFF" stroke="#108EE9" stroke-width="2" stroke-miterlimit="10" d="M253.014,606.374c0,0,2.763-5.734,7.196-5.582
			s3.193-0.004,3.193-0.004s6.822,2.02,13.179,5.586c6.358,3.564,3.489,1.781,6.438,3.953c2.943,2.172,4.96,7.602,4.96,7.602v15.504
			l-5.97,5.973l-28.997-16.049L253.014,606.374L253.014,606.374z"/>
		
			<ellipse transform="matrix(0.0144 -0.9999 0.9999 0.0144 -328.9399 856.2167)" fill="#FFFFFF" stroke="#108EE9" stroke-width="2" stroke-miterlimit="10" cx="269.854" cy="594.966" rx="11.399" ry="10.622"/>
		<path fill="#D2EAFB" stroke="#108EE9" stroke-width="2" stroke-miterlimit="10" d="M253.109,607.293c0,0,2.608-2.479,4.159-2.17
			c1.55,0.311,20.623,10.232,20.623,10.232s1.554,0.617,3.102,2.637c1.55,2.02,0.337,21.406,0.337,21.406l-28.221-15.904V607.293
			L253.109,607.293z"/>
		
			<line fill="none" stroke="#108EE9" stroke-width="2" stroke-miterlimit="10" x1="258.751" y1="615.463" x2="258.751" y2="626.221"/>
		
			<line fill="none" stroke="#108EE9" stroke-width="2" stroke-miterlimit="10" x1="272.242" y1="622.249" x2="272.242" y2="634.542"/>
		
			<ellipse transform="matrix(-0.4991 -0.8665 0.8665 -0.4991 -115.1677 1126.4008)" fill="#D2EAFB" stroke="#108EE9" stroke-width="2" stroke-miterlimit="10" cx="267.961" cy="596.485" rx="10.399" ry="8.013"/>
		<path fill="#D2EAFB" d="M260.1,590.422"/>
	</g>
	<g>
		<g>
			<polygon fill="#108EE9" points="926.411,410.096 913.151,402.065 925.383,394.709 938.245,403.11 			"/>
			<polygon fill="#108EE9" points="926.411,447.831 913.151,439.799 925.383,432.444 938.245,440.844 			"/>
			<polygon fill="#108EE9" points="913.151,402.065 913.151,439.799 926.411,447.831 926.411,410.096 			"/>
			<polygon fill="#108EE9" points="926.411,410.096 926.411,447.831 938.245,440.844 938.245,403.11 			"/>
			<polygon fill="#FFFFFF" points="926.278,409.375 915.481,402.836 925.442,396.846 935.913,403.686 			"/>
			<polygon fill="#D2EAFB" points="914.909,403.872 914.909,438.743 925.368,444.938 925.368,410.151 			"/>
			<polygon fill="#D2EAFB" points="936.655,404.415 936.655,439.286 926.196,445.481 926.196,410.694 			"/>
		</g>
		<g>
			<polygon fill="#108EE9" points="937.942,422.959 926.78,416.198 937.079,410.006 947.905,417.079 			"/>
			<polygon fill="#108EE9" points="937.942,454.725 926.78,447.965 937.079,441.772 947.905,448.844 			"/>
			<polygon fill="#108EE9" points="926.78,416.198 926.78,447.965 937.942,454.725 937.942,422.959 			"/>
			<polygon fill="#108EE9" points="937.942,422.959 937.942,454.725 947.905,448.844 947.905,417.079 			"/>
			<polygon fill="#FFFFFF" points="937.831,422.352 928.743,416.846 937.125,411.805 945.942,417.565 			"/>
			<polygon fill="#D2EAFB" points="928.258,417.719 928.258,447.075 937.065,452.292 937.065,423.006 			"/>
			<polygon fill="#D2EAFB" points="946.567,418.176 946.567,447.534 937.758,452.749 937.758,423.463 			"/>
		</g>
		<g>
			<polygon fill="#108EE9" points="949.106,435.333 937.944,430.055 948.243,425.221 959.067,430.743 			"/>
			<polygon fill="#108EE9" points="949.106,460.129 937.944,454.852 948.243,450.018 959.067,455.54 			"/>
			<polygon fill="#108EE9" points="937.944,430.055 937.944,454.852 949.106,460.129 949.106,435.333 			"/>
			<polygon fill="#108EE9" points="949.106,435.333 949.106,460.129 959.067,455.54 959.067,430.743 			"/>
			<polygon fill="#FFFFFF" points="948.995,434.858 939.905,430.561 948.292,426.625 957.106,431.122 			"/>
			<polygon fill="#D2EAFB" points="939.42,431.243 939.42,454.157 948.229,458.227 948.229,435.37 			"/>
			<polygon fill="#D2EAFB" points="957.729,431.598 957.729,454.514 948.922,458.586 948.922,435.725 			"/>
		</g>
	</g>
	<g>
		<polygon fill="#108EE9" points="412.957,85.801 420.251,81.291 451.952,100.157 445.173,104.924 		"/>
		<polygon fill="#D2EAFB" points="412.801,130.801 420.096,126.291 451.797,145.156 445.019,149.924 		"/>
		<polygon fill="#108EE9" points="412.957,85.801 412.801,130.801 445.019,149.924 445.173,104.924 		"/>
		<polyline fill="#108EE9" points="445.173,104.924 451.952,100.157 451.797,145.156 445.019,149.924 		"/>
		<polygon fill="#D2EAFB" points="414.643,87.923 414.766,129.509 443.671,146.285 443.896,105.343 		"/>
		<polyline fill="#D2EAFB" points="445.312,105.631 450.677,101.932 450.601,143.673 445.173,147.57 		"/>
		<polygon fill="#FFFFFF" points="415.479,86.475 420.451,83.324 449.519,100.59 444.534,104.024 		"/>
		<path fill="none" stroke="#108EE9" stroke-width="2" stroke-miterlimit="10" d="M430.404,108.583c0,0,5.787,8.529,6.032,11.753
			c0.245,3.225-1.104,5.188-4.575,6.104c-3.478,0.916-6.754-3.074-7-6.299C424.615,116.917,430.404,108.583,430.404,108.583z"/>
	</g>
	<g>
		<path fill="#108EE9" d="M816.788,190.594c0,0-4.355-5.219-1.447-12.139c2.074-3.762,6.834-2.791,6.834-2.791
			s-1.07-9.132,5.314-11.554c6.381-2.422,11.619,1.836,11.619,1.836s5.725-4.948,13.23-2.732c7.51,2.217,15.594,8.008,14.527,24.833
			c0,0,5.41,2.794,5.184,9.104c-0.229,6.309-4.654,13.104-9.213,14.598c-5.379,2.507-11.238,1.086-11.238,1.086L816.788,190.594z"/>
		<path fill="#FFFFFF" d="M818.79,189.063c0,0-2.785-6.378-0.9-9.797c1.889-3.419,6.213-2.535,6.213-2.535
			s-0.973-8.301,4.826-10.503c5.799-2.2,10.564,1.67,10.564,1.67s5.197-4.497,12.023-2.482s14.176,7.279,13.203,22.571
			c0,0,4.92,2.541,4.713,8.273c-0.209,5.733-4.229,11.91-8.375,13.27c-4.887,2.277-10.213,0.986-10.213,0.986L818.79,189.063z"/>
		<path fill="#D2EAFB" stroke="#108EE9" stroke-miterlimit="10" d="M818.038,189.197c0,0-2.877-6.313-1.082-9.576
			c1.795-3.266,6.904-4.092,6.904-4.092s-2.24-5.941,3.275-8.043c5.521-2.104,7.689,3.256,7.689,3.256s2.184-3.492,9.104-3.043
			c6.92,0.449,14.158,7.952,13.236,22.554c0,0,5.938,1.883,6.738,8.938c-0.197,5.476-1.064,8.321-4.113,10.156
			s-8.01,1.628-8.01,1.628L818.038,189.197z"/>
	</g>
	<g>
		<polygon fill="#108EE9" points="1018.124,281.839 1048.458,264.24 1065.956,273.707 1036.624,290.908 		"/>
		<polygon fill="#108EE9" points="1018.124,281.839 1018.124,319.893 1036.624,328.962 1036.624,290.908 		"/>
		<polyline fill="#108EE9" points="1036.624,328.962 1065.956,311.761 1065.956,273.707 1036.624,290.908 		"/>
		<polygon fill="#FFFFFF" points="1021.885,281.614 1048.311,266.335 1062.543,273.97 1036.475,289.009 		"/>
		<polygon fill="#D2EAFB" points="1020.018,282.664 1020.018,317.949 1036.225,326.114 1036.114,290.787 		"/>
		<polyline fill="#D2EAFB" points="1037.417,326.149 1063.721,310.296 1063.721,275.219 1037.417,290.513 		"/>
		<polygon fill="#108EE9" points="1029.749,290.908 1034.915,293.658 1034.915,297.24 1029.749,294.658 		"/>
		<line fill="none" stroke="#108EE9" stroke-miterlimit="10" x1="1021.624" y1="314.938" x2="1034.624" y2="321.811"/>
		<line fill="none" stroke="#108EE9" stroke-miterlimit="10" x1="1021.624" y1="309.907" x2="1034.624" y2="316.783"/>
		<line fill="none" stroke="#108EE9" stroke-miterlimit="10" x1="1022.176" y1="305.067" x2="1035.176" y2="311.942"/>
	</g>
	<g>
		<path fill="#FFFFFF" stroke="#108EE9" stroke-width="2" stroke-miterlimit="10" d="M646.84,65.295c0,0,2.764-5.737,7.195-5.583
			c4.434,0.155,3.189-0.003,3.189-0.003s6.822,2.021,13.182,5.586c6.357,3.565,3.486,1.782,6.438,3.953
			c2.943,2.171,4.961,7.599,4.961,7.599v15.505l-5.971,5.972L646.84,82.275V65.295L646.84,65.295z"/>
		
			<ellipse transform="matrix(0.0145 -0.9999 0.9999 0.0145 600.1602 716.6669)" fill="#FFFFFF" stroke="#108EE9" stroke-width="2" stroke-miterlimit="10" cx="663.64" cy="53.876" rx="11.398" ry="10.621"/>
		<path fill="#D2EAFB" stroke="#108EE9" stroke-width="2" stroke-miterlimit="10" d="M646.934,66.215c0,0,2.609-2.479,4.16-2.171
			c1.553,0.311,20.623,10.234,20.623,10.234s1.553,0.62,3.105,2.636c1.549,2.017,0.336,21.408,0.336,21.408l-28.227-15.906V66.215
			H646.934z"/>
		<line fill="none" stroke="#108EE9" stroke-width="2" stroke-miterlimit="10" x1="652.581" y1="74.384" x2="652.581" y2="85.141"/>
		<line fill="none" stroke="#108EE9" stroke-width="2" stroke-miterlimit="10" x1="666.071" y1="81.17" x2="666.071" y2="93.463"/>
		
			<ellipse transform="matrix(-0.4991 -0.8665 0.8665 -0.4991 943.9391 656.3528)" fill="#D2EAFB" stroke="#108EE9" stroke-width="2" stroke-miterlimit="10" cx="661.66" cy="55.372" rx="10.399" ry="8.013"/>
		<path fill="#D2EAFB" d="M653.926,49.345"/>
	</g>
	<g>
		<polygon fill="#FFFFFF" stroke="#108EE9" stroke-miterlimit="10" points="248.36,244.468 259.239,237.983 246.831,228.162 
			236.422,237.026 		"/>
		<path fill="#108EE9" d="M218.098,178.94c0,0,0.748-4.246,4.858-4.983c4.109-0.739,6.258,0,6.258,0l36.713,21.503
			c0,0,1.398,0.831,2.802,2.307c1.402,1.478,1.963,3.322,1.963,3.322v37.494c0,0,0.408,2.012-3.146,4.133
			c-3.552,2.119-5.356,0.791-5.356,0.791l-13.832-9.722v11.513l-13.447-8.313l0.374-9.478l-17.188-11.074L218.098,178.94
			L218.098,178.94z"/>
		<path fill="#D2EAFB" d="M219.57,178.478c0,0,0.245-0.98,0.981-1.472c0.735-0.491,1.961,0,1.961,0l37.895,21.461
			c0,0,0.859,0.736,1.963,2.331c1.104,1.593,0.858,2.941,0.858,2.941l-0.034,38.919l-16.77-11.344l-0.121,11.04l-10.162-6.505
			l0.351-9.981l-16.432-10.606L219.57,178.478z"/>
		<path fill="#FFFFFF" d="M222.276,175.715c0,0,0.725-0.814,2.932-1.092c2.208-0.276,3.403,0.409,3.403,0.409l37.342,21.94
			c0,0,0.615,0.369,1.352,1.351c0.734,0.979,1.471,2.452,1.471,2.452v37.205c0,0-0.155,1.36-1.592,2.612
			c-1.126,1.115-3.115,1.92-3.115,1.92l0.229-39.101c0,0,0.219-0.863-0.826-2.941c-1.289-1.471-2.582-2.672-2.582-2.672
			L222.276,175.715z"/>
		<polygon fill="#D2EAFB" stroke="#108EE9" stroke-width="0.5" stroke-miterlimit="10" points="223.015,183.154 259.805,205.391 
			259.805,236.294 223.015,213.3 		"/>
		
			<line fill="none" stroke="#108EE9" stroke-width="2" stroke-miterlimit="10" x1="228.304" y1="196.165" x2="254.304" y2="211.341"/>
		
			<line fill="none" stroke="#108EE9" stroke-width="2" stroke-miterlimit="10" x1="226.833" y1="205.08" x2="252.833" y2="220.255"/>
	</g>
	<g>
		<polygon fill="#FFFFFF" stroke="#108EE9" stroke-miterlimit="10" points="429.908,351.468 440.787,344.981 428.379,335.162 
			417.971,344.024 		"/>
		<path fill="#108EE9" d="M399.646,285.939c0,0,0.747-4.246,4.857-4.983c4.108-0.738,6.259,0,6.259,0l36.711,21.504
			c0,0,1.4,0.83,2.805,2.308c1.401,1.479,1.965,3.321,1.965,3.321v37.494c0,0,0.406,2.014-3.146,4.133
			c-3.552,2.119-5.354,0.791-5.354,0.791l-13.832-9.721v11.512l-13.447-8.313l0.374-9.479l-17.188-11.073V285.94L399.646,285.939
			L399.646,285.939z"/>
		<path fill="#D2EAFB" d="M401.117,285.477c0,0,0.245-0.98,0.98-1.472c0.735-0.491,1.961,0,1.961,0l37.896,21.461
			c0,0,0.855,0.735,1.965,2.33c1.104,1.594,0.855,2.94,0.855,2.94l-0.034,38.917l-16.771-11.345l-0.121,11.039l-10.161-6.504
			l0.352-9.98l-16.433-10.604L401.117,285.477z"/>
		<path fill="#FFFFFF" d="M403.824,282.714c0,0,0.727-0.814,2.933-1.092c2.208-0.277,3.403,0.408,3.403,0.408l37.343,21.94
			c0,0,0.612,0.367,1.352,1.352c0.734,0.979,1.474,2.45,1.474,2.45v37.204c0,0-0.153,1.361-1.594,2.615
			c-1.126,1.113-3.113,1.92-3.113,1.92l0.229-39.104c0,0,0.22-0.862-0.826-2.94c-1.288-1.471-2.581-2.672-2.581-2.672
			L403.824,282.714z"/>
		<polygon fill="#D2EAFB" stroke="#108EE9" stroke-width="0.5" stroke-miterlimit="10" points="404.563,290.153 441.354,312.388 
			441.354,343.294 404.563,320.299 		"/>
		
			<line fill="none" stroke="#108EE9" stroke-width="2" stroke-miterlimit="10" x1="409.852" y1="303.164" x2="435.852" y2="318.339"/>
		
			<line fill="none" stroke="#108EE9" stroke-width="2" stroke-miterlimit="10" x1="408.38" y1="312.078" x2="434.381" y2="327.255"/>
	</g>
	<g>
		<polygon fill="#FFFFFF" stroke="#108EE9" stroke-miterlimit="10" points="620.154,467.969 631.034,461.483 618.626,451.663 
			608.218,460.526 		"/>
		<path fill="#108EE9" d="M589.892,402.439c0,0,0.748-4.246,4.859-4.983c4.106-0.736,6.258,0,6.258,0l36.713,21.504
			c0,0,1.398,0.83,2.804,2.309c1.401,1.479,1.964,3.322,1.964,3.322v37.492c0,0,0.406,2.014-3.146,4.133
			c-3.554,2.119-5.355,0.791-5.355,0.791l-13.832-9.721v11.512l-13.443-8.313l0.374-9.479l-17.188-11.076L589.892,402.439
			L589.892,402.439z"/>
		<path fill="#D2EAFB" d="M591.365,401.978c0,0,0.244-0.98,0.979-1.473c0.735-0.491,1.961,0,1.961,0l37.896,21.461
			c0,0,0.856,0.734,1.965,2.33c1.104,1.594,0.854,2.938,0.854,2.938l-0.033,38.92L618.22,454.81l-0.122,11.039l-10.161-6.504
			l0.353-9.979l-16.433-10.605L591.365,401.978z"/>
		<path fill="#FFFFFF" d="M594.071,399.214c0,0,0.728-0.813,2.935-1.092c2.208-0.277,3.4,0.407,3.4,0.407l37.345,21.94
			c0,0,0.612,0.365,1.352,1.351c0.734,0.979,1.473,2.449,1.473,2.449v37.205c0,0-0.151,1.359-1.592,2.613
			c-1.127,1.113-3.114,1.92-3.114,1.92l0.229-39.104c0,0,0.22-0.863-0.827-2.939c-1.289-1.473-2.582-2.674-2.582-2.674
			L594.071,399.214z"/>
		<polygon fill="#D2EAFB" stroke="#108EE9" stroke-width="0.5" stroke-miterlimit="10" points="594.81,406.652 631.6,428.888 
			631.6,459.795 594.81,436.799 		"/>
		
			<line fill="none" stroke="#108EE9" stroke-width="2" stroke-miterlimit="10" x1="600.099" y1="419.664" x2="626.099" y2="434.839"/>
		
			<line fill="none" stroke="#108EE9" stroke-width="2" stroke-miterlimit="10" x1="598.628" y1="428.578" x2="624.628" y2="443.756"/>
	</g>
	<g>
		<polygon fill="#FFFFFF" stroke="#108EE9" stroke-miterlimit="10" points="820.54,586.739 831.417,580.25 819.008,570.43 
			808.6,579.293 		"/>
		<path fill="#108EE9" d="M790.278,521.208c0,0,0.748-4.246,4.857-4.979c4.107-0.739,6.258,0,6.258,0l36.713,21.503
			c0,0,1.398,0.831,2.803,2.309c1.4,1.479,1.965,3.322,1.965,3.322v37.494c0,0,0.406,2.012-3.146,4.131
			c-3.551,2.119-5.354,0.791-5.354,0.791l-13.828-9.723v11.514l-13.447-8.313l0.375-9.479l-17.188-11.072L790.278,521.208
			L790.278,521.208z"/>
		<path fill="#D2EAFB" d="M791.749,520.747c0,0,0.244-0.98,0.979-1.473c0.734-0.488,1.965,0,1.965,0l37.895,21.461
			c0,0,0.857,0.734,1.965,2.33c1.102,1.596,0.855,2.939,0.855,2.939l-0.031,38.918l-16.771-11.346l-0.121,11.039l-10.162-6.504
			l0.355-9.98l-16.434-10.604L791.749,520.747z"/>
		<path fill="#FFFFFF" d="M794.456,517.985c0,0,0.725-0.816,2.932-1.094c2.209-0.275,3.404,0.408,3.404,0.408l37.342,21.938
			c0,0,0.613,0.369,1.352,1.352c0.736,0.98,1.475,2.451,1.475,2.451v37.205c0,0-0.154,1.359-1.596,2.613
			c-1.125,1.113-3.113,1.92-3.113,1.92l0.229-39.104c0,0,0.221-0.862-0.826-2.939c-1.287-1.473-2.58-2.673-2.58-2.673
			L794.456,517.985z"/>
		<polygon fill="#D2EAFB" stroke="#108EE9" stroke-width="0.5" stroke-miterlimit="10" points="795.194,525.422 831.985,547.659 
			831.985,578.563 795.194,555.569 		"/>
		
			<line fill="none" stroke="#108EE9" stroke-width="2" stroke-miterlimit="10" x1="800.483" y1="538.432" x2="826.483" y2="553.61"/>
		<line fill="none" stroke="#108EE9" stroke-width="2" stroke-miterlimit="10" x1="799.01" y1="547.348" x2="825.01" y2="562.524"/>
	</g>
	<g>
		<path fill="#FFFFFF" stroke="#108EE9" stroke-width="2" stroke-miterlimit="10" d="M190.876,563.161c0,0,2.764-5.734,7.197-5.582
			c4.433,0.152,3.192-0.006,3.192-0.006s6.821,2.021,13.18,5.588c6.357,3.563,3.488,1.781,6.438,3.951
			c2.942,2.174,4.96,7.602,4.96,7.602v15.506l-5.971,5.973l-28.997-16.051L190.876,563.161L190.876,563.161z"/>
		
			<ellipse transform="matrix(0.0145 -0.9999 0.9999 0.0145 -347.0234 751.4248)" fill="#FFFFFF" stroke="#108EE9" stroke-width="2" stroke-miterlimit="10" cx="207.689" cy="551.759" rx="11.398" ry="10.622"/>
		<path fill="#D2EAFB" stroke="#108EE9" stroke-width="2" stroke-miterlimit="10" d="M190.972,564.081c0,0,2.608-2.48,4.159-2.17
			c1.551,0.31,20.622,10.23,20.622,10.23s1.555,0.619,3.104,2.637c1.549,2.02,0.337,21.407,0.337,21.407l-28.222-15.903V564.081z"/>
		
			<line fill="none" stroke="#108EE9" stroke-width="2" stroke-miterlimit="10" x1="196.616" y1="572.25" x2="196.616" y2="583.006"/>
		
			<line fill="none" stroke="#108EE9" stroke-width="2" stroke-miterlimit="10" x1="210.105" y1="579.036" x2="210.105" y2="591.329"/>
		
			<ellipse transform="matrix(-0.499 -0.8666 0.8666 -0.499 -171.0031 1007.7111)" fill="#D2EAFB" stroke="#108EE9" stroke-width="2" stroke-miterlimit="10" cx="205.79" cy="553.286" rx="10.399" ry="8.014"/>
		<path fill="#D2EAFB" d="M197.963,547.211"/>
	</g>
	<g>
		<path fill="#FFFFFF" stroke="#108EE9" stroke-width="2" stroke-miterlimit="10" d="M319.836,440.895c0,0,0.366-2.471,3.386-3.844
			c3.021-1.372,6.771-0.361,6.771-0.361l32.756,17.932c0,0,1.865,1.133,2.688,2.229c0.823,1.102,1.152,2.617,1.152,2.617v35.141
			c0,0-0.272,2.883-2.333,4.393c-3.299,2.051-6.45,1.785-6.45,1.785l-36.233-20.729c0,0-1.691-1.512-1.737-2.473
			C319.791,476.625,319.836,440.895,319.836,440.895z"/>
		<path fill="#D2EAFB" stroke="#108EE9" stroke-miterlimit="10" d="M320.461,443.266c0,0-0.063-1.564,1.009-2.188
			c1.072-0.627,2.545,0.313,2.545,0.313l32.009,17.936c0,0,0.718,0.408,1.251,1.379c0.533,0.969,0.446,2.377,0.446,2.377
			l-0.017,37.719l-34.717-20.783c0,0-1.877-1.344-1.877-2.146s-0.401-2.01-0.401-2.01L320.461,443.266z"/>
		<g>
			<path fill="#108EE9" d="M331.486,473.309c-1.871-0.631-3.24-1.963-4.067-3.961c-2.362-5.697,0.317-12.021,0.435-12.287
				c0.082-0.188,0.245-0.32,0.431-0.354c0.188-0.027,0.364,0.053,0.469,0.209c1.136,1.711,2.733,2.518,4.28,3.287
				c1.818,0.91,3.702,1.854,4.77,4.236c1.689,3.787,0.224,8.27-0.62,9.328c-0.387,0.49-0.733,0.465-0.906,0.408l0,0
				c-0.098-0.035-0.229-0.104-0.331-0.27c-0.005-0.004-0.013-0.006-0.02-0.008c-0.199-0.066-0.638-0.086-1.104-0.104
				C333.929,473.768,332.71,473.721,331.486,473.309z M328.458,458.397c-0.618,1.883-1.753,6.395-0.085,10.418
				c0.722,1.736,1.86,2.85,3.482,3.396c1.099,0.369,2.19,0.412,3.071,0.443c0.727,0.027,1.257,0.055,1.587,0.256
				c0.575-0.957,1.768-4.705,0.337-7.908c-0.916-2.051-2.563-2.877-4.311-3.752C331.119,460.545,329.656,459.809,328.458,458.397z"
				/>
			<path fill="#108EE9" d="M339.899,475.875L339.899,475.875c-1.876-0.631-2.955-2.047-3.221-2.842
				c-0.11-0.336-0.104-0.619,0.014-0.855c0.014-0.033,0.062-0.188,0.104-0.326c0.401-1.32,1.624-5.342,5.361-6.313
				c1.152-0.303,2.419-0.229,3.757,0.229c2.683,0.902,4.768,2.998,4.854,3.086c0.128,0.133,0.183,0.33,0.139,0.527
				c-0.042,0.195-0.174,0.359-0.348,0.438c-0.729,0.313-1.718,1.33-2.765,2.408c-1.789,1.846-3.817,3.939-5.875,3.963
				C341.217,476.198,340.538,476.088,339.899,475.875z M337.653,472.551c0.104,0.416,0.964,1.674,2.614,2.229l0,0
				c0.541,0.182,1.117,0.271,1.715,0.266c1.628-0.021,3.484-1.938,5.125-3.625c0.862-0.891,1.641-1.688,2.358-2.213
				c-0.763-0.654-2.232-1.773-3.926-2.344c-1.163-0.396-2.244-0.465-3.213-0.213c-3.122,0.813-4.156,4.213-4.545,5.492
				C337.729,472.327,337.69,472.452,337.653,472.551z"/>
			<path fill="#108EE9" d="M336.164,473.694c-0.271-0.096-0.404-0.412-0.306-0.713c0.658-1.955-0.653-6.889-3.749-9.438
				c-2.913-2.398-4.245-4.67-4.301-4.766c-0.147-0.262-0.071-0.613,0.176-0.801c0.249-0.186,0.568-0.121,0.72,0.137l0,0
				c0.011,0.021,1.306,2.219,4.07,4.492c3.322,2.738,4.938,8.096,4.062,10.697C336.736,473.612,336.432,473.786,336.164,473.694z"/>
			<path fill="#108EE9" d="M336.068,477.182c-0.217-0.072-0.357-0.301-0.335-0.564c0.011-0.107,0.245-2.688,1.054-3.998
				c1.852-2.896,4.119-3.938,6.959-4.604c2.667-0.633,6.665,0.668,6.833,0.725c0.002,0,0.003,0.002,0.003,0.002
				c0.269,0.092,0.404,0.41,0.306,0.711c-0.103,0.303-0.401,0.479-0.673,0.391c-0.037-0.016-3.918-1.273-6.317-0.707
				c-2.653,0.627-4.629,1.529-6.265,4.09c-0.533,0.867-0.802,2.771-0.858,3.432c-0.027,0.313-0.282,0.563-0.57,0.559
				C336.156,477.206,336.111,477.196,336.068,477.182z"/>
		</g>
	</g>
	<g>
		<path fill="#108EE9" d="M654.69,274.975c-11.896,0-21.207-4.19-21.207-9.537v-31.426c0-5.35,9.313-9.536,21.207-9.536
			c11.895,0,21.207,4.188,21.207,9.536v31.426C675.899,270.784,666.583,274.975,654.69,274.975L654.69,274.975z"/>
		<path fill="#D2EAFB" d="M654.69,226.495c-11.48,0-19.188,3.887-19.188,7.518v31.426c0,3.63,7.71,7.515,19.188,7.515
			c11.477,0,19.188-3.885,19.188-7.515v-31.426C673.875,230.381,666.167,226.495,654.69,226.495z"/>
		<path fill="#108EE9" d="M654.69,264.2c-11.896,0-21.207-4.188-21.207-9.535c0-0.558,0.446-1.01,1.01-1.01
			c0.56,0,1.011,0.453,1.011,1.01c0,3.631,7.711,7.517,19.188,7.517c11.479,0,19.188-3.886,19.188-7.517
			c0-0.558,0.451-1.01,1.01-1.01c0.564,0,1.016,0.453,1.016,1.01C675.899,260.012,666.583,264.2,654.69,264.2L654.69,264.2z"/>
		<path fill="#108EE9" d="M654.69,253.425c-11.896,0-21.207-4.188-21.207-9.535c0-0.558,0.446-1.011,1.01-1.011
			c0.56,0,1.011,0.453,1.011,1.011c0,3.632,7.711,7.518,19.188,7.518c11.479,0,19.188-3.886,19.188-7.518
			c0-0.558,0.451-1.011,1.01-1.011c0.564,0,1.016,0.453,1.016,1.011C675.899,249.238,666.583,253.425,654.69,253.425L654.69,253.425
			z"/>
		<path fill="#108EE9" d="M654.69,242.653c-11.896,0-21.207-4.188-21.207-9.536c0-0.561,0.446-1.009,1.01-1.009
			c0.56,0,1.011,0.448,1.011,1.009c0,3.631,7.711,7.519,19.188,7.519c11.479,0,19.188-3.888,19.188-7.519
			c0-0.561,0.451-1.009,1.01-1.009c0.564,0,1.016,0.448,1.016,1.009C675.899,238.463,666.583,242.653,654.69,242.653L654.69,242.653
			z"/>
		<ellipse fill="#FFFFFF" cx="654.667" cy="233.564" rx="19.168" ry="7.07"/>
	</g>
	<g>
		<path fill="#108EE9" d="M817.706,375.397c-11.896,0-21.207-4.19-21.207-9.539v-31.425c0-5.35,9.313-9.535,21.207-9.535
			s21.207,4.188,21.207,9.535v31.425C838.915,371.206,829.594,375.397,817.706,375.397L817.706,375.397z"/>
		<path fill="#D2EAFB" d="M817.706,326.917c-11.48,0-19.189,3.887-19.189,7.518v31.425c0,3.632,7.713,7.517,19.189,7.517
			s19.188-3.886,19.188-7.517v-31.425C836.891,330.802,829.18,326.917,817.706,326.917z"/>
		<path fill="#108EE9" d="M817.706,364.622c-11.896,0-21.207-4.189-21.207-9.536c0-0.558,0.447-1.01,1.01-1.01
			c0.561,0,1.01,0.452,1.01,1.01c0,3.632,7.713,7.517,19.189,7.517c11.479,0,19.189-3.885,19.189-7.517
			c0-0.558,0.449-1.01,1.01-1.01c0.563,0,1.01,0.452,1.01,1.01C838.915,360.434,829.594,364.622,817.706,364.622L817.706,364.622z"
			/>
		<path fill="#108EE9" d="M817.706,353.847c-11.896,0-21.207-4.188-21.207-9.536c0-0.558,0.447-1.011,1.01-1.011
			c0.561,0,1.01,0.453,1.01,1.011c0,3.632,7.713,7.519,19.189,7.519c11.479,0,19.189-3.887,19.189-7.519
			c0-0.558,0.449-1.011,1.01-1.011c0.563,0,1.01,0.453,1.01,1.011C838.915,349.659,829.594,353.847,817.706,353.847L817.706,353.847
			z"/>
		<path fill="#108EE9" d="M817.706,343.074c-11.896,0-21.207-4.188-21.207-9.536c0-0.562,0.447-1.01,1.01-1.01
			c0.561,0,1.01,0.448,1.01,1.01c0,3.631,7.713,7.519,19.189,7.519c11.479,0,19.189-3.888,19.189-7.519
			c0-0.562,0.449-1.01,1.01-1.01c0.563,0,1.01,0.448,1.01,1.01C838.915,338.884,829.594,343.074,817.706,343.074L817.706,343.074z"
			/>
		<ellipse fill="#FFFFFF" cx="817.682" cy="333.986" rx="19.166" ry="7.07"/>
	</g>
	<g>
		<polygon fill="#108EE9" points="461.781,114.763 469.075,110.252 500.775,129.119 493.997,133.886 		"/>
		<polygon fill="#D2EAFB" points="461.624,159.763 468.919,155.252 500.621,174.118 493.842,178.886 		"/>
		<polygon fill="#108EE9" points="461.781,114.763 461.624,159.763 493.842,178.886 493.997,133.886 		"/>
		<polyline fill="#108EE9" points="493.997,133.886 500.775,129.119 500.621,174.118 493.842,178.886 		"/>
		<polygon fill="#D2EAFB" points="463.466,116.885 463.589,158.471 492.495,175.247 492.718,134.305 		"/>
		<polyline fill="#D2EAFB" points="494.135,134.593 499.5,130.894 499.424,172.635 493.997,176.532 		"/>
		<polygon fill="#FFFFFF" points="464.303,115.437 469.275,112.286 498.342,129.552 493.358,132.986 		"/>
		<path fill="none" stroke="#108EE9" stroke-width="2" stroke-miterlimit="10" d="M479.228,137.545c0,0,5.787,8.529,6.033,11.753
			c0.246,3.226-1.104,5.188-4.576,6.104c-3.476,0.916-6.754-3.074-7-6.299C473.438,145.879,479.228,137.545,479.228,137.545z"/>
	</g>
	<g>
		<polygon fill="#FFFFFF" stroke="#108EE9" stroke-miterlimit="10" points="1093.002,728.858 1103.881,722.37 1091.473,712.549 
			1081.067,721.413 		"/>
		<path fill="#888888" d="M1062.743,663.327c0,0,0.748-4.246,4.857-4.98c4.109-0.738,6.26,0,6.26,0l36.711,21.502
			c0,0,1.398,0.832,2.803,2.313c1.402,1.479,1.965,3.32,1.965,3.32v37.492c0,0,0.406,2.016-3.145,4.133
			c-3.553,2.117-5.355,0.791-5.355,0.791l-13.83-9.723v11.514l-13.447-8.313l0.375-9.479l-17.188-11.074L1062.743,663.327
			L1062.743,663.327z"/>
		<path fill="#CCCCCC" d="M1064.211,662.866c0,0,0.244-0.979,0.98-1.472c0.73-0.489,1.961,0,1.961,0l37.895,21.462
			c0,0,0.855,0.734,1.965,2.329c1.104,1.595,0.855,2.94,0.855,2.94l-0.029,38.918l-16.771-11.346l-0.121,11.037l-10.162-6.504
			l0.354-9.979l-16.434-10.604L1064.211,662.866z"/>
		<path fill="#FFFFFF" d="M1066.918,660.104c0,0,0.725-0.813,2.932-1.093c2.209-0.275,3.404,0.408,3.404,0.408l37.342,21.939
			c0,0,0.613,0.368,1.352,1.35c0.736,0.981,1.475,2.451,1.475,2.451v37.205c0,0-0.156,1.359-1.596,2.614
			c-1.125,1.114-3.113,1.921-3.113,1.921l0.23-39.104c0,0,0.219-0.863-0.828-2.939c-1.287-1.473-2.58-2.674-2.58-2.674
			L1066.918,660.104z"/>
		<polygon fill="#F9F9F9" stroke="#888888" stroke-width="0.5" stroke-miterlimit="10" points="1067.659,667.542 1104.45,689.778 
			1104.45,720.682 1067.659,697.688 		"/>
		
			<line fill="none" stroke="#888888" stroke-width="2" stroke-miterlimit="10" x1="1072.948" y1="680.551" x2="1098.948" y2="695.729"/>
		
			<line fill="none" stroke="#888888" stroke-width="2" stroke-miterlimit="10" x1="1071.475" y1="689.467" x2="1097.475" y2="704.643"/>
	</g>
</g>
<polygon fill="none" points="634.997,513.114 572.78,474.897 582.379,461.954 644.595,500.17 "/>
</svg>
