<?xml version="1.0" encoding="utf-8"?>
<!-- Generator: Adobe Illustrator 16.0.0, SVG Export Plug-In . SVG Version: 6.00 Build 0)  -->
<!DOCTYPE svg PUBLIC "-//W3C//DTD SVG 1.1//EN" "http://www.w3.org/Graphics/SVG/1.1/DTD/svg11.dtd">
<svg version="1.1" id="图层_1" xmlns="http://www.w3.org/2000/svg" xmlns:xlink="http://www.w3.org/1999/xlink" x="0px" y="0px"
	 width="1291.528px" height="857.957px" viewBox="0 0 1291.528 857.957" enable-background="new 0 0 1291.528 857.957"
	 xml:space="preserve">
<g>
	<g>
		<g>
			
				<line fill="none" stroke="#E9E9E9" stroke-width="3" stroke-miterlimit="10" x1="299.047" y1="213.865" x2="360.626" y2="175.245"/>
			
				<line fill="none" stroke="#E9E9E9" stroke-width="3" stroke-miterlimit="10" x1="482.616" y1="318.26" x2="537.288" y2="286.151"/>
			
				<line fill="none" stroke="#E9E9E9" stroke-width="3" stroke-miterlimit="10" x1="673.78" y1="430.196" x2="728.454" y2="398.086"/>
			
				<line fill="none" stroke="#E9E9E9" stroke-width="3" stroke-miterlimit="10" x1="876.536" y1="547.26" x2="931.208" y2="515.151"/>
			
				<line fill="none" stroke="#E9E9E9" stroke-width="3" stroke-miterlimit="10" x1="358.815" y1="175.245" x2="932.028" y2="515.713"/>
			
				<line fill="none" stroke="#E9E9E9" stroke-width="3" stroke-miterlimit="10" x1="352.377" y1="470.573" x2="397.262" y2="443.02"/>
			
				<line fill="none" stroke="#E9E9E9" stroke-width="3" stroke-miterlimit="10" x1="205.158" y1="566.239" x2="323.816" y2="493.401"/>
			
				<line fill="none" stroke="#E9E9E9" stroke-width="3" stroke-miterlimit="10" x1="164.728" y1="305.876" x2="219.398" y2="273.764"/>
			
				<line fill="none" stroke="#E9E9E9" stroke-width="3" stroke-miterlimit="10" x1="345.902" y1="413.525" x2="402.965" y2="378.161"/>
			
				<line fill="none" stroke="#E9E9E9" stroke-width="3" stroke-miterlimit="10" x1="534.784" y1="525.426" x2="594.131" y2="490.096"/>
			
				<line fill="none" stroke="#E9E9E9" stroke-width="3" stroke-miterlimit="10" x1="737.792" y1="645.422" x2="796.885" y2="607.163"/>
			
				<line fill="none" stroke="#E9E9E9" stroke-width="3" stroke-miterlimit="10" x1="164.728" y1="304.804" x2="737.792" y2="645.422"/>
			
				<line fill="none" stroke="#E9E9E9" stroke-width="3" stroke-miterlimit="10" x1="624.704" y1="333.037" x2="668.155" y2="306.365"/>
			
				<line fill="none" stroke="#E9E9E9" stroke-width="3" stroke-miterlimit="10" x1="589.891" y1="232.949" x2="498.652" y2="177.867"/>
			
				<line fill="none" stroke="#E9E9E9" stroke-width="3" stroke-miterlimit="10" x1="912.139" y1="433.223" x2="796.885" y2="365.003"/>
			
				<line fill="none" stroke="#E9E9E9" stroke-width="3" stroke-miterlimit="10" x1="744.243" y1="133.886" x2="675.899" y2="93.433"/>
			
				<line fill="none" stroke="#E9E9E9" stroke-width="3" stroke-miterlimit="10" x1="1019.875" y1="304.277" x2="947.465" y2="260.628"/>
			<g>
				<g>
					
						<line fill="none" stroke="#E9E9E9" stroke-width="3" stroke-miterlimit="10" x1="285.202" y1="239.434" x2="287.351" y2="240.712"/>
					
						<line fill="none" stroke="#E9E9E9" stroke-width="3" stroke-miterlimit="10" stroke-dasharray="4.9752,4.9752" x1="291.626" y1="243.252" x2="854.125" y2="577.356"/>
					
						<line fill="none" stroke="#E9E9E9" stroke-width="3" stroke-miterlimit="10" x1="856.262" y1="578.627" x2="858.415" y2="579.903"/>
				</g>
			</g>
			
				<line fill="none" stroke="#E9E9E9" stroke-width="3" stroke-miterlimit="10" x1="706.725" y1="281.065" x2="824.141" y2="208.15"/>
		</g>
		<g>
			<polygon fill="#E9E9E9" points="1021.961,666.971 1013.217,674.807 945.29,628.86 951.778,619.204 			"/>
			<polygon fill="#E9E9E9" points="941.057,635.557 934.6,614.672 956.377,612.754 			"/>
		</g>
	</g>
	<g>
		<g>
			<g>
				<g>
					<polygon fill="#D3D3D3" points="574.044,196.383 530.711,221.883 530.711,226.383 827.247,404.985 864.668,377.034 
						865.047,370.014 					"/>
					<polygon fill="#FFFFFF" stroke="#CDCDCD" stroke-width="0.5" stroke-miterlimit="10" points="573.961,197.3 532.961,221.634 
						826.747,398.747 864.422,370.038 					"/>
				</g>
				<polygon fill="#DCDDDD" points="285.452,162.573 395.636,229.46 266.676,304.734 155.665,239.067 				"/>
				<polygon fill="#DCDDDD" points="463.002,267.727 571.807,332.236 444.449,409.668 332.098,345.34 				"/>
				<polygon fill="#DCDDDD" points="656.042,382.992 768.793,449.323 639.71,526.737 526.469,459.272 				"/>
				<polygon fill="#DCDDDD" points="854.631,501.522 968.168,569.45 838.629,645.573 725.514,577.602 				"/>
				<g>
					<polygon fill="#D3D3D3" points="659.792,58.21 616.458,83.71 616.458,88.21 659.792,113.377 704.292,88.043 704.292,83.043 
											"/>
					<polygon fill="#FFFFFF" stroke="#CDCDCD" stroke-width="0.5" stroke-miterlimit="10" points="659.708,59.127 618.708,83.461 
						659.875,107.13 703.079,83.498 					"/>
				</g>
				<g>
					<polygon fill="#D3D3D3" points="1031.364,287.137 988.032,312.637 988.032,317.137 1031.364,342.304 1075.864,316.97 
						1075.864,311.97 					"/>
					<polygon fill="#FFFFFF" stroke="#CDCDCD" stroke-width="0.5" stroke-miterlimit="10" points="1031.282,288.054 
						990.282,312.388 1031.45,336.057 1074.651,312.424 					"/>
				</g>
				<g>
					<polygon fill="#D3D3D3" points="755.348,117.952 712.014,143.452 712.014,147.952 929.954,281.096 971.506,256.059 
						971.5,249.748 					"/>
					<polygon fill="#FFFFFF" stroke="#CDCDCD" stroke-width="0.5" stroke-miterlimit="10" points="755.264,118.869 714.264,143.203 
						928.381,274.841 969.874,250.217 					"/>
				</g>
				<g>
					<polygon fill="#D3D3D3" points="263.024,413.525 219.691,439.026 219.691,443.526 437.628,576.67 479.184,551.633 
						479.177,545.321 					"/>
					<polygon fill="#FFFFFF" stroke="#CDCDCD" stroke-width="0.5" stroke-miterlimit="10" points="262.941,414.442 221.941,438.776 
						436.059,570.417 477.548,545.792 					"/>
				</g>
				<g>
					<polygon fill="#D3D3D3" points="115.938,499.586 72.605,525.086 72.605,529.586 290.542,662.731 332.096,637.694 
						332.089,631.381 					"/>
					<polygon fill="#FFFFFF" stroke="#CDCDCD" stroke-width="0.5" stroke-miterlimit="10" points="115.855,500.502 74.855,524.836 
						288.971,656.477 330.46,631.852 					"/>
				</g>
				<g>
					<polygon fill="#D3D3D3" points="935.526,419.462 892.192,444.963 892.192,449.463 935.526,474.631 980.026,449.297 
						980.026,444.297 					"/>
					<polygon fill="#FFFFFF" stroke="#CDCDCD" stroke-width="0.5" stroke-miterlimit="10" points="935.442,420.38 894.442,444.715 
						935.61,468.383 978.813,444.75 					"/>
				</g>
				<g>
					<polygon fill="#D3D3D3" points="436.513,112.929 393.18,138.429 393.18,142.929 485.798,195.942 524.861,170.587 
						524.798,166.079 					"/>
					<polygon fill="#FFFFFF" stroke="#CDCDCD" stroke-width="0.5" stroke-miterlimit="10" points="436.43,113.847 395.43,138.181 
						485.965,190.442 524.315,166.079 					"/>
				</g>
				<polygon fill="#BFBFBF" points="155.665,239.067 184.673,221.968 293.876,288.168 266.676,304.734 				"/>
				<polygon fill="#BFBFBF" points="332.859,345.539 361.87,327.833 470.393,393.961 443.872,411.206 				"/>
				<polygon fill="none" points="434.715,399.867 372.499,361.65 382.099,348.708 444.313,386.924 				"/>
				<polygon fill="#BFBFBF" points="527.365,459.424 556.374,441.719 667.524,510.471 639.867,526.581 				"/>
				
					<text transform="matrix(0.7956 0.499 -0.5571 0.8305 576.7637 475.1182)" font-family="'MicrosoftYaHeiLight'" font-size="14.0042">节能控制</text>
				<polygon fill="#BFBFBF" points="726.805,577.739 755.815,560.036 866.965,628.788 838.629,645.573 				"/>
				
					<text transform="matrix(0.7956 0.499 -0.5571 0.8305 772.7065 593.2715)" font-family="'MicrosoftYaHeiLight'" font-size="14.0042">安全保障</text>
				<g>
					<polygon fill="#FFFFFF" points="1079.899,643.963 1193.436,711.891 1063.899,799.852 956.391,725.655 					"/>
					<g>
						<polyline fill="none" stroke="#E9E9E9" stroke-width="3" stroke-miterlimit="10" points="1078.231,645.067 1079.899,643.963 
							1081.616,644.989 						"/>
						
							<line fill="none" stroke="#E9E9E9" stroke-width="3" stroke-miterlimit="10" stroke-dasharray="3.8881,3.8881" x1="1084.952" y1="646.987" x2="1190.049" y2="709.866"/>
						<polyline fill="none" stroke="#E9E9E9" stroke-width="3" stroke-miterlimit="10" points="1191.719,710.864 1193.436,711.891 
							1191.782,713.014 						"/>
						
							<line fill="none" stroke="#E9E9E9" stroke-width="3" stroke-miterlimit="10" stroke-dasharray="3.9123,3.9123" x1="1188.543" y1="715.213" x2="1067.17" y2="797.629"/>
						<polyline fill="none" stroke="#E9E9E9" stroke-width="3" stroke-miterlimit="10" points="1065.551,798.729 1063.899,799.852 
							1062.25,798.715 						"/>
						
							<line fill="none" stroke="#E9E9E9" stroke-width="3" stroke-miterlimit="10" stroke-dasharray="4.0846,4.0846" x1="1058.889" y1="796.396" x2="959.717" y2="727.952"/>
						<polyline fill="none" stroke="#E9E9E9" stroke-width="3" stroke-miterlimit="10" points="958.04,726.792 956.391,725.655 
							958.059,724.551 						"/>
						
							<line fill="none" stroke="#E9E9E9" stroke-width="3" stroke-miterlimit="10" stroke-dasharray="3.894,3.894" x1="961.307" y1="722.403" x2="1076.608" y2="646.141"/>
					</g>
				</g>
				<g>
					<g>
						
							<line fill="none" stroke="#E9E9E9" stroke-width="30" stroke-miterlimit="10" x1="725.286" y1="816.672" x2="726.917" y2="815.516"/>
						
							<line fill="none" stroke="#E9E9E9" stroke-width="30" stroke-miterlimit="10" stroke-dasharray="4.0135,4.0135" x1="730.192" y1="813.196" x2="1265.709" y2="433.955"/>
						
							<line fill="none" stroke="#E9E9E9" stroke-width="30" stroke-miterlimit="10" x1="1267.346" y1="432.795" x2="1268.981" y2="431.639"/>
					</g>
				</g>
				
					<text transform="matrix(0.7956 0.499 -0.5571 0.8305 1015.9946 729.6895)" fill="#808080" font-family="'MicrosoftYaHeiLight'" font-size="18.0032">运行管理</text>
				
					<text transform="matrix(0.7956 0.499 -0.5571 0.8305 202.0254 253.6587)" font-family="'MicrosoftYaHeiLight'" font-size="14.0042">能源管理</text>
			</g>
			<text transform="matrix(0.8021 -0.5971 0.5971 0.8021 884.3345 713.3701)" font-family="'MicrosoftYaHei'" font-size="20.9956">线下支撑</text>
			<text transform="matrix(0.8199 -0.5725 0.5725 0.8199 1001.1333 628.5391)" font-family="'MicrosoftYaHei'" font-size="21">线上运维</text>
		</g>
		
			<text transform="matrix(0.7956 0.499 -0.5571 0.8305 375.7578 358.0679)" font-family="'MicrosoftYaHeiLight'" font-size="14.0042">能源回收</text>
		
			<text transform="matrix(0.7956 0.499 -0.5571 0.8305 666.9165 287.4282)" font-family="'MicrosoftYaHeiLight'" font-size="14.0042">数据中心</text>
	</g>
	<polygon fill="none" points="693.366,301.55 631.148,263.333 640.749,250.39 702.963,288.608 	"/>
	<rect x="670.799" y="201.891" fill="none" width="51.158" height="13"/>
	<rect x="805.836" y="284.923" fill="none" width="51.16" height="13"/>
	<rect x="874.124" y="177.867" fill="none" width="51.162" height="13"/>
	<rect x="680.979" y="64.755" fill="none" width="51.16" height="13"/>
	<rect x="478.545" y="315.35" fill="none" width="51.16" height="13"/>
	<rect x="666.78" y="405.478" fill="none" width="51.16" height="13"/>
	<rect x="666.78" y="443.834" fill="none" width="51.16" height="13"/>
	<path fill="#FFFFFF" stroke="#0E77CA" stroke-width="2" stroke-miterlimit="10" d="M764.508,373.559"/>
	<polygon fill="none" points="243.174,280.248 211.531,260.4 220.476,247.064 252.12,266.912 	"/>
	<path fill="#FFFFFF" stroke="#0E77CA" stroke-width="2" stroke-miterlimit="10" d="M766.743,376.234"/>
	<polygon fill="none" points="634.997,513.114 572.78,474.897 582.379,461.954 644.595,500.17 	"/>
</g>
</svg>
