<svg height="200" viewBox="0 0 1024 1024" width="200" xmlns="http://www.w3.org/2000/svg"><path d="m795.403117 782.628674c-20.747533 0-37.303604-5.039783-63.24544-31.490202-12.824073-14.537088-24.74866-35.667338-35.895535-62.72867-19.506263-47.326888-34.525328-110.058628-49.53416-170.736592-14.56881-58.929134-30.792307-119.855762-48.886407-163.769924-16.885576-40.959877-29.880541-57.938574-46.666855-57.938574s-31.111578 19.853164-47.965432 60.814064c-18.095124 43.914162-30.336936 95.067192-47.847751 163.65429-11.273764 61.398372-29.388331 120.648824-48.859801 167.975713-11.178597 27.060309-22.13923 47.292096-34.96535 61.829184-16.71673 18.888186-40.126906 32.468482-60.874439 32.468482-20.748556 0-41.649586-11.577686-58.369385-30.465872-12.82305-14.537088-25.161053-34.044374-36.306904-61.104683-19.506263-47.326888-36.354999-112.784716-51.328016-173.46268-14.570857-58.929134-28.405957-116.989481-46.534849-160.903644-16.85283-40.959877-34.370809-61.234643-51.158147-61.234643l.00614-54.241368c20.748556 0 45.122687 10.620895 61.84351 29.525454 12.824073 14.538111 25.957185 37.084617 37.137828 64.142879 19.472494 47.308469 34.884508 110.058628 49.858548 170.738639 14.570857 58.911738 28.587082 117.157303 46.714952 161.055093 16.853853 40.958854 31.348985 60.530608 48.136323 60.530608 16.785292 0 31.251771-19.603477 48.102555-60.563354 18.131963-43.930535 33.510208-104.480586 48.081065-163.392324 14.97404-60.680011 30.507828-123.404588 50.013067-170.713057 11.145851-27.057239 22.331611-47.77919 35.192523-62.317301 16.686031-18.904559 38.372959-28.910447 59.122539-28.910446 20.781302 0 43.902906 12.8384 60.588937 31.742958 12.825097 14.538111 23.817452 34.771945 34.965349 61.829184 19.47147 47.308469 34.637892 106.804515 49.645701 167.484525 14.537088 58.911738 29.743418 123.07406 47.804772 167.004595 16.887622 40.958854 33.534767 58.793034 50.290383 58.793035zm137.619334 0c-20.747533 0-37.304627-5.039783-63.246463-31.490202-12.82305-14.537088-24.74866-35.667338-35.895535-62.72867-19.506263-47.326888-34.525328-110.058628-49.53416-170.736592-14.567787-58.929134-30.792307-119.855762-48.885383-163.769924-16.886599-40.959877-29.880541-57.938574-46.66788-57.938574-16.786315 0-31.111578 19.853164-47.964408 60.814064-18.096147 43.914162-30.336936 95.067192-47.847751 163.65429-11.274788 61.398372-29.388331 120.648824-48.858778 167.975713-11.17962 27.060309-22.140253 47.292096-34.965349 61.829184-16.71673 18.888186-40.126906 32.468482-60.874439 32.468482-20.748556 0-41.649586-11.577686-58.369386-30.465872-12.82305-14.537088-25.161053-34.044374-36.306904-61.104683-19.506263-47.326888-36.354999-112.784716-51.328015-173.46268-14.570857-58.929134-28.405957-116.989481-46.53485-160.903644-16.85283-40.959877-34.370809-61.234643-51.158147-61.234643l.00614-54.241368c20.748556 0 45.122687 10.620895 61.84351 29.525454 12.824073 14.538111 25.957185 37.084617 37.137829 64.142879 19.472494 47.308469 34.884508 110.058628 49.858548 170.738639 14.570857 58.911738 28.587082 117.157303 46.714951 161.055093 16.853853 40.958854 31.348985 60.530608 48.136324 60.530608 16.785292 0 31.251771-19.603477 48.102554-60.563354 18.130939-43.930535 33.511231-104.480586 48.081065-163.392324 14.97404-60.680011 30.507828-123.404588 50.014091-170.713057 11.145851-27.057239 22.330588-47.77919 35.1915-62.317301 16.687054-18.904559 38.373982-28.910447 59.122539-28.910446 20.782326 0 43.903929 12.8384 60.588936 31.742958 12.825097 14.538111 23.818475 34.771945 34.96535 61.829184 19.47147 47.308469 34.638915 106.804515 49.6457 167.484525 14.538111 58.911738 29.743418 123.07406 47.805796 167.004595 16.886599 40.958854 33.534767 58.793034 50.28936 58.793035zm-878.440833 52.224432h868.306008v53.723575h-868.306008z" /></svg>