<svg height="200" viewBox="0 0 1024 1024" width="200" xmlns="http://www.w3.org/2000/svg"><path d="m512.000512 314.363757-17.856694 20.39654c-89.25686 94.360088-135.154189 165.760255-135.154189 221.869156 0 84.148515 68.859297 153.005766 153.009859 153.005766 84.148515 0 153.007813-68.857251 153.007813-153.005766 0-56.108902-45.89733-127.509069-135.152143-221.869156zm0 348.161515c-58.360176 0-106.10048-47.765887-106.10048-106.098433 0-37.144992 34.476209-95.505167 106.10048-172.439375 71.622224 76.934207 106.098433 137.961118 106.098433 172.439375 0 61.001329-47.738257 106.098433-106.098433 106.098433zm296.608371-560.161906h-652.478451c-13.353123 0-24.121374 10.768251-24.121374 24.060998 0 13.353123 10.768251 24.121374 24.121374 24.121374h652.478451c52.060703 0 94.490048 42.398646 94.490048 94.520747v416.329057l-93.13519-93.104491c-9.41544-9.414417-24.677029-9.414417-34.09247 0-9.413394 9.414417-9.413394 24.644283 0 34.060746l134.273123 134.243447a23.983227 23.983227 0 0 0 17.046235 7.077186c3.170203 0 6.277984-.61603 9.230222-1.847068 8.985652-3.693112 14.861476-12.492522 14.861476-22.246676v-474.512201c0-78.673827-63.998593-142.703119-142.673444-142.703119zm59.259662 771.05815h-652.415006c-52.123125 0-94.551446-42.399669-94.551447-94.551446v-416.329057l93.136214 93.167936c9.414417 9.414417 24.676006 9.414417 34.090423 0 9.416464-9.41544 9.416464-24.676006 0-34.091446l-134.273123-134.275169c-6.890944-6.860245-17.292851-8.859785-26.276457-5.230118-8.985652 3.75451-14.861476 12.55392-14.861476 22.277376v474.481501c0 78.70555 64.029292 142.766564 142.735866 142.766565h652.415006c13.353123 0 24.12342-10.800997 24.12342-24.123421 0-13.291724-10.770298-24.092721-24.12342-24.092721z" /></svg>