<svg height="200" viewBox="0 0 1024 1024" width="200" xmlns="http://www.w3.org/2000/svg"><path d="m499.122203 884.573507-89.282442-84.129072 32.620955-185.4282h109.026112l24.892947 186.287777zm-53.225225-101.296057 51.507094 49.788963 46.361911-48.074925-18.027586-135.636167h-59.233056zm175.130669-225.780233c77.259618-42.924625 128.768759-123.620505 128.768759-218.049155 0-137.354298-110.74936-248.955048-246.382457-248.955048s-246.381433 110.742197-246.381433 248.955048 110.747313 248.951979 246.382457 248.951979h10.304693c198.301392 0 369.996822 141.648091 384.591215 302.18539h-770.902608c8.583492-107.307981 78.974679-201.740724 186.284707-257.541611 10.30367-5.1503 14.595416-18.027585 8.584516-28.331255-6.005784-10.3006-18.027585-14.59644-28.328186-8.588609-130.487913 63.534012-211.18277 182.858678-211.18277 315.922253v21.461801h858.468966v-21.461801c-.00307-164.825976-139.076522-311.626413-320.207859-354.548992zm-323.644121-218.050178c0-112.458281 90.998527-204.313316 204.311269-204.313316 113.320928 0 204.319455 90.995457 204.319455 203.454762s-91.858104 204.316385-204.319455 204.316385c-112.455211 0-204.311269-90.998527-204.311269-203.457831z" /></svg>