<svg height="200" viewBox="0 0 1024 1024" width="200" xmlns="http://www.w3.org/2000/svg"><path d="m971.463971 512c0-253.755378-205.709105-459.464483-459.464483-459.464483-253.758448 0-459.464483 205.709105-459.464483 459.464483 0 253.758448 205.709105 459.464483 459.464483 459.464483 102.020558 0 199.032032-33.363875 278.446733-93.958952 8.776897-6.689353 10.464329-19.224854 3.773954-27.997657-6.696516-8.770757-19.232017-10.462283-27.999704-3.76679-72.523757 55.327096-161.036673 85.770456-254.222006 85.770455-231.688803 0-419.512562-187.823759-419.512562-419.511539 0-231.688803 187.823759-419.511539 419.512562-419.511539 231.683686 0 419.510516 187.822736 419.510516 419.511539 0 78.119195-21.366633 153.041582-61.164035 218.244606-5.753027 9.41851-2.772136 21.713534 6.642281 27.461445 9.416464 5.746888 21.711488 2.771113 27.457352-6.641257 43.606147-71.431889 67.019393-153.552212 67.019392-239.064794zm-138.493237-1.488911c-5.77554-40.240493-23.103184-80.269162-46.206368-108.790751-37.103036-45.782719-118.40369-74.596975-174.152389-56.894802-66.353221 21.084201-104.560404 62.453401-118.66361 123.616412-2.034333 8.832156-3.359514 11.630898-5.377474 24.052813-4.963035-.8913-2.87856-.788969-7.782244-1.936096-51.937906-14.665001-73.086575-29.333072-95.940072-86.790692-14.560624-45.814442 5.92085-104.942097 44.134173-135.908366 21.678742-17.560958 33.871435-25.551956 63.826677-31.760354l-.85446 109.351523c.005117 6.755868 4.849448 20.352537 20.33207 20.352537 15.483646 0 20.084431-13.603833 20.088524-20.352537 0 0 .255827-117.900224 0-134.091997-.255827-16.191774-13.337773-20.412912-20.092617-20.412912-.585331 0-1.166569.046049-1.738597.127913-40.238446 5.77554-80.534198 22.584368-109.048625 45.691645-64.057945 59.368132-73.2677 127.587863-53.860699 180.422186 18.455327 65.526389 66.487274 100.159164 127.654379 114.261347 5.892197 1.358951 1.420349.581238 7.460925 1.662872-2.713808 16.47523-4.754281 19.105127-7.930623 27.926026-27.117614 59.566654-69.328995 85.660962-130.516566 81.056084-63.34163-6.588045-106.378819-63.189158-111.626333-103.734596l107.048062-1.410116c6.754844-.007163 17.926278-4.417613 17.926278-19.603476 0-15.188934-13.615089-20.809955-20.366864-20.817118l-125.787868.511653c-14.248516-.76748-20.114107 13.249769-20.388352 19.805068-3.137457 76.044954 63.444984 158.25021 150.661371 165.66918 69.093635 11.256368 145.33097-36.839023 171.057911-107.08183 3.831258-10.597359 6.360871-18.274202 9.31618-36.269042l5.703908 1.294482c21.913079 3.423983 23.003923 4.738931 33.221636 8.429997 61.870116 26.435069 83.10372 65.832358 81.312934 130.58615-6.587022 63.346747-67.282383 108.696608-105.016799 111.262037l.639567-104.225783c-.00307-6.753821-6.481621-20.880563-20.635993-20.624737-14.156418.255827-21.057595 13.879102-21.063735 20.624737l.511653 125.790938c-.00307 6.558369 6.907317 19.615757 20.058848 20.639062 76.05007 3.140527 157.484777-62.421678 166.098969-150.913105 7.879458-75.810616-38.921451-146.287761-107.507526-171.06098-12.17939-4.405333-23.25975-7.662517-46.716997-11.332093l.221034.218987c1.912559-11.822257 1.77646-10.933003 3.661389-19.0908 12.299117-53.305043 39.141462-78.890768 89.25379-96.286973 45.310975-12.791327 100.313683 4.604878 134.806266 43.702337 17.558911 21.681812 19.848047 29.290093 30.743188 63.872727l-109.092628-.38374c-6.756891.008186-20.355607 5.119601-20.355606 20.59506 0 15.477506 13.606903 20.073174 20.355606 20.082385l137.233548.255826c10.233062 0 17.404392-13.617136 17.396205-20.380166-.00307-.567935.077771-1.13894-.002046-1.708922z" /></svg>